<?xml version="1.0" encoding="UTF-8"?>
<svg width="24px" height="24px" viewBox="0 0 24 24" version="1.1" xmlns="http://www.w3.org/2000/svg" xmlns:xlink="http://www.w3.org/1999/xlink">
    <!-- Generator: sketchtool 50.2 (55047) - http://www.bohemiancoding.com/sketch -->
    <title>C904138D-33BC-4C8F-AF25-39253873F907</title>
    <desc>Created with sketchtool.</desc>
    <defs></defs>
    <g id="Symbols" stroke="none" stroke-width="1" fill="none" fill-rule="evenodd">
        <g id="a/icon_facebook">
            <rect id="Rectangle-2-Copy-2" fill="#000000" opacity="0" x="0" y="0" width="24" height="24"></rect>
            <path d="M21,1 L3,1 C1.897,1 1,1.897 1,3 L1,21 C1,22.103 1.897,23 3,23 L10.5,23 C10.776,23 11,22.776 11,22.5 L11,15.5 C11,15.224 10.776,15 10.5,15 L9.521,15 C9.245,15 9.021,14.776 9.021,14.5 L9.021,11.5 C9.021,11.224 9.245,11 9.521,11 L10.5,11 C10.776,11 11,10.776 11,10.5 L11,9.5 C11,7.019 13.019,5 15.5,5 L18.5,5 C18.776,5 19,5.224 19,5.5 L19,8.5 C19,8.776 18.776,9 18.5,9 L15.5,9 C15.224,9 15,9.224 15,9.5 L15,10.5 C15,10.776 15.224,11 15.5,11 L18.5,11 C18.647,11 18.787,11.064 18.881,11.176 C18.977,11.289 19.018,11.437 18.993,11.583 L18.493,14.583 C18.453,14.824 18.246,15 18,15 L15.5,15 C15.224,15 15,15.224 15,15.5 L15,22.5 C15,22.776 15.224,23 15.5,23 L21,23 C22.103,23 23,22.103 23,21 L23,3 C23,1.897 22.103,1 21,1" id="Fill-41" fill="#29282B"></path>
        </g>
    </g>
</svg>