<?xml version="1.0" encoding="UTF-8"?>
<svg width="32px" height="32px" viewBox="0 0 32 32" version="1.1" xmlns="http://www.w3.org/2000/svg" xmlns:xlink="http://www.w3.org/1999/xlink">
    <!-- Generator: sketchtool 50.2 (55047) - http://www.bohemiancoding.com/sketch -->
    <title>603787D6-D696-453E-8183-0FC5B8FDCDB8</title>
    <desc>Created with sketchtool.</desc>
    <defs></defs>
    <g id="style-guide" stroke="none" stroke-width="1" fill="none" fill-rule="evenodd">
        <g id="Elements" transform="translate(-824.000000, -1190.000000)">
            <g id="a/icon_scroll" transform="translate(824.000000, 1190.000000)">
                <g>
                    <rect id="Rectangle-3" fill="#FFFFFF" x="27" y="8" width="2" height="14" rx="1"></rect>
                    <rect id="Rectangle-2" stroke="#FFFFFF" stroke-width="2" x="1" y="1" width="20" height="30" rx="10"></rect>
                    <rect id="Rectangle-2-Copy" fill="#EEF0F2" x="9" y="8" width="4" height="6" rx="2"></rect>
                    <path d="M30.2163884,19.3033009 C30.6244142,18.8988997 31.2859548,18.8988997 31.6939806,19.3033009 C32.1020065,19.707702 32.1020065,20.3633658 31.6939806,20.767767 L28.7387961,23.6966991 C28.3307703,24.1011003 27.6692297,24.1011003 27.2612039,23.6966991 L24.3060194,20.767767 C23.8979935,20.3633658 23.8979935,19.707702 24.3060194,19.3033009 C24.7140452,18.8988997 25.3755858,18.8988997 25.7836116,19.3033009 L28,21.5 L30.2163884,19.3033009 Z" id="Path-2-Copy" fill="#FFFFFF" fill-rule="nonzero"></path>
                </g>
            </g>
        </g>
    </g>
</svg>