<svg xmlns="http://www.w3.org/2000/svg" width="80" height="80" viewBox="0 0 80 80">
    <path fill="#AE8FFF" fill-rule="evenodd" d="M58.8 66.8c-3.733 0-6.833-1.3-9.3-3.9-2.467-2.6-3.7-5.833-3.7-9.7 0-2 .2-3.967.6-5.9.4-1.933 1.267-4.7 2.6-8.3l9.6-28h12.6l-7.4 29.8c2.533.933 4.567 2.5 6.1 4.7 1.533 2.2 2.3 4.767 2.3 7.7 0 4-1.267 7.267-3.8 9.8-2.533 2.533-5.733 3.8-9.6 3.8zm-37.8 0c-3.733 0-6.833-1.3-9.3-3.9C9.233 60.3 8 57.067 8 53.2c0-2 .2-3.967.6-5.9.4-1.933 1.267-4.7 2.6-8.3l9.6-28h12.6L26 40.8c2.533.933 4.567 2.5 6.1 4.7 1.533 2.2 2.3 4.767 2.3 7.7 0 4-1.267 7.267-3.8 9.8-2.533 2.533-5.733 3.8-9.6 3.8z" opacity=".4"/>
</svg>
