<?xml version="1.0" encoding="UTF-8"?>
<svg width="24px" height="24px" viewBox="0 0 24 24" version="1.1" xmlns="http://www.w3.org/2000/svg" xmlns:xlink="http://www.w3.org/1999/xlink">
    <!-- Generator: sketchtool 50.2 (55047) - http://www.bohemiancoding.com/sketch -->
    <title>033D4AC3-B358-4536-9D0F-B6C8CE89FCF4</title>
    <desc>Created with sketchtool.</desc>
    <defs></defs>
    <g id="Symbols" stroke="none" stroke-width="1" fill="none" fill-rule="evenodd">
        <g id="a/icon_twitter">
            <rect id="Rectangle-2-Copy" fill="#000000" opacity="0" x="0" y="0" width="24" height="24"></rect>
            <path d="M23.8659476,4.43 C23.7129476,4.265 23.4679476,4.223 23.2679476,4.328 C23.1249476,4.403 22.8469476,4.501 22.5209476,4.597 C22.9119476,4.084 23.2289476,3.501 23.3649476,2.979 C23.4189476,2.776 23.3379476,2.561 23.1659476,2.441 C22.9909476,2.322 22.7619476,2.324 22.5919476,2.445 C22.2979476,2.654 20.9389476,3.256 20.0619476,3.451 C18.9489476,2.45 17.8409476,2 16.5009476,2 C15.4959476,2 14.5649476,2.287 13.4829476,2.929 C11.5959476,4.049 11.2689476,6.47 11.4089476,7.955 C6.28694756,7.467 3.41394756,4.487 2.39294756,3.19 C2.29094756,3.061 2.12894756,2.999 1.96494756,3.001 C1.79994756,3.013 1.65094756,3.105 1.56794756,3.248 C0.34694756,5.341 0.84694756,7.495 1.78494756,8.944 C1.63094756,8.839 1.47494756,8.722 1.31894756,8.593 C1.16894756,8.47 0.96194756,8.442 0.78694756,8.526 C0.61194756,8.608 0.49994756,8.784 0.49994756,8.978 C0.49994756,11.175 1.78694756,12.745 3.04294756,13.637 C2.91994756,13.604 2.78794756,13.566 2.64894756,13.522 C2.46094756,13.465 2.25694756,13.52 2.12694756,13.667 C1.99594756,13.814 1.96294756,14.024 2.04294756,14.203 C2.84594756,16.008 4.44294756,17.354 6.23294756,17.822 C4.69394756,18.759 2.56594756,19.24 0.55794756,19.003 C0.32394756,18.972 0.0989475599,19.118 0.0249475599,19.344 C-0.0490524401,19.569 0.0459475599,19.816 0.25194756,19.934 C2.68594756,21.324 5.21494756,22 7.98294756,22 L8.00094756,22 C11.7819476,21.997 15.3329476,20.352 17.9989476,17.368 C20.5719476,14.489 21.9209476,10.802 21.6449476,7.445 C22.3059476,6.951 23.3069476,6.027 23.9239476,5.035 C24.0439476,4.843 24.0199476,4.595 23.8659476,4.43 Z" id="Fill-43" fill="#29282B"></path>
        </g>
    </g>
</svg>