<?xml version="1.0" encoding="UTF-8"?>
<svg width="166px" height="60px" viewBox="0 0 166 60" version="1.1" xmlns="http://www.w3.org/2000/svg" xmlns:xlink="http://www.w3.org/1999/xlink">
    <!-- Generator: sketchtool 50.2 (55047) - http://www.bohemiancoding.com/sketch -->
    <title>7387AC14-43CD-4D6F-9182-7F581EF33254</title>
    <desc>Created with sketchtool.</desc>
    <defs>
        <rect id="path-1" x="0" y="0" width="208" height="108"></rect>
        <polygon id="path-3" points="-2.77630505e-13 0 189.373134 0 189.373134 77.6119403 -3.40866224e-13 77.6119403 -3.40866224e-13 0"></polygon>
    </defs>
    <g id="responsive" stroke="none" stroke-width="1" fill="none" fill-rule="evenodd">
        <g id="Desktop-1024" transform="translate(-787.000000, -996.000000)">
            <g id="Alfa-Bank" transform="translate(768.000000, 974.000000)">
                <mask id="mask-2" fill="white">
                    <use xlink:href="#path-1"></use>
                </mask>
                <use id="Mask" fill="#EEF0F2" opacity="0" xlink:href="#path-1"></use>
                <g id="g124" mask="url(#mask-2)">
                    <g transform="translate(104.000000, 54.328358) scale(-1, 1) rotate(-180.000000) translate(-104.000000, -54.328358) translate(9.313433, 15.522388)" id="g126-Clipped">
                        <g transform="translate(0.000000, 0.000000)">
                            <mask id="mask-4" fill="white">
                                <use xlink:href="#path-3"></use>
                            </mask>
                            <g id="path130"></g>
                            <g id="g126" mask="url(#mask-4)">
                                <g transform="translate(9.313433, 11.641791)" id="g132">
                                    <g transform="translate(0.271508, 0.112007)">
                                        <path d="M19.2295045,58.464633 C23.1839495,58.464633 24.4265211,55.6282801 25.4690364,52.7963729 C25.9069372,51.5938126 36.1831594,23.4525683 36.4921352,22.6078864 C36.5743805,22.3722646 36.5188093,21.9854892 36.1564852,21.8454498 C35.7919383,21.7076333 30.4526596,19.6314941 30.1570209,19.5203517 C29.8613822,19.4069865 29.530178,19.5714772 29.4234814,19.8671159 C29.312339,20.1583089 27.0961604,26.2933669 26.8472016,26.9780038 L11.6162532,26.9780038 C11.3761857,26.2933669 9.13333299,20.1449718 9.03330487,19.8671159 C8.9310539,19.5848143 8.61318677,19.3936495 8.29754248,19.5203517 C7.98189819,19.6448312 2.62261382,21.7209704 2.30252384,21.8454498 C1.99577094,21.9654836 1.85573157,22.3144706 1.96242823,22.6078864 C2.34031224,23.6615159 12.4609351,51.3515223 12.9766356,52.7963729 C13.9813625,55.586046 15.2661682,58.464633 19.2295045,58.464633 Z M1.14886619,8.11047756 C0.828776206,8.11047756 0.573148789,7.8437359 0.573148789,7.51920023 L0.573148789,0.941795645 C0.573148789,0.617259968 0.828776206,0.35496401 1.14886619,0.35496401 L37.294583,0.35496401 C37.6213415,0.35496401 37.8769689,0.617259968 37.8769689,0.941795645 L37.8769689,7.51920023 C37.8769689,7.8437359 37.6213415,8.11047756 37.294583,8.11047756 L1.14886619,8.11047756 Z M19.193939,49.2753831 L14.0458251,33.8154815 L24.4265211,33.8154815 L19.2606244,49.2753831 L19.193939,49.2753831 Z M96.4445444,23.9260347 C95.6865535,23.6704073 95.1864129,23.6081676 94.5906899,23.6081676 C93.3592326,23.6081676 92.6768186,24.0949711 92.6768186,25.3575482 C92.6768186,26.6734737 93.5437289,27.1135975 95.2464298,27.1135975 C95.6621022,27.1135975 96.0711061,27.0535806 96.2622709,26.9868952 L96.2622709,26.044408 C96.2622709,25.0285669 96.3178421,24.3617127 96.4445444,23.9260347 Z M100.82133,22.4189444 C99.9121859,23.7993324 99.6743412,24.6128945 99.6743412,26.3533837 L99.6743412,29.8877106 C99.6743412,31.7904678 99.4520565,32.4773275 98.9496931,33.1708558 C98.2494963,34.1533542 97.0825015,34.5801409 94.9374541,34.5801409 C93.4192495,34.5801409 91.9455019,34.4156502 90.518434,34.0511033 L91.0341346,31.539286 C91.9988502,31.6748797 93.0102456,31.7904678 93.7237795,31.7904678 C96.0021978,31.7904678 96.2622709,31.4614864 96.2622709,29.752117 L96.2622709,29.1141598 C95.7554618,29.2497535 95.1864129,29.3475588 94.5262274,29.3475588 C91.0963743,29.3475588 89.2847539,27.6693092 89.2847539,24.8907503 C89.2847539,22.2855735 91.2208537,20.8651742 93.5792945,20.8651742 C94.4595419,20.8651742 95.3798006,21.0274421 96.1088945,21.3253036 C96.5490182,21.5164684 96.7401831,21.6298336 97.3092319,21.9988263 C97.6515504,21.5009085 98.3384101,20.9918765 98.6184889,20.8962941 L100.82133,22.4189444 Z M134.748646,23.9260347 C133.986209,23.6704073 133.49496,23.6081676 132.894791,23.6081676 C131.658888,23.6081676 130.967583,24.0949711 130.967583,25.3575482 C130.967583,26.6734737 131.845607,27.1135975 133.552754,27.1135975 C133.968426,27.1135975 134.379653,27.0535806 134.566372,26.9868952 L134.566372,26.044408 C134.566372,25.0285669 134.619721,24.3617127 134.748646,23.9260347 Z M139.129877,22.4189444 C138.214064,23.7993324 137.980665,24.6128945 137.980665,26.3533837 L137.980665,29.8877106 C137.980665,31.7904678 137.753935,32.4773275 137.247126,33.1708558 C136.55582,34.1533542 135.386603,34.5801409 133.234887,34.5801409 C131.718905,34.5801409 130.236266,34.4156502 128.809198,34.0511033 L129.31823,31.539286 C130.285169,31.6748797 131.298787,31.7904678 132.032327,31.7904678 C134.297408,31.7904678 134.566372,31.4614864 134.566372,29.752117 L134.566372,29.1141598 C134.059563,29.2497535 133.49496,29.3475588 132.821437,29.3475588 C129.387138,29.3475588 127.56885,27.6693092 127.56885,24.8907503 C127.56885,22.2855735 129.509395,20.8651742 131.87895,20.8651742 C132.770312,20.8651742 133.681679,21.0274421 134.404104,21.3253036 C134.850897,21.5164684 135.035393,21.6298336 135.604442,21.9988263 C135.951206,21.5009085 136.638066,20.9918765 136.920367,20.8962941 L139.129877,22.4189444 Z M165.835162,21.1608129 C165.835162,21.1608129 163.954634,25.1686062 163.494504,26.0799735 C162.976581,27.1069289 162.496446,27.8160171 161.438371,28.0716446 L161.438371,28.1294386 C162.147459,28.2650323 162.712062,28.6940417 163.330014,30.0055215 C163.914623,31.2836586 164.088005,31.5592917 164.432546,31.8638217 C164.770419,32.1661289 165.232771,32.0572094 165.232771,32.0572094 L165.406153,34.4200959 C164.914904,34.4867813 164.370306,34.4890041 163.807926,34.4578843 C162.87433,34.4023131 162.391972,34.1333486 161.931843,33.6709964 C161.571742,33.3175637 161.327229,32.7885261 161.024921,32.1816889 C160.704831,31.5192804 160.451427,30.9857971 160.118,30.3122744 C159.786795,29.620969 159.631196,29.3097704 158.739835,29.3097704 L158.159671,29.3097704 L158.159671,39.7771574 L154.725373,39.7771574 L154.725373,21.1608129 L158.159671,21.1608129 L158.159671,26.5134287 L158.628692,26.5223201 C159.613413,26.5223201 159.786795,26.2755841 160.306942,25.2375145 C160.916002,23.9993887 162.082997,21.1608129 162.082997,21.1608129 L165.835162,21.1608129 Z M69.0879651,21.1608129 L73.0513015,21.1608129 L67.0562828,39.4659588 C66.4249943,39.6771293 65.6447749,39.8082773 64.8112073,39.8082773 C63.9020628,39.8082773 63.5775271,39.6882435 62.866216,39.4659588 L56.5222104,21.1608129 L60.3255018,21.1608129 C60.3255018,21.1608129 60.8389795,22.7657085 61.4435939,24.7551567 L68.0143299,24.7551567 C68.6011616,22.7679314 69.0879651,21.1608129 69.0879651,21.1608129 Z M62.4083095,27.8249085 C62.4083095,27.8249085 63.506396,31.4992748 63.6775552,32.0705465 C64.1132333,33.5509627 64.7756417,35.9027349 64.7756417,35.9027349 L64.8845612,35.9027349 C64.8845612,35.9027349 65.498067,33.4664945 65.8981795,32.0972207 C66.0493331,31.5526231 67.0985169,27.8249085 67.0985169,27.8249085 L62.4083095,27.8249085 Z M106.671864,29.9188305 C105.460412,29.9188305 104.475691,28.9296635 104.475691,27.7182119 C104.475691,26.4978688 105.460412,25.5153704 106.671864,25.5153704 C107.885538,25.5153704 108.865814,26.4978688 108.865814,27.7182119 C108.865814,28.9296635 107.885538,29.9188305 106.671864,29.9188305 Z M77.7570688,39.7771574 L74.3138786,39.7771574 L74.3138786,21.1630358 L77.7570688,21.1630358 L77.7570688,39.7771574 Z M146.165188,31.6215314 C148.067946,31.5815201 148.303567,31.1880762 148.303567,29.592072 L148.303567,21.1608129 L151.715638,21.1608129 L151.715638,29.8877106 C151.715638,31.7904678 151.493353,32.4773275 150.986544,33.1708558 C150.286347,34.1533542 148.910405,34.5801409 146.583084,34.5801409 C144.280214,34.5801409 142.813135,34.3356277 140.925938,33.7732474 L140.925938,21.1608129 L144.373574,21.1608129 L144.373574,31.4614864 C145.278272,31.5926344 145.438317,31.6215314 146.165188,31.6215314 Z M86.2727961,40.1083616 C84.1210801,40.1083616 82.9496396,39.681575 82.260557,38.7012994 C81.7537479,38.0055483 81.5292403,37.3031286 81.5292403,35.3959258 L81.5292403,33.7732474 L79.8198709,33.7732474 L79.8198709,30.9902428 L81.5292403,30.9902428 L81.5292403,21.1608129 L84.9435335,21.1608129 L84.9346421,30.9902428 L88.337821,30.9902428 L88.337821,33.7732474 L84.9346421,33.7732474 L84.9435335,35.2647778 C84.9435335,36.9719244 85.2036066,37.3031286 87.4842477,37.3031286 C87.7309838,37.3031286 88.0088396,37.2897915 88.3044783,37.267563 L88.8424073,39.9416481 C87.9999483,40.0527904 87.1374836,40.1083616 86.2727961,40.1083616 Z M113.667164,39.9349796 C114.838604,40.0038878 117.457118,40.1016931 119.099802,40.1016931 C119.399886,40.1016931 119.711085,40.0994702 120.022284,40.0839103 C123.25208,40.0839103 125.103712,37.7321381 125.103712,34.971362 C125.103712,33.0930562 124.24347,31.8460389 122.227348,31.103608 C124.599126,30.5790161 125.841697,28.7273845 125.841697,26.4623033 C125.841697,24.7996136 125.372677,23.4792424 124.512435,22.5789894 C123.396566,21.4809029 121.707202,20.8651742 119.45768,20.8651742 C117.457118,20.8651742 114.945301,20.927414 113.667164,21.0029908 L113.667164,39.9349796 Z M119.099802,36.8852333 C118.530753,36.8852333 117.826111,36.8741191 117.128137,36.8496678 L117.128137,32.3795222 L119.102025,32.3795222 C119.884467,32.3795222 120.513533,32.5973613 120.942542,33.0174794 C121.351546,33.4131461 121.56494,33.9733036 121.56494,34.6379349 C121.56494,36.0672256 120.791389,36.8763419 119.353207,36.8852333 L119.099802,36.8852333 Z M119.170933,24.0749655 L119.319864,24.0749655 C121.113702,24.0749655 122.211788,25.0285669 122.225125,26.9491068 C122.207342,27.6381894 121.942824,28.2739236 121.469357,28.734053 C120.951434,29.2541992 120.217894,29.5253866 119.357652,29.5253866 L117.128137,29.5253866 L117.128137,24.0949711 C117.757202,24.081634 118.450731,24.0794112 119.170933,24.0749655 Z" id="path134" fill="#29282B" fill-rule="nonzero"></path>
                                    </g>
                                </g>
                            </g>
                        </g>
                    </g>
                </g>
            </g>
        </g>
    </g>
</svg>