<?xml version="1.0" encoding="UTF-8"?>
<svg width="171px" height="54px" viewBox="0 0 171 54" version="1.1" xmlns="http://www.w3.org/2000/svg" xmlns:xlink="http://www.w3.org/1999/xlink">
    <!-- Generator: sketchtool 50.2 (55047) - http://www.bohemiancoding.com/sketch -->
    <title>745A45D2-1216-404A-8F65-18A075173C86</title>
    <desc>Created with sketchtool.</desc>
    <defs>
        <rect id="path-1" x="0" y="0" width="208" height="108"></rect>
    </defs>
    <g id="responsive" stroke="none" stroke-width="1" fill="none" fill-rule="evenodd">
        <g id="Desktop-1024" transform="translate(-547.000000, -1001.000000)">
            <g id="Group-2" transform="translate(528.000000, 974.000000)">
                <mask id="mask-2" fill="white">
                    <use xlink:href="#path-1"></use>
                </mask>
                <use id="Mask" fill="#EEF0F2" opacity="0" xlink:href="#path-1"></use>
                <g id="logo-infotech-group" mask="url(#mask-2)" fill="#29282B" fill-rule="nonzero">
                    <g transform="translate(18.626866, 27.164179)" id="Shape">
                        <path d="M55.5446647,52.6255291 C52.3822678,51.4092225 49.6253063,48.9766095 48.1657385,45.5709512 C45.408777,39.2461573 47.5170417,32.7591891 53.9229227,28.1372243 C58.0583649,25.2180887 58.7881488,23.109824 57.8151036,18.1635108 C56.2744487,10.7034974 59.1935843,4.13544219 65.275117,1.45956783 C72.0053464,-1.54065493 79.8707953,1.54065493 82.7899309,8.27088438 C85.4658053,14.352417 83.1953665,21.1637336 77.0327467,25.7046113 C72.6540432,28.8670082 72.3296948,31.7861439 73.1405658,35.6783248 C74.7623079,43.1383382 71.8431722,49.7063934 65.6805525,52.4633549 C62.3559813,53.8418356 58.7070617,53.8418356 55.5446647,52.6255291 Z M73.2216529,6.89240365 C71.5188238,6.24370684 69.5727333,6.24370684 67.70773,7.05457786 C66.4103364,7.62218757 62.2748942,10.0548006 63.734462,16.9472043 C65.275117,24.3261305 63.4912007,28.8670082 57.4096681,33.1646246 C55.1392292,34.7863667 51.5713967,38.2731121 53.6796614,43.1383382 C55.3014034,46.7872577 59.5179327,48.4089998 63.1668523,46.7872577 C68.3564268,44.5168189 67.5455558,38.6785476 67.1401203,36.8946313 C65.5994654,29.9211406 67.5455558,24.8937403 73.3838271,20.677211 C79.1410114,16.5417688 77.6814435,12.0008911 77.1138338,10.7034974 C76.465137,8.9195812 75.0055692,7.62218757 73.2216529,6.89240365 Z"></path>
                        <polygon points="8.51414569 1.21630653 8.51414569 24.0828692 2.59478726 24.0828692 2.59478726 1.21630653"></polygon>
                        <path d="M13.6226331,24.0828692 L13.6226331,1.21630653 L19.2987302,1.21630653 L28.1372243,14.2713299 C28.0561372,13.2171976 27.9750501,11.7576298 27.9750501,10.4602361 L27.9750501,1.21630653 L34.1376699,1.21630653 L34.1376699,24.0828692 L28.3804856,24.0828692 L19.4609044,10.9467587 C19.5419915,12.0008911 19.5419915,13.4604589 19.5419915,14.6767654 L19.5419915,24.0017821 L13.6226331,24.0017821 L13.6226331,24.0828692 Z"></path>
                        <polygon points="56.4366229 1.21630653 56.4366229 6.56805525 45.1655157 6.56805525 45.1655157 11.0278458 53.1120517 11.0278458 52.1390065 16.3795946 45.1655157 16.3795946 45.1655157 23.920695 39.002896 23.920695 39.002896 1.21630653"></polygon>
                        <polygon points="104.683448 1.21630653 104.683448 6.56805525 98.2775674 6.56805525 98.2775674 24.0017821 92.1149476 24.0017821 92.1149476 6.64914235 85.7090666 6.64914235 85.7090666 1.21630653"></polygon>
                        <polygon points="124.955224 1.21630653 124.955224 6.32479394 113.927378 6.32479394 113.927378 9.89262642 121.468479 9.89262642 120.495433 15.0011138 113.927378 15.0011138 113.927378 18.8122076 125.198485 18.8122076 125.198485 23.920695 107.764758 23.920695 107.764758 1.21630653"></polygon>
                        <path d="M139.631989,0.729783916 C141.821341,0.729783916 144.09178,0.89195812 146.281132,1.21630653 L145.308086,6.24370684 C143.767431,6.00044553 142.226777,5.91935843 140.686122,6.00044553 C137.037202,6.00044553 133.46937,8.02762308 133.46937,12.9739363 C133.46937,17.4337269 137.037202,19.2176431 140.605035,19.2176431 C142.226777,19.2176431 143.848519,19.136556 145.470261,18.8122076 L146.443306,24.0017821 C144.253954,24.3261305 141.983515,24.4883047 139.794164,24.4883047 C133.550457,24.4883047 127.30675,21.0826465 127.30675,12.8928492 C127.225663,4.3787035 133.46937,0.729783916 139.631989,0.729783916 Z"></path>
                        <polygon points="170.931611 1.21630653 170.931611 24.0828692 164.768991 24.0828692 164.768991 15.3254622 156.254845 15.3254622 156.254845 24.0017821 150.335487 24.0017821 150.335487 1.21630653 156.254845 1.21630653 156.254845 9.97371352 164.768991 9.97371352 164.768991 1.21630653"></polygon>
                        <path d="M13.1361105,29.2724438 C15.7308978,29.2724438 18.6500334,29.434618 21.2448207,29.7589664 L20.4339497,35.1107151 C18.1635108,34.7863667 16.2985075,34.5431054 13.9469815,34.5431054 C10.2980619,34.5431054 6.73022945,36.0837603 6.73022945,40.7868122 C6.73022945,46.4629093 10.7845845,47.5170417 13.3793718,47.5170417 C13.8658944,47.5170417 14.4335041,47.5170417 14.9200267,47.3548675 L14.9200267,42.24638 L20.8393852,41.2733348 L20.8393852,52.2200936 C18.325685,52.544442 15.8119849,52.7066162 13.2171976,52.7066162 C6.73022945,52.7066162 0.567609713,49.0576966 0.567609713,40.7868122 C0.567609713,32.2726665 6.81131655,29.2724438 13.1361105,29.2724438 Z"></path>
                        <path d="M25.7046113,52.3011807 L25.7046113,29.434618 L35.2728893,29.434618 C39.8948541,29.434618 44.597906,31.05636 44.597906,37.1378926 C44.597906,40.9489864 42.7329027,42.976164 40.2192025,43.9492092 L46.4629093,52.2200936 L39.7326799,52.2200936 L34.2998441,44.8411673 L31.6239697,44.8411673 L31.6239697,52.3011807 L25.7046113,52.3011807 Z M31.6239697,39.9759412 L35.5972377,39.9759412 C37.3000668,39.9759412 38.5163734,39.002896 38.5163734,37.3000668 C38.5163734,35.5972377 37.3000668,34.6241925 35.5972377,34.6241925 L31.6239697,34.6241925 L31.6239697,39.9759412 Z"></path>
                        <path d="M98.2775674,29.434618 L98.2775674,43.5437737 C98.2775674,50.4361773 93.0879929,52.7066162 87.9795055,52.7066162 C82.9521051,52.7066162 77.7625306,50.3550902 77.7625306,43.5437737 L77.7625306,29.434618 L83.6818891,29.434618 L83.6818891,43.1383382 C83.6818891,46.219648 85.3036311,47.2737804 87.8984184,47.2737804 C90.4932056,47.2737804 92.1149476,46.219648 92.1149476,43.1383382 L92.1149476,29.434618 L98.2775674,29.434618 Z"></path>
                        <path d="M112.224549,29.434618 C117.900646,29.434618 122.198262,31.2996213 122.198262,37.2189797 C122.198262,43.1383382 117.900646,45.0033415 112.224549,45.0033415 L109.305413,45.0033415 L109.305413,52.2200936 L103.142793,52.2200936 L103.142793,29.434618 L112.224549,29.434618 Z M112.548897,34.5431054 L109.305413,34.5431054 L109.305413,39.8948541 L112.548897,39.8948541 C114.413901,39.8948541 116.035643,39.2461573 116.035643,37.2189797 C116.035643,35.1918022 114.413901,34.5431054 112.548897,34.5431054 Z"></path>
                    </g>
                </g>
            </g>
        </g>
    </g>
</svg>