<?xml version="1.0" encoding="UTF-8"?>
<svg width="204px" height="48px" viewBox="0 0 204 48" version="1.1" xmlns="http://www.w3.org/2000/svg" xmlns:xlink="http://www.w3.org/1999/xlink">
    <!-- Generator: sketchtool 50.2 (55047) - http://www.bohemiancoding.com/sketch -->
    <title>583B6C3B-E0CE-436B-AAA7-193AE2968ACA</title>
    <desc>Created with sketchtool.</desc>
    <defs>
        <rect id="path-1" x="0" y="0" width="208" height="108"></rect>
    </defs>
    <g id="responsive" stroke="none" stroke-width="1" fill="none" fill-rule="evenodd">
        <g id="Desktop-1024" transform="translate(-290.000000, -1004.000000)">
            <g id="pipedrive-logo" transform="translate(288.000000, 974.000000)">
                <mask id="mask-2" fill="white">
                    <use xlink:href="#path-1"></use>
                </mask>
                <use id="Mask" fill="#EEF0F2" opacity="0" xlink:href="#path-1"></use>
                <g mask="url(#mask-2)">
                    <g transform="translate(0.000000, 7.761194)">
                        <polygon id="Shape" points="0 0 208 0 208 93.1343284 0 93.1343284"></polygon>
                        <g id="Group" stroke-width="1" fill-rule="evenodd" transform="translate(2.153966, 23.109190)">
                            <path d="M10.125474,23.2192627 C10.125474,17.7302219 13.099566,15.775671 15.8817908,15.775671 C19.2961736,15.775671 21.5900648,18.7452019 21.5900648,23.1681792 C21.5900648,28.2126721 18.6719214,30.4661222 15.7857052,30.4661222 C11.8939352,30.4661222 10.125474,26.7054056 10.125474,23.2192627 Z M17.2528347,9.31786866 C13.193219,9.31786866 10.8430752,11.1590021 9.70950861,12.4297035 C9.57328602,11.3341455 8.85842147,9.91262623 6.0658583,9.91262623 L0,9.91262623 L0,16.3196492 L2.48606233,16.3196492 C2.90750098,16.3196492 3.04341951,16.4543514 3.04341951,16.8797429 L3.04341951,46.1362815 L10.272339,46.1362815 L10.272339,35.1557675 C10.272339,34.859605 10.2668658,34.5822947 10.25896,34.3347831 C11.3870534,35.3789536 13.545026,36.8220617 16.9141027,36.8220617 C23.9800416,36.8220617 28.9229757,31.1688241 28.9229757,23.0711814 C28.9229757,14.8446139 24.2308979,9.31786866 17.2528347,9.31786866 Z" id="Shape" fill="#29282B" fill-rule="nonzero"></path>
                            <path d="M38.6306599,29.3109668 L38.6306599,13.807741 C38.6306599,11.1884968 37.3797229,9.91262623 34.8164273,9.91262623 L28.3558883,9.91262623 L28.3558883,16.3193451 L30.8443832,16.3193451 C31.2633893,16.3193451 31.3993078,16.456784 31.3993078,16.8794389 L31.3993078,32.3288446 C31.3993078,34.9885299 32.6104118,36.2239594 35.2056347,36.2239594 L41.6740794,36.2239594 L41.6740794,29.8737972 L39.1855845,29.8737972 C38.7854306,29.8737972 38.6306599,29.7120329 38.6306599,29.3112709" id="Shape" fill="#29282B" fill-rule="nonzero"></path>
                            <path d="M56.0416101,30.4661222 C52.1604825,30.4661222 50.3838115,26.7054056 50.3838115,23.2192627 C50.3838115,17.7302219 53.3582075,15.775671 56.1428649,15.775671 C59.5572477,15.775671 61.8511389,18.7452019 61.8511389,23.1681792 C61.8511389,28.2126721 58.9357321,30.4661222 56.0416101,30.4661222 Z M57.5163413,9.31786866 C53.4515564,9.31786866 51.1065818,11.1590021 49.967846,12.4297035 C49.8343601,11.3341455 49.1222321,9.91262623 46.3293649,9.91262623 L40.261074,9.91262623 L40.261074,16.3196492 L42.7471364,16.3196492 C43.1658384,16.3196492 43.3017569,16.4543514 43.3017569,16.8797429 L43.3017569,46.1362815 L50.5361497,46.1362815 L50.5361497,35.1557675 C50.5361497,34.859605 50.5282439,34.5822947 50.5203381,34.3347831 C51.6432623,35.3789536 53.8091407,36.8220617 57.1754808,36.8220617 C64.2441563,36.8220617 69.1816172,31.1688241 69.1816172,23.0711814 C69.1816172,14.8446139 64.492276,9.31786866 57.5169495,9.31786866 L57.5163413,9.31786866 Z M77.3324717,19.2736726 C78.1166638,16.6921328 80.0769921,15.2274359 82.7874568,15.2274359 C84.9639777,15.2274359 86.6390899,16.8992033 86.9349483,19.2736726 L77.3324717,19.2736726 Z M82.7874568,9.31847679 C74.9984435,9.31847679 69.5513642,14.974451 69.5513642,23.0720937 C69.5513642,31.0377706 75.427788,36.8226698 83.5263428,36.8226698 C89.8959653,36.8226698 93.7877353,33.016343 93.9528444,32.8545787 L94.2438378,32.5641934 L91.0936903,27.290433 L90.6266414,27.7374134 C90.5947142,27.7617389 87.7379927,30.4183835 83.963593,30.4183835 C80.3412275,30.4183835 77.689752,28.1868263 77.0630672,24.6873044 L94.2064374,24.6873044 L94.2465744,24.2080928 C94.2599534,24.1433262 94.4010411,22.5904495 94.4010411,21.8308869 C94.4010411,14.3471582 89.7332888,9.31847679 82.7871528,9.31847679 L82.7874568,9.31847679 Z M107.802851,30.4661222 C104.364447,30.4661222 102.139883,27.5613579 102.139883,23.0711814 C102.139883,18.7047608 104.455363,15.7759751 107.901673,15.7759751 C111.809255,15.7759751 113.561904,19.4126318 113.561904,23.0228346 C113.561904,28.5143079 110.585076,30.4664263 107.802851,30.4664263 L107.802851,30.4661222 Z M120.694434,29.3112709 L120.694434,3.90150022 C120.694434,1.28225598 119.427382,0.00638543407 116.829422,0.00638543407 L110.368883,0.00638543407 L110.368883,6.4158409 L112.857682,6.4158409 C113.276384,6.4158409 113.412303,6.55054316 113.412303,6.97563062 L113.412303,11.5682781 C112.345631,10.5964758 110.262155,9.31786866 106.674454,9.31786866 C99.659294,9.31786866 94.7644027,14.9735388 94.7644027,23.0711814 C94.7644027,31.2980531 99.4537438,36.8220617 106.431807,36.8220617 C110.419663,36.8220617 112.719027,34.9538661 113.841951,33.6506294 C113.988512,34.7869326 114.716756,36.2242634 117.421443,36.2242634 L123.684642,36.2242634 L123.684642,29.8737972 L121.249055,29.8737972 C120.849205,29.8737972 120.694434,29.712641 120.694434,29.3112709 Z M139.771679,9.56507617 C136.762923,9.56507617 133.994077,11.3177258 132.350892,14.1093768 L132.350892,13.5088419 C132.350892,11.1237302 131.046439,9.91232216 128.48588,9.91232216 L122.270724,9.91232216 L122.270724,16.3193451 L124.756787,16.3193451 C125.175489,16.3193451 125.314144,16.4540473 125.314144,16.8794389 L125.314144,36.2242634 L132.543367,36.2242634 L132.543367,25.6955949 C132.543367,24.3090435 132.719423,22.9741837 133.060587,21.7384501 C134.149152,18.1069626 137.040537,16.8146723 139.379735,16.8146723 C140.209537,16.8146723 140.8122,16.9034603 140.822843,16.9061969 L141.42581,16.9977214 L141.42581,9.74569274 L140.985519,9.6702838 C140.964234,9.66481057 140.350929,9.56507617 139.771983,9.56507617 L139.771679,9.56507617 Z M151.715177,29.3109668 L151.715177,13.807741 C151.715177,11.1884968 150.469713,9.91262623 147.906114,9.91262623 L142.061921,9.91262623 L142.061921,16.3193451 L143.9289,16.3193451 C144.350643,16.3193451 144.483825,16.456784 144.483825,16.8794389 L144.483825,32.3288446 C144.483825,34.9885299 145.697666,36.2239594 148.298362,36.2239594 L154.761637,36.2239594 L154.761637,29.8737972 L152.270102,29.8737972 C151.869948,29.8737972 151.715177,29.7120329 151.715177,29.3112709 L151.715177,29.3109668 Z" id="Shape" fill="#29282B" fill-rule="nonzero"></path>
                            <path d="M179.007434,9.9129303 L175.150328,9.9129303 C172.89627,9.9129303 171.687903,10.7016834 170.973038,12.6373822 L166.25998,25.9221257 C166.096999,26.4147164 165.944965,26.9669044 165.814215,27.4971995 C165.678297,26.9669044 165.51562,26.4068106 165.336828,25.91422 L160.623466,12.6346456 C159.900695,10.677662 158.732161,9.91323437 156.448912,9.91323437 L152.346423,9.91323437 L152.346423,16.3199532 L153.410662,16.3199532 C153.976229,16.3199532 154.157758,16.5136447 154.290939,16.8691006 L161.58645,36.2245675 L169.716628,36.2245675 L177.012138,16.8691006 C177.14532,16.5136447 177.332322,16.3199532 177.897585,16.3199532 L179.007434,16.3199532 L179.007434,9.91323437 L179.007434,9.9129303 Z M186.001613,19.2736726 C186.794015,16.6921328 188.746742,15.2274359 191.454166,15.2274359 C193.63616,15.2274359 195.308535,16.8992033 195.604698,19.2736726 L186.001613,19.2736726 Z M191.454166,9.31847679 C183.667889,9.31847679 178.223546,14.974451 178.223546,23.0720937 C178.223546,31.0377706 184.094497,36.8226698 192.193052,36.8226698 C198.565411,36.8226698 202.459918,33.016343 202.622594,32.8545787 L202.91602,32.5641934 L199.773778,27.290433 L199.29335,27.7374134 C199.269633,27.7617389 196.396796,30.4183835 192.635775,30.4183835 C189.010673,30.4183835 186.359198,28.1868263 185.732513,24.6873044 L202.881356,24.6873044 L202.921189,24.2080928 C202.929399,24.1433262 203.076264,22.5904495 203.076264,21.8308869 C203.076264,14.3471582 198.405471,9.31847679 191.454166,9.31847679 Z M38.1362448,0.00790577552 L31.6915174,0.00790577552 L31.6915174,6.85917247 L38.1362448,6.85917247 L38.1362448,0.00790577552 Z M151.224107,0.00790577552 L144.776947,0.00790577552 L144.776947,6.85917247 L151.224107,6.85917247 L151.224107,0.00790577552 Z" id="Shape" fill="#29282B" fill-rule="nonzero"></path>
                        </g>
                    </g>
                </g>
            </g>
        </g>
    </g>
</svg>