<?xml version="1.0" encoding="utf-8"?>
<!-- Generator: Adobe Illustrator 22.1.0, SVG Export Plug-In . SVG Version: 6.00 Build 0)  -->
<svg version="1.1" id="Layer_1" xmlns="http://www.w3.org/2000/svg" xmlns:xlink="http://www.w3.org/1999/xlink" x="0px" y="0px"
	 viewBox="0 0 140 44" style="enable-background:new 0 0 140 40;" xml:space="preserve">
<style type="text/css">
	.st0{fill:#FFFFFF;}
	.st1{fill:#FF3C91;}
	.st2{fill:#9BC7FB;}
	.st3{fill:#AE8FFF;}
</style>
<filter id="dropshadow" height="160%" width="150%">
  <feGaussianBlur in="SourceAlpha" stdDeviation="2"/> <!-- stdDeviation is how much to blur -->
  <feOffset dx="1" dy="1" result="offsetblur"/> <!-- how much to offset -->
  <feComponentTransfer>
    <feFuncA type="linear" slope="0.5"/> <!-- slope is the opacity of the shadow -->
  </feComponentTransfer>
  <feMerge> 
    <feMergeNode/> <!-- this contains the offset blurred image -->
    <feMergeNode in="SourceGraphic"/> <!-- this contains the element that the filter is applied to -->
  </feMerge>
</filter>

	<g>
		<path style="fill: #29282b;" class="st0" d="M48.7,17.2c-0.3-0.4-0.7-0.8-1.2-1.1c-0.5-0.3-1.1-0.4-1.7-0.4c-0.3,0-0.6,0-0.8,0.1
			c-0.3,0.1-0.5,0.2-0.7,0.3c-0.2,0.1-0.4,0.3-0.5,0.5c-0.1,0.2-0.2,0.4-0.2,0.7c0,0.5,0.2,0.9,0.7,1.1c0.5,0.2,1.2,0.5,2.1,0.7
			c0.6,0.1,1.1,0.3,1.6,0.5c0.5,0.2,0.9,0.4,1.3,0.7c0.4,0.3,0.7,0.6,0.9,1c0.2,0.4,0.3,0.9,0.3,1.4c0,0.7-0.1,1.3-0.4,1.8
			c-0.3,0.5-0.6,0.9-1.1,1.2c-0.5,0.3-1,0.5-1.6,0.7c-0.6,0.1-1.2,0.2-1.8,0.2c-0.9,0-1.8-0.2-2.7-0.5c-0.9-0.4-1.6-0.9-2.2-1.7
			l1.7-1.5c0.3,0.5,0.8,0.9,1.4,1.2c0.6,0.3,1.2,0.5,1.9,0.5c0.3,0,0.6,0,0.9-0.1c0.3-0.1,0.5-0.2,0.8-0.3
			c0.2-0.1,0.4-0.3,0.6-0.5c0.1-0.2,0.2-0.5,0.2-0.9c0-0.6-0.3-1-0.8-1.3c-0.5-0.3-1.3-0.5-2.4-0.8c-0.4-0.1-0.8-0.2-1.3-0.4
			c-0.4-0.1-0.8-0.3-1.1-0.6c-0.3-0.3-0.6-0.6-0.8-1c-0.2-0.4-0.3-0.9-0.3-1.4c0-0.7,0.1-1.2,0.4-1.7c0.3-0.5,0.6-0.9,1-1.2
			c0.4-0.3,0.9-0.5,1.5-0.7c0.6-0.1,1.1-0.2,1.7-0.2c0.9,0,1.7,0.2,2.5,0.5c0.8,0.3,1.4,0.8,1.9,1.5L48.7,17.2z"/>
		<path style="fill: #29282b;" class="st0" d="M65,20.2c0,0.1,0,0.3,0,0.4c0,0.1,0,0.3,0,0.4h-9.7c0,0.5,0.1,1,0.3,1.4c0.2,0.5,0.5,0.8,0.9,1.2
			c0.4,0.3,0.8,0.6,1.3,0.8c0.5,0.2,1,0.3,1.5,0.3c0.8,0,1.5-0.2,2.1-0.5c0.6-0.4,1.1-0.8,1.4-1.3l1.7,1.4
			c-0.7,0.9-1.4,1.5-2.3,1.9c-0.9,0.4-1.9,0.6-3,0.6c-0.9,0-1.8-0.2-2.6-0.5c-0.8-0.3-1.5-0.7-2-1.3c-0.6-0.6-1-1.2-1.3-2
			c-0.3-0.8-0.5-1.7-0.5-2.6c0-0.9,0.2-1.8,0.5-2.6s0.8-1.5,1.3-2.1c0.6-0.6,1.2-1,2-1.3c0.8-0.3,1.6-0.5,2.5-0.5
			c0.9,0,1.7,0.1,2.4,0.4c0.7,0.3,1.4,0.7,1.9,1.3c0.5,0.6,0.9,1.2,1.2,2C64.8,18.3,65,19.2,65,20.2z M62.5,19.2
			c0-0.5-0.1-0.9-0.2-1.4c-0.1-0.4-0.4-0.8-0.6-1.1c-0.3-0.3-0.6-0.6-1.1-0.7c-0.4-0.2-0.9-0.3-1.5-0.3c-0.5,0-1,0.1-1.5,0.3
			c-0.5,0.2-0.9,0.4-1.2,0.7c-0.3,0.3-0.6,0.7-0.8,1.1c-0.2,0.4-0.3,0.9-0.4,1.4H62.5z"/>
		<path style="fill: #29282b;" class="st0" d="M70.8,26.4h-2.4V6.9h2.4V26.4z"/>
		<path style="fill: #29282b;" class="st0" d="M86.5,20.2c0,0.1,0,0.3,0,0.4c0,0.1,0,0.3,0,0.4h-9.7c0,0.5,0.1,1,0.3,1.4c0.2,0.5,0.5,0.8,0.9,1.2
			c0.4,0.3,0.8,0.6,1.3,0.8c0.5,0.2,1,0.3,1.5,0.3c0.8,0,1.5-0.2,2.1-0.5c0.6-0.4,1.1-0.8,1.4-1.3l1.7,1.4
			c-0.7,0.9-1.4,1.5-2.3,1.9c-0.9,0.4-1.9,0.6-3,0.6c-0.9,0-1.8-0.2-2.6-0.5c-0.8-0.3-1.5-0.7-2-1.3c-0.6-0.6-1-1.2-1.3-2
			c-0.3-0.8-0.5-1.7-0.5-2.6c0-0.9,0.2-1.8,0.5-2.6c0.3-0.8,0.8-1.5,1.3-2.1c0.6-0.6,1.2-1,2-1.3c0.8-0.3,1.6-0.5,2.5-0.5
			c0.9,0,1.7,0.1,2.4,0.4c0.7,0.3,1.4,0.7,1.9,1.3c0.5,0.6,0.9,1.2,1.2,2C86.3,18.3,86.5,19.2,86.5,20.2z M84,19.2
			c0-0.5-0.1-0.9-0.2-1.4c-0.1-0.4-0.4-0.8-0.6-1.1c-0.3-0.3-0.6-0.6-1.1-0.7c-0.4-0.2-0.9-0.3-1.5-0.3c-0.5,0-1,0.1-1.5,0.3
			c-0.5,0.2-0.9,0.4-1.2,0.7c-0.3,0.3-0.6,0.7-0.8,1.1c-0.2,0.4-0.3,0.9-0.4,1.4H84z"/>
		<path style="fill: #29282b;" class="st0" d="M92,14.1c0,0.3,0.1,0.7,0.1,1c0,0.4,0,0.7,0,1h0.1c0.2-0.3,0.4-0.6,0.6-0.9c0.3-0.3,0.6-0.5,0.9-0.7
			c0.3-0.2,0.7-0.4,1.1-0.5c0.4-0.1,0.8-0.2,1.3-0.2c0.8,0,1.5,0.1,2,0.4c0.6,0.3,1,0.6,1.4,1.1c0.4,0.4,0.7,1,0.8,1.6
			c0.2,0.6,0.3,1.2,0.3,1.9v7.6h-2.4v-6.8c0-0.5,0-1-0.1-1.4c-0.1-0.4-0.2-0.8-0.4-1.2c-0.2-0.3-0.5-0.6-0.9-0.8
			c-0.4-0.2-0.8-0.3-1.4-0.3c-1,0-1.8,0.4-2.4,1.1c-0.6,0.7-0.9,1.7-0.9,2.9v6.5h-2.4v-9.6c0-0.3,0-0.7,0-1.3c0-0.5,0-1-0.1-1.4
			H92z"/>
		<path style="fill: #29282b;" class="st0" d="M107.7,9.7c0,0.4-0.2,0.8-0.5,1.1c-0.3,0.3-0.7,0.4-1.1,0.4c-0.4,0-0.8-0.2-1.1-0.5
			c-0.3-0.3-0.5-0.7-0.5-1.1c0-0.4,0.2-0.8,0.5-1.1c0.3-0.3,0.7-0.5,1.1-0.5c0.4,0,0.8,0.2,1.1,0.5C107.5,8.9,107.7,9.3,107.7,9.7
			z M107.3,26.4h-2.4V14.1h2.4V26.4z"/>
		<path style="fill: #29282b;" class="st0" d="M121.3,24.4c-0.5,0.7-1.1,1.3-1.9,1.7c-0.8,0.4-1.6,0.6-2.5,0.6c-0.9,0-1.8-0.2-2.6-0.5
			c-0.8-0.3-1.4-0.8-1.9-1.4c-0.5-0.6-0.9-1.3-1.2-2.1c-0.3-0.8-0.4-1.6-0.4-2.5c0-0.9,0.1-1.7,0.4-2.5c0.3-0.8,0.7-1.5,1.3-2.1
			c0.5-0.6,1.2-1,1.9-1.4c0.8-0.3,1.6-0.5,2.5-0.5c1,0,1.9,0.2,2.6,0.6c0.7,0.4,1.3,0.9,1.8,1.5h0.1V6.9h2.4v19.5h-2.3L121.3,24.4
			L121.3,24.4z M113.2,20.2c0,0.6,0.1,1.1,0.3,1.6c0.2,0.5,0.4,1,0.8,1.4c0.3,0.4,0.8,0.7,1.3,1c0.5,0.2,1.1,0.4,1.8,0.4
			c0.6,0,1.2-0.1,1.7-0.4c0.5-0.2,0.9-0.6,1.3-1s0.6-0.9,0.8-1.4c0.2-0.5,0.3-1.1,0.3-1.7c0-0.6-0.1-1.1-0.3-1.7
			c-0.2-0.5-0.5-1-0.8-1.4s-0.8-0.7-1.3-1c-0.5-0.2-1.1-0.4-1.7-0.4c-0.7,0-1.3,0.1-1.8,0.4c-0.5,0.2-0.9,0.6-1.3,1
			c-0.3,0.4-0.6,0.9-0.8,1.4C113.3,19.1,113.2,19.7,113.2,20.2z"/>
		<path style="fill: #29282b;" class="st0" d="M139.3,20.2c0,0.1,0,0.3,0,0.4c0,0.1,0,0.3,0,0.4h-9.7c0,0.5,0.1,1,0.3,1.4c0.2,0.5,0.5,0.8,0.9,1.2
			c0.4,0.3,0.8,0.6,1.3,0.8c0.5,0.2,1,0.3,1.5,0.3c0.8,0,1.5-0.2,2.1-0.5c0.6-0.4,1.1-0.8,1.4-1.3l1.7,1.4
			c-0.7,0.9-1.4,1.5-2.3,1.9c-0.9,0.4-1.9,0.6-3,0.6c-0.9,0-1.8-0.2-2.6-0.5c-0.8-0.3-1.5-0.7-2-1.3c-0.6-0.6-1-1.2-1.3-2
			c-0.3-0.8-0.5-1.7-0.5-2.6c0-0.9,0.2-1.8,0.5-2.6c0.3-0.8,0.8-1.5,1.3-2.1c0.6-0.6,1.2-1,2-1.3c0.8-0.3,1.6-0.5,2.5-0.5
			c0.9,0,1.7,0.1,2.4,0.4c0.7,0.3,1.4,0.7,1.9,1.3c0.5,0.6,0.9,1.2,1.2,2C139.2,18.3,139.3,19.2,139.3,20.2z M136.9,19.2
			c0-0.5-0.1-0.9-0.2-1.4c-0.1-0.4-0.4-0.8-0.6-1.1c-0.3-0.3-0.6-0.6-1.1-0.7c-0.4-0.2-0.9-0.3-1.5-0.3c-0.5,0-1,0.1-1.5,0.3
			c-0.5,0.2-0.9,0.4-1.2,0.7c-0.3,0.3-0.6,0.7-0.8,1.1c-0.2,0.4-0.3,0.9-0.4,1.4H136.9z"/>
	</g>

	<g style="filter:url(#dropshadow)">
		<path class="st0" d="M35.2,26.9c-0.5-2.2-2.7-3.6-5-3.1c0,0,0,0,0,0c-0.4,0.1-0.8,0.6-0.9,0.9c-0.4,1.2-0.4,2.3-0.1,3.6
			c0.3,1.3,0.8,2.3,1.7,3.2c0.3,0.3,0.9,0.5,1.3,0.4c0,0,0,0,0,0C34.4,31.4,35.8,29.1,35.2,26.9z"/>
		<circle class="st1" cx="25.7" cy="30" r="7.6"/>
		<path class="st0" d="M29.7,39.6c2.4-1,3.5-3.8,2.5-6.2c0,0,0,0,0,0c-0.2-0.4-0.8-0.8-1.2-0.9c-1.4-0.3-2.6,0-4,0.6
			c-1.4,0.6-2.4,1.3-3.2,2.5c-0.2,0.4-0.4,1.1-0.2,1.5c0,0,0,0,0,0C24.6,39.5,27.4,40.6,29.7,39.6z"/>
		<path class="st0" d="M5.8,34.1c1.7,0.9,3.8,0.3,4.7-1.4c0,0,0,0,0,0c0.2-0.3,0.1-0.8-0.1-1.1c-0.5-0.9-1.2-1.5-2.2-2
			s-1.9-0.8-2.9-0.7c-0.3,0-0.8,0.3-1,0.6c0,0,0,0,0,0C3.5,31.2,4.1,33.2,5.8,34.1z"/>
		<circle class="st2" cx="9.1" cy="26.4" r="6.3"/>
		<path class="st0" d="M0.8,23.8c-0.7,2.1,0.5,4.3,2.5,4.9c0,0,0,0,0,0c0.3,0.1,0.9-0.1,1.2-0.3c0.9-0.7,1.4-1.6,1.8-2.8
			s0.5-2.2,0.2-3.4c-0.1-0.4-0.5-0.8-0.8-1c0,0,0,0,0,0C3.7,20.6,1.5,21.7,0.8,23.8z"/>
		<path class="st0" d="M14.5,0.5c-2.6,1-4,4-2.9,6.6c0,0,0,0,0,0c0.2,0.4,0.8,0.9,1.3,1c1.5,0.3,2.8,0.1,4.4-0.5s2.7-1.3,3.6-2.6
			c0.3-0.4,0.5-1.2,0.3-1.6c0,0,0,0,0,0C20.1,0.8,17.1-0.5,14.5,0.5z"/>
		<circle class="st3" cx="19.9" cy="11.6" r="9.4"/>
		<path class="st0" d="M30.9,5c-1.7-2.7-5.2-3.6-8-2c0,0,0,0,0,0c-0.5,0.3-0.8,1.1-0.9,1.7c-0.1,1.7,0.4,3.2,1.4,4.8
			c1,1.6,2,2.7,3.6,3.5c0.5,0.2,1.4,0.3,1.9,0c0,0,0,0,0,0C31.7,11.3,32.6,7.8,30.9,5z"/>
	</g>
</svg>
