<?xml version="1.0" encoding="UTF-8"?>
<svg width="180px" height="95px" viewBox="0 0 180 95" version="1.1" xmlns="http://www.w3.org/2000/svg" xmlns:xlink="http://www.w3.org/1999/xlink">
    <!-- Generator: sketchtool 51.2 (57519) - http://www.bohemiancoding.com/sketch -->
    <title>D00A5D21-3B73-4B95-9908-3C42CE36BFD1</title>
    <desc>Created with sketchtool.</desc>
    <defs>
        <rect id="path-1" x="0" y="0" width="268" height="140"></rect>
    </defs>
    <g id="responsive" stroke="none" stroke-width="1" fill="none" fill-rule="evenodd">
        <g id="Desktop-HD-1440" transform="translate(-780.000000, -996.000000)">
            <g id="Alfa-Bank-Copy" transform="translate(736.000000, 974.000000)">
                <mask id="mask-2" fill="white">
                    <use xlink:href="#path-1"></use>
                </mask>
                <use id="Mask" fill="#EEF0F2" opacity="0" xlink:href="#path-1"></use>
                <path d="M94.780923,84.6683303 L102.519482,84.6683303 L102.519482,116.589884 L94.780923,116.589884 L94.780923,84.6683303 Z M166.158887,107.482677 L166.158887,115.877217 C165.411428,116.097205 162.666578,116.999655 158.966781,116.999655 C149.347308,116.999655 142.297694,110.150031 142.297694,100.810542 C142.297694,90.7335947 150.089767,84.6139301 158.966781,84.6139301 C162.471589,84.6139301 165.168941,85.4488844 166.158887,85.7263691 L166.158887,94.1209091 C165.811406,93.9334194 163.229047,92.4610001 159.519251,92.4610001 C154.264539,92.4610001 150.877224,96.1632972 150.877224,100.810542 C150.877224,105.60028 154.41703,109.152585 159.519251,109.152585 C163.294044,109.152585 165.836404,107.647668 166.158887,107.482677 Z M83.7804014,107.482677 L83.7804014,115.877217 C83.037942,116.097205 80.2980922,116.999655 76.5832958,116.999655 C66.9788222,116.999655 59.9292085,110.150031 59.9292085,100.810542 C59.9292085,90.7335947 67.711282,84.6139301 76.5832958,84.6139301 C80.1081026,84.6139301 82.8004551,85.4488844 83.7804014,85.7263691 L83.7804014,94.1209091 C83.44042,93.9334194 80.8605614,92.4610001 77.1507647,92.4610001 C71.8910529,92.4610001 68.5012387,96.1632972 68.5012387,100.810542 C68.5012387,105.60028 72.0385449,109.152585 77.1507647,109.152585 C80.9255578,109.152585 83.4629188,107.647668 83.7804014,107.482677 Z M207.51312,100.810292 C207.51312,109.742303 200.605999,116.999405 190.986526,116.999405 C181.367053,116.999405 174.469931,109.742303 174.469931,100.810292 C174.469931,91.8632828 181.367053,84.6136801 190.986526,84.6136801 C200.605999,84.6136801 207.51312,91.8632828 207.51312,100.810292 Z M190.986526,109.034842 C195.66377,109.034842 199.151079,105.350044 199.151079,100.810292 C199.151079,96.2605418 195.66377,92.5782436 190.986526,92.5782436 C186.304283,92.5782436 182.826973,96.2605418 182.826973,100.810292 C182.826973,105.350044 186.304283,109.034842 190.986526,109.034842 Z M132.452234,92.2880095 C132.33474,92.2505116 129.012422,91.3330619 126.282572,91.3330619 C123.120245,91.3330619 121.40034,92.3930038 121.40034,93.8954214 C121.40034,95.800317 123.720212,96.4652806 125.017641,96.8752581 L127.195022,97.5677202 C132.317241,99.1976309 134.652113,102.704939 134.652113,106.51473 C134.652113,114.371799 127.742492,117.011655 121.702823,117.011655 C117.505553,117.011655 113.573269,116.239197 113.18579,116.156701 L113.18579,108.959596 C113.880752,109.134586 117.19057,110.122032 120.637881,110.122032 C124.565166,110.122032 126.370067,108.974595 126.370067,107.202192 C126.370067,105.617279 124.807653,104.702329 122.85026,104.087363 C122.372786,103.927372 121.655326,103.702384 121.165352,103.542393 C116.770593,102.152469 113.105794,99.5701104 113.105794,94.3928942 C113.105794,88.5432148 117.485554,84.61593 124.760155,84.61593 C128.602445,84.61593 132.217247,85.5483789 132.452234,85.6108755 L132.452234,92.2880095 Z M51.8370705,59.9037311 C51.8370705,62.0586131 50.0771669,63.8060173 47.9197852,63.8060173 C45.7624034,63.8060173 44,62.0586131 44,59.9037311 L44,51.6941811 C44,49.5267998 45.7624034,47.7768958 47.9197852,47.7768958 C50.0771669,47.7768958 51.8370705,49.5267998 51.8370705,51.6941811 L51.8370705,59.9037311 Z M73.1181066,60.0376226 C73.1181066,62.1925045 71.358203,63.9449085 69.2008213,63.9449085 C67.0409396,63.9449085 65.2810361,62.1925045 65.2810361,60.0376226 L65.2810361,41.0511632 C65.2810361,38.8837819 67.0409396,37.1363777 69.2008213,37.1363777 C71.358203,37.1363777 73.1181066,38.8837819 73.1181066,41.0511632 L73.1181066,60.0376226 Z M94.6050581,67.6200868 C94.6050581,69.7749687 92.8451546,71.5248728 90.6877728,71.5248728 C88.5278912,71.5248728 86.7679876,69.7749687 86.7679876,67.6200868 L86.7679876,26.0898629 C86.7679876,23.9224816 88.5278912,22.1725775 90.6877728,22.1725775 C92.8451546,22.1725775 94.6050581,23.9224816 94.6050581,26.0898629 L94.6050581,67.6200868 Z M116.405669,60.0376226 C116.405669,62.1925045 114.645765,63.9449085 112.488383,63.9449085 C110.328502,63.9449085 108.568598,62.1925045 108.568598,60.0376226 L108.568598,41.0511632 C108.568598,38.8837819 110.328502,37.1363777 112.488383,37.1363777 C114.645765,37.1363777 116.405669,38.8837819 116.405669,41.0511632 L116.405669,60.0376226 Z M137.661706,59.9037311 C137.661706,62.0586131 135.914302,63.8060173 133.76692,63.8060173 C131.609538,63.8060173 129.849634,62.0586131 129.849634,59.9037311 L129.849634,51.6941811 C129.849634,49.5267998 131.609538,47.7768958 133.76692,47.7768958 C135.914302,47.7768958 137.661706,49.5267998 137.661706,51.6941811 L137.661706,59.9037311 Z M159.426402,60.0376226 C159.426402,62.1925045 157.678998,63.9449085 155.521616,63.9449085 C153.366734,63.9449085 151.61433,62.1925045 151.61433,60.0376226 L151.61433,41.0511632 C151.61433,38.8837819 153.366734,37.1363777 155.521616,37.1363777 C157.678998,37.1363777 159.426402,38.8837819 159.426402,41.0511632 L159.426402,60.0376226 Z M180.93592,67.6200868 C180.93592,69.7749687 179.188516,71.5248728 177.031134,71.5248728 C174.871252,71.5248728 173.123848,69.7749687 173.123848,67.6200868 L173.123848,26.0898629 C173.123848,23.9224816 174.871252,22.1725775 177.031134,22.1725775 C179.188516,22.1725775 180.93592,23.9224816 180.93592,26.0898629 L180.93592,67.6200868 Z M202.519632,60.0376226 C202.519632,62.1925045 200.772227,63.9449085 198.564848,63.9449085 C196.407467,63.9449085 194.660062,62.1925045 194.660062,60.0376226 L194.660062,41.0511632 C194.660062,38.8837819 196.407467,37.1363777 198.564848,37.1363777 C200.772227,37.1363777 202.519632,38.8837819 202.519632,41.0511632 L202.519632,60.0376226 Z M224,59.9037311 C224,62.0586131 222.247596,63.8060173 220.092714,63.8060173 C217.935332,63.8060173 216.182928,62.0586131 216.182928,59.9037311 L216.182928,51.6941811 C216.182928,49.5267998 217.935332,47.7768958 220.092714,47.7768958 C222.247596,47.7768958 224,49.5267998 224,51.6941811 L224,59.9037311 Z" id="Combined-Shape" fill="#29282B" fill-rule="nonzero" mask="url(#mask-2)"></path>
            </g>
        </g>
    </g>
</svg>