<?xml version="1.0" encoding="UTF-8"?>
<svg width="256px" height="43px" viewBox="0 0 256 43" version="1.1" xmlns="http://www.w3.org/2000/svg" xmlns:xlink="http://www.w3.org/1999/xlink">
    <!-- Generator: sketchtool 51.2 (57519) - http://www.bohemiancoding.com/sketch -->
    <title>326FE3CB-D32F-4F34-811A-E4D07933F80D</title>
    <desc>Created with sketchtool.</desc>
    <defs>
        <rect id="path-1" x="0" y="0" width="268" height="140"></rect>
    </defs>
    <g id="responsive" stroke="none" stroke-width="1" fill="none" fill-rule="evenodd">
        <g id="Desktop-HD-1440" transform="translate(-442.000000, -1022.000000)">
            <g id="UBS_Logo_SVG" transform="translate(436.000000, 974.000000)">
                <g id="Group-7" transform="translate(0.000000, 47.000000)">
                    <g id="Deutsche_Post_AG"></g>
                    <path d="M233.199743,35.3330267 C214.421894,35.3163247 207.159794,18.9897963 208.135967,6.6016653 L213.653004,4.85690012 C212.754077,11.8887512 214.926235,16.9682547 216.441646,19.2969943 C214.651249,9.337815 222.158213,1.26924536 231.573383,1.26924536 C240.038626,1.25463108 247.039459,7.4534686 247.008739,16.3153845 C248.253636,12.9332243 249.106633,7.76961409 249.282302,4.17301182 L262,7.34072993 C260.986843,22.2538493 249.790223,35.3330267 233.199743,35.3330267 Z M231.594857,6.46327708 C225.985362,6.46327708 221.43585,11.0190528 221.43585,16.6300387 C221.43585,22.2398316 225.985661,26.7953091 231.594857,26.7953091 C237.220159,26.7953091 241.769075,22.2395333 241.769075,16.6300387 C241.769075,11.0190528 237.220159,6.46327708 231.594857,6.46327708 Z M251.466092,43.9533597 L244.243361,36.6396619 L251.395108,36.6396619 L258.626787,43.9533597 L251.466092,43.9533597 Z M241.806654,43.9533597 L234.566028,36.6396619 L241.738355,36.6396619 L248.967946,43.9533597 L241.806654,43.9533597 Z M225.676673,43.9533597 L218.50703,43.9533597 L225.738411,36.6396619 L232.906861,36.6396619 L225.676673,43.9533597 Z M208.841628,43.9533597 L216.080763,36.6396619 L223.239967,36.6396619 L216.010376,43.9533597 L208.841628,43.9533597 Z M193.495449,36.8702095 C190.260624,36.8702095 188.480069,34.8775982 188.480069,31.7429859 L188.480069,23.6529422 L185.429265,23.6529422 L185.429265,20.6394196 L188.480069,20.6394196 L188.480069,17.466333 L192.61382,16.1441887 L192.61382,20.6391214 L196.270371,20.6391214 L196.270371,23.652644 L192.61382,23.652644 L192.61382,31.0611854 C192.61382,32.4122599 192.975002,33.6643154 194.550361,33.6643154 C195.287934,33.6643154 196.00284,33.5113129 196.432023,33.249449 L196.547147,36.499186 C195.687888,36.7544884 194.735276,36.8702095 193.495449,36.8702095 Z M177.376205,36.8702095 C175.801144,36.8702095 174.201627,36.5838891 172.696953,36.1913915 L172.933466,32.8110208 C174.232645,33.4656806 175.584614,33.8486342 176.998023,33.8486342 C178.058602,33.8486342 179.712997,33.4656806 179.712997,31.9126904 C179.712997,28.8010434 172.536793,30.9302534 172.536793,25.1969849 C172.536793,21.7712801 175.524666,20.2633258 178.768438,20.2633258 C180.704083,20.2633258 181.963297,20.5797695 183.255318,20.8562477 L182.984208,23.969386 C181.717538,23.5303613 180.79505,23.2831117 179.290376,23.2831117 C178.184463,23.2831117 176.853073,23.692013 176.853073,25.0588949 C176.853073,27.571655 184.03047,25.9560323 184.03047,31.6901956 C184.030172,35.4111683 180.742259,36.8702095 177.376205,36.8702095 Z M162.49977,36.8702095 C157.259808,36.8702095 154.208407,33.249449 154.208407,28.6772695 C154.208407,23.4361142 157.81336,20.2633258 162.49977,20.2633258 C167.216601,20.2633258 170.821256,23.4361142 170.821256,28.6772695 C170.821256,33.2497472 167.769855,36.8702095 162.49977,36.8702095 Z M145.95015,28.3408429 L144.125454,28.3408429 L144.125454,36.4994842 L139.815735,36.4994842 L139.815735,15.0015912 L145.27163,15.0015912 C149.952671,15.0015912 154.237636,16.3532623 154.237636,21.4948019 C154.237636,26.5092869 150.567962,28.3408429 145.95015,28.3408429 Z M124.349361,33.8489324 C126.344955,33.8489324 128.075404,33.1110608 129.612885,32.2506082 L129.612885,35.6074171 C128.106422,36.4481851 126.392675,36.8705078 124.156393,36.8705078 C118.923887,36.8705078 115.872785,33.8489324 115.872785,28.6465497 C115.872785,24.0600541 118.309193,20.263624 123.24315,20.263624 C129.128824,20.263624 130.787992,24.3055142 130.787992,29.8607273 L119.822217,29.8607273 C120.008325,32.4125582 121.789179,33.8489324 124.349361,33.8489324 Z M113.877191,36.4994842 L109.748808,36.4994842 L109.748808,28.0172412 C109.748808,26.0815957 109.71779,23.4671322 107.06694,23.4671322 C104.079663,23.4671322 103.431863,26.7037462 103.431863,28.737516 L103.431863,36.4994842 L99.3076558,36.4994842 L99.3076558,13.3928282 L103.431863,13.3928282 L103.431863,22.7826474 L103.493601,22.7826474 C104.538074,21.2475523 106.328173,20.2633258 108.480647,20.2633258 C112.246059,20.2633258 113.877191,22.9225269 113.877191,26.4961639 L113.877191,36.4994842 Z M93.0294837,36.8702095 C87.8184517,36.8702095 85.2060759,33.3189413 85.2060759,28.4953367 C85.2060759,23.9049639 87.9204533,20.2633258 92.883341,20.2633258 C94.5341573,20.2633258 95.7417734,20.4562938 96.8861604,20.7798956 L96.5091718,24.0597559 C95.7727914,23.7218381 94.9722872,23.4671322 93.7130737,23.4671322 C91.1445408,23.4671322 89.5175845,25.5044811 89.5175845,28.4953367 C89.5175845,31.4137174 90.9077299,33.6643154 93.8037419,33.6643154 C94.9722872,33.6643154 96.2693784,33.249449 96.9789163,32.9198822 L97.1551823,36.3366395 C95.9562154,36.7082595 94.7193708,36.8702095 93.0294837,36.8702095 Z M76.9770475,36.8702095 C75.4010921,36.8702095 73.8036627,36.5838891 72.2974978,36.1913915 L72.5340105,32.8110208 C73.8328912,33.4656806 75.1941063,33.8486342 76.607217,33.8486342 C77.6537778,33.8486342 79.3147346,33.4656806 79.3147346,31.9126904 C79.3147346,28.8010434 72.1355478,30.9302534 72.1355478,25.1969849 C72.1355478,21.7712801 75.1243157,20.2633258 78.3686842,20.2633258 C80.2947856,20.2633258 81.5635431,20.5797695 82.8642133,20.8562477 L82.5784894,23.969386 C81.3174864,23.5303613 80.3875415,23.2831117 78.8813767,23.2831117 C77.7844115,23.2831117 76.452425,23.692013 76.452425,25.0588949 C76.452425,27.571655 83.6292257,25.9560323 83.6292257,31.6901956 C83.6298222,35.4111683 80.3407162,36.8702095 76.9770475,36.8702095 Z M67.2415561,36.8702095 C63.9995736,36.8702095 62.2145446,34.8775982 62.2145446,31.7429859 L62.2145446,23.6529422 L59.1729864,23.6529422 L59.1729864,20.6394196 L62.2145446,20.6394196 L62.2145446,17.466333 L66.348296,16.1441887 L66.348296,20.6391214 L70.0251276,20.6391214 L70.0251276,23.652644 L66.348296,23.652644 L66.348296,31.0611854 C66.348296,32.4122599 66.7196178,33.6643154 68.2931872,33.6643154 C69.0316553,33.6643154 69.7391054,33.5113129 70.1688843,33.249449 L70.2998163,36.499186 C69.4319074,36.7544884 68.478699,36.8702095 67.2415561,36.8702095 Z M57.3059386,36.4994842 L53.3869275,36.4994842 L53.3869275,34.3485019 L53.3251897,34.3485019 C52.05852,35.8832988 50.283035,36.8702095 48.1162454,36.8702095 C44.3645529,36.8702095 42.7292457,34.224728 42.7292457,30.653477 L42.7292457,20.6394196 L46.8647865,20.6394196 L46.8647865,29.1085396 C46.8647865,31.0611854 46.8937168,33.6640171 49.5445669,33.6640171 C52.526475,33.6640171 53.1703977,30.4309822 53.1703977,28.395721 L53.1703977,20.6391214 L57.3056403,20.6391214 L57.3056403,36.4994842 L57.3059386,36.4994842 Z M34.4056719,33.8489324 C36.4215467,33.8489324 38.1335044,33.1110608 39.6784417,32.2506082 L39.6784417,35.6074171 C38.1737682,36.4481851 36.443319,36.8705078 34.2234409,36.8705078 C28.9894436,36.8705078 25.9401309,33.8489324 25.9401309,28.6465497 C25.9401309,24.0600541 28.3747494,20.263624 33.2997592,20.263624 C39.1872232,20.263624 40.84818,24.3055142 40.84818,29.8607273 L29.8791247,29.8607273 C30.065233,32.4125582 31.8568235,33.8489324 34.4056719,33.8489324 Z M11.8856745,36.4994842 L6,36.4994842 L6,15.0015912 L11.8856745,15.0015912 C18.4698517,15.0015912 24.2955779,17.2208729 24.2955779,25.759187 C24.2952796,34.2867641 18.4698517,36.4994842 11.8856745,36.4994842 Z M33.5473071,23.2834099 C31.2325853,23.2834099 30.065233,24.8990327 29.8791247,27.0112424 L36.9050107,27.0112424 C36.7797455,25.0058063 35.8593446,23.2834099 33.5473071,23.2834099 Z M12.7154073,18.3873304 L10.3192631,18.3873304 L10.3192631,33.1110608 L12.7154073,33.1110608 C16.3197641,33.1110608 19.7997504,30.4315787 19.7997504,25.7594852 C19.7997504,21.0563738 16.3197641,18.3873304 12.7154073,18.3873304 Z M145.633706,18.3873304 L144.125454,18.3873304 L144.125454,24.9437702 L145.633706,24.9437702 C147.801093,24.9437702 149.737036,24.2530222 149.737036,21.7405603 C149.737036,19.257327 147.861041,18.3873304 145.633706,18.3873304 Z M162.49977,23.4671322 C159.817604,23.4671322 158.520214,25.8098896 158.520214,28.1938055 C158.520214,30.8064795 159.358894,33.6646136 162.49977,33.6646136 C165.664804,33.6646136 166.501993,30.8374975 166.501993,28.1938055 C166.501993,25.7594852 165.212358,23.4671322 162.49977,23.4671322 Z M123.488908,23.2834099 C121.174783,23.2834099 120.008325,24.8990327 119.822515,27.0112424 L126.838559,27.0112424 C126.723434,25.0058063 125.800946,23.2834099 123.488908,23.2834099 Z" id="Combined-Shape" fill="#29282B" fill-rule="nonzero"></path>
                </g>
                <mask id="mask-2" fill="white">
                    <use xlink:href="#path-1"></use>
                </mask>
                <use id="Mask" fill="#EEF0F2" opacity="0" xlink:href="#path-1"></use>
            </g>
        </g>
    </g>
</svg>