<svg xmlns="http://www.w3.org/2000/svg" xmlns:xlink="http://www.w3.org/1999/xlink" width="69" height="80" viewBox="0 0 69 80">
    <defs>
        <path id="a" d="M0 0h80v80H0z"/>
        <path id="c" d="M.474.676h34.233V34.91H.474z"/>
    </defs>
    <g fill="none" fill-rule="evenodd" transform="translate(-5)">
        <mask id="b" fill="#fff">
            <use xlink:href="#a"/>
        </mask>
        <g mask="url(#b)">
            <g transform="translate(39.182 44.744)">
                <mask id="d" fill="#fff">
                    <use xlink:href="#c"/>
                </mask>
                <path fill="#FF3C91" d="M1.827 24.45c-3.677-8.706.4-18.744 9.106-22.42 8.707-3.678 18.745.4 22.421 9.105 3.678 8.707-.4 18.744-9.106 22.421-8.706 3.678-18.744-.4-22.42-9.106" mask="url(#d)"/>
            </g>
            <path fill="#9BC7FB" d="M23.698 40.965c7.488 2.447 11.573 10.501 9.126 17.988-2.447 7.488-10.501 11.574-17.988 9.127C7.348 65.633 3.263 57.579 5.71 50.09c2.447-7.486 10.501-11.572 17.988-9.125"/>
            <path fill="#AE8FFF" d="M54.675 39.224c-9.994 6.02-22.976 2.797-28.995-7.197-6.02-9.994-2.798-22.975 7.196-28.995S55.852.234 61.872 10.23c6.02 9.993 2.797 22.975-7.197 28.995"/>
        </g>
    </g>
</svg>
