<svg xmlns="http://www.w3.org/2000/svg" width="160" height="160" viewBox="0 0 160 160">
    <g fill="none" fill-rule="evenodd">
        <rect width="160" height="160" fill="#FFF" rx="80"/>
        <rect width="80" height="80" x="10" y="20" fill="#F8F8F8" rx="40"/>
        <path fill="#29282B" d="M60.438 81.158c8.985 2.937 13.888 12.601 10.95 21.586-2.936 8.986-12.6 13.889-21.585 10.952-8.985-2.937-13.888-12.601-10.951-21.587 2.937-8.985 12.601-13.888 21.586-10.951"/>
        <path fill="#FF3C91" d="M81.21 115.033c-4.412-10.447.48-22.494 10.928-26.905 10.448-4.413 22.494.48 26.906 10.927 4.412 10.448-.48 22.493-10.928 26.906-10.447 4.412-22.493-.48-26.905-10.928"/>
        <path fill="#AE8FFF" d="M97.61 79.068c-11.993 7.224-27.571 3.358-34.794-8.635-7.224-11.993-3.357-27.57 8.635-34.794 11.993-7.224 27.571-3.358 34.795 8.635 7.223 11.993 3.357 27.57-8.636 34.794"/>
    </g>
</svg>
