<svg xmlns="http://www.w3.org/2000/svg" xmlns:xlink="http://www.w3.org/1999/xlink" width="160" height="160" viewBox="0 0 160 160">
    <defs>
        <path id="a" d="M42.06 90a4 4 0 0 1 5.876-4.164C50.539 87.271 53.246 88 56 88c2.762 0 5.474-.732 8.083-2.174A4 4 0 0 1 69.961 90H70l-.071.166a4.015 4.015 0 0 1-.608 1.418l-4.402 10.271a1 1 0 0 1-1.838 0l-2.022-4.718-4.101 13.67a1 1 0 0 1-1.916 0l-4.1-13.67-2.023 4.718a1 1 0 0 1-1.838 0l-4.428-10.33a4.016 4.016 0 0 1-.54-1.26L42 90h.06zm35.442-38.712l8.516 7.298a8 8 0 0 1 2.44 8.427L82.89 85.105a2 2 0 0 1-3.204.938l-11.92-10.086C64.366 79.784 60.329 82 56 82c-4.485 0-8.657-2.38-12.135-6.465L30.29 86.2a2 2 0 0 1-3.148-.984l-5.488-17.839a8 8 0 0 1 2.846-8.753l9.979-7.484A68.518 68.518 0 0 1 34 43C34 21.46 52.008 2 56 2c3.992 0 22 19.46 22 41a68.47 68.47 0 0 1-.498 8.288zM56 46c5.523 0 10-4.477 10-10s-4.477-10-10-10-10 4.477-10 10 4.477 10 10 10zm0-4a6 6 0 1 1 0-12 6 6 0 0 1 0 12z"/>
    </defs>
    <g fill="none" fill-rule="evenodd">
        <rect width="160" height="160" fill="#FFF" rx="80"/>
        <rect width="80" height="80" y="8" fill="#F8F8F8" rx="40"/>
        <g transform="translate(28 28)">
            <mask id="b" fill="#fff">
                <use xlink:href="#a"/>
            </mask>
            <use fill="#AE8FFF" xlink:href="#a"/>
            <g fill="#AE8FFF" mask="url(#b)">
                <path d="M0 0h112v112H0z"/>
            </g>
        </g>
    </g>
</svg>
