<svg xmlns="http://www.w3.org/2000/svg" width="160" height="160" viewBox="0 0 160 160">
    <g fill="none" fill-rule="evenodd">
        <rect width="160" height="160" fill="#FFF" rx="80"/>
        <rect width="80" height="80" x="19" y="42" fill="#F8F8F8" rx="40"/>
        <path fill="#29282B" d="M101.65 47.819l-2.187 2.186c1.782 6.672.056 14.086-5.179 19.32L80.142 55.185 66 41.042c5.235-5.235 12.649-6.961 19.321-5.18l8.963-8.963a4 4 0 0 1 5.657 0l8.485 8.486a4 4 0 0 1 0 5.657l-2.528 2.528 37.073 33.29a3 3 0 0 1 .833 3.206l-15.414 44.866h8.943a3 3 0 0 1 0 6h-24.69c-4 0-4-6 0-6h11.952v3h-3v-1.188a3 3 0 0 1 .163-.975l15.726-45.773-35.835-32.177z"/>
        <path fill="#AE8FFF" stroke="#AE8FFF" stroke-width="1.2" d="M13.86 92V64.05H5.675v-2.89h12.05V92H13.86zm24.59.488c-3.113 0-5.557-.986-7.335-2.959-1.777-1.972-2.666-4.684-2.666-8.134 0-3.438.892-6.143 2.676-8.116 1.784-1.972 4.225-2.959 7.324-2.959 3.112 0 5.557.987 7.334 2.96 1.778 1.972 2.666 4.677 2.666 8.115 0 3.45-.888 6.162-2.666 8.134-1.777 1.973-4.222 2.96-7.334 2.96zm0-2.89c1.848 0 3.293-.723 4.335-2.168 1.042-1.446 1.563-3.457 1.563-6.035 0-2.566-.521-4.57-1.563-6.016-1.042-1.445-2.487-2.168-4.336-2.168-1.849 0-3.294.723-4.336 2.168-1.041 1.445-1.562 3.45-1.562 6.016 0 2.578.52 4.59 1.562 6.035 1.042 1.445 2.487 2.168 4.336 2.168zm16.19 9.492l.41-3.242c2.305.976 4.447 1.465 6.427 1.465 4.114 0 6.171-1.96 6.171-5.88l.176-3.828C66.21 90.535 63.872 92 60.813 92c-2.422 0-4.346-.921-5.772-2.764-1.426-1.842-2.139-4.326-2.139-7.45 0-3.4.827-6.163 2.48-8.292 1.654-2.129 3.803-3.193 6.446-3.193 2.07 0 4.108.97 6.113 2.91v-2.422h3.614v16.973c0 2.747-.183 4.814-.547 6.2a8.44 8.44 0 0 1-2.051 3.683c-1.602 1.705-4.108 2.558-7.52 2.558-2.005 0-4.27-.371-6.796-1.113zm13.067-14.61v-8.34c-1.732-1.953-3.522-2.93-5.371-2.93-1.68 0-2.988.73-3.926 2.188-.937 1.459-1.406 3.503-1.406 6.133 0 2.227.41 3.968 1.23 5.225.82 1.256 1.967 1.885 3.438 1.885 2.279 0 4.29-1.387 6.035-4.16zm16.055-7.91v-5.78h5.781v5.78h-5.781zm0 15.43v-5.781h5.781V92h-5.781z"/>
    </g>
</svg>
