<?xml version="1.0" encoding="UTF-8"?>
<svg width="18px" height="18px" viewBox="0 0 18 18" version="1.1" xmlns="http://www.w3.org/2000/svg" xmlns:xlink="http://www.w3.org/1999/xlink">
    <g id="quick-start" stroke="none" stroke-width="1" fill="none" fill-rule="evenodd">
        <g id="Desktop-HD-1440-quick-start" transform="translate(-1263.000000, -767.000000)">
            <g id="Group-10-Copy" transform="translate(1256.000000, 760.000000)">
                <g id="a/icon_copy-copy" transform="translate(7.000000, 7.000000)">
                    <g id="a/icon_copy">
                        <rect id="Rectangle-2" fill="#D8D8D8" fill-rule="nonzero" opacity="0" x="0" y="0" width="18" height="18"></rect>
                        <path d="M3,2 C2.44771525,2 2,2.44771525 2,3 L2,11 C2,11.5522847 2.44771525,12 3,12 L11,12 C11.5522847,12 12,11.5522847 12,11 L12,3 C12,2.44771525 11.5522847,2 11,2 L3,2 Z M3,0 L11,0 C12.6568542,-3.33066907e-16 14,1.34314575 14,3 L14,11 C14,12.6568542 12.6568542,14 11,14 L3,14 C1.34314575,14 3.33066907e-16,12.6568542 0,11 L0,3 C-1.66533454e-16,1.34314575 1.34314575,3.33066907e-16 3,0 Z" id="Rectangle" fill="#FFFFFF" fill-rule="nonzero"></path>
                        <path d="M6,6 L6,15 C6,15.5522847 6.44771525,16 7,16 L15,16 C15.5522847,16 16,15.5522847 16,15 L16,7 C16,6.44771525 15.5522847,6 15,6 L6,6 Z M4,5 L4,4 L15,4 C16.6568542,4 18,5.34314575 18,7 L18,15 C18,16.6568542 16.6568542,18 15,18 L7,18 C5.34314575,18 4,16.6568542 4,15 L6,15 L6,6 L4,6 L4,5 L4,6 L15,6 L15,4 L4,4 L4,5 Z" id="Combined-Shape" fill="#FFFFFF" fill-rule="nonzero"></path>
                    </g>
                    <g>
                        <rect id="Rectangle-2" fill="#D8D8D8" fill-rule="nonzero" opacity="0" x="0" y="0" width="18" height="18"></rect>
                        <path d="M3,2 C2.44771525,2 2,2.44771525 2,3 L2,11 C2,11.5522847 2.44771525,12 3,12 L11,12 C11.5522847,12 12,11.5522847 12,11 L12,3 C12,2.44771525 11.5522847,2 11,2 L3,2 Z M3,0 L11,0 C12.6568542,-3.33066907e-16 14,1.34314575 14,3 L14,11 C14,12.6568542 12.6568542,14 11,14 L3,14 C1.34314575,14 3.33066907e-16,12.6568542 0,11 L0,3 C-1.66533454e-16,1.34314575 1.34314575,3.33066907e-16 3,0 Z" id="Rectangle" fill="#FFFFFF" fill-rule="nonzero"></path>
                        <path d="M6,6 L6,15 C6,15.5522847 6.44771525,16 7,16 L15,16 C15.5522847,16 16,15.5522847 16,15 L16,7 C16,6.44771525 15.5522847,6 15,6 L6,6 Z M4,5 L4,4 L15,4 C16.6568542,4 18,5.34314575 18,7 L18,15 C18,16.6568542 16.6568542,18 15,18 L7,18 C5.34314575,18 4,16.6568542 4,15 L6,15 L6,6 L4,6 L4,5 L4,6 L15,6 L15,4 L4,4 L4,5 Z" id="Combined-Shape" fill="#FFFFFF" fill-rule="nonzero"></path>
                    </g>
                </g>
            </g>
        </g>
    </g>
</svg>