<svg xmlns="http://www.w3.org/2000/svg" width="160" height="160" viewBox="0 0 160 160">
    <g fill="none" fill-rule="evenodd">
        <rect width="160" height="160" fill="#FFF" rx="80"/>
        <rect width="80" height="80" x="20" y="28" fill="#F8F8F8" rx="40"/>
        <path fill="#29282B" d="M58 95c-6.64 0-12-5.36-12-12s5.36-12 12-12 11.96 5.36 11.96 12S64.64 95 58 95zm0 8c9.32 0 28 4.68 28 14v10H30v-10c0-9.32 18.68-14 28-14z"/>
        <path fill="#AE8FFF" fill-rule="nonzero" d="M114.78 75l6.985-26.068a2 2 0 0 1 3.863 1.035L118.921 75H124v-7.276l1.843-1.18C132.125 62.522 136 55.595 136 48c0-12.15-9.85-22-22-22s-22 9.85-22 22a21.951 21.951 0 0 0 8.488 17.363l1.782 1.389-.27 2.243V75h5.21l-6.692-24.978a2 2 0 1 1 3.863-1.035L111.351 75h3.429zM88 48c0-14.36 11.64-26 26-26s26 11.64 26 26c0 9.205-4.783 17.292-12 21.913V75a4 4 0 0 1-4 4h-22a4 4 0 0 1-4-4v-6c0-.163.01-.324.029-.482C91.925 63.76 88 56.338 88 48zm20.22.585a2 2 0 0 1-2.44-3.17c2.502-1.925 5.414-1.925 8.29-.105 1.346.852 2.244.848 3.18.38.15-.076.736-.423.894-.497a2 2 0 0 1 1.712 3.614c.055-.025-.48.292-.815.46-2.124 1.062-4.502 1.074-7.11-.577-1.515-.958-2.603-.958-3.711-.105zM102 82h22a2 2 0 0 1 0 4h-22a2 2 0 0 1 0-4zm0 7h22a2 2 0 0 1 0 4h-22a2 2 0 0 1 0-4zm0 9a2 2 0 0 1 4 0 7 7 0 0 0 14 0 2 2 0 0 1 4 0c0 6.075-4.925 11-11 11s-11-4.925-11-11z"/>
    </g>
</svg>
