<svg xmlns="http://www.w3.org/2000/svg" width="160" height="160" viewBox="0 0 160 160">
    <g fill="none" fill-rule="evenodd">
        <rect width="160" height="160" fill="#FFF" rx="80"/>
        <rect width="80" height="80" x="20" y="10" fill="#F8F8F8" rx="40"/>
        <path fill="#000" fill-rule="nonzero" d="M74 66c6.64 0 11.96-5.36 11.96-12S80.64 42 74 42c-6.64 0-12 5.36-12 12s5.36 12 12 12zm-32 0c6.64 0 11.96-5.36 11.96-12S48.64 42 42 42c-6.64 0-12 5.36-12 12s5.36 12 12 12zm0 8c-9.32 0-28 4.68-28 14v10h56V88c0-9.32-18.68-14-28-14zm32 0c-1.16 0-2.48.08-3.88.2C74.76 77.56 78 82.08 78 88v10h24V88c0-9.32-18.68-14-28-14z"/>
        <path fill="#AE8FFF" fill-rule="nonzero" d="M133.526 80.804l-15.807 5.443a4 4 0 0 1-2.605-7.564l24.575-8.462.009-.003a4 4 0 0 1 5.064 2.422l8.89 24.424a4 4 0 1 1-7.518 2.736l-5.543-15.228c-18.585 38.205-63.425 56.945-104.228 42.094a4 4 0 0 1 2.737-7.518c37.008 13.47 77.688-3.603 94.426-38.344z"/>
    </g>
</svg>
