<?xml version="1.0" encoding="UTF-8"?>
<svg width="160px" height="160px" viewBox="0 0 160 160" version="1.1" xmlns="http://www.w3.org/2000/svg" xmlns:xlink="http://www.w3.org/1999/xlink">
    <!-- Generator: sketchtool 51.2 (57519) - http://www.bohemiancoding.com/sketch -->
    <title>02132901-6F07-45C2-8D9C-494DCCC5330E</title>
    <desc>Created with sketchtool.</desc>
    <defs></defs>
    <g id="Product" stroke="none" stroke-width="1" fill="none" fill-rule="evenodd">
        <g id="Desktop-HD-1440-grid-product" transform="translate(-790.000000, -1347.000000)">
            <g id="a/icon_11" transform="translate(790.000000, 1347.000000)">
                <g>
                    <rect id="Rectangle-Copy-29" fill="#FFFFFF" x="0" y="0" width="160" height="160" rx="80"></rect>
                    <rect id="Rectangle-Copy-30" fill="#F8F8F8" x="0" y="0" width="80" height="80" rx="40"></rect>
                    <rect id="Rectangle" fill="#AE8FFF" fill-rule="nonzero" x="12" y="40" width="136" height="86" rx="8"></rect>
                    <path d="M27.8007812,63.5113281 C27.1250371,63.5113281 26.5510803,63.3126058 26.0979133,62.9134432 C25.6344781,62.505236 25.396875,61.9758612 25.396875,61.3535156 C25.396875,60.5585443 25.7570701,59.9053905 26.4493564,59.4300206 C27.1079719,58.9777713 27.9596459,58.75625 28.9960938,58.75625 L29.3109375,58.75625 L29.3109375,58.6113281 C29.3109375,58.2608985 29.2430819,58.0426961 29.1349789,57.9388325 C29.0227735,57.8310273 28.7891187,57.7632812 28.421875,57.7632812 C27.8221028,57.7632812 27.1935325,57.933741 26.533476,58.2800001 L25.9476563,58.5873154 L25.9476563,56.6536592 L26.2131217,56.5588501 C27.0747258,56.2511344 27.8892058,56.0960938 28.65625,56.0960938 C29.5582217,56.0960938 30.2247965,56.2829626 30.6469893,56.6878727 C31.0734821,57.0969066 31.2710937,57.7509897 31.2710937,58.6347656 L31.2710937,61.3007812 C31.2710937,61.616804 31.3029675,61.8194302 31.3384147,61.8793527 C31.3399108,61.881882 31.3602364,61.8910156 31.4570312,61.8910156 C31.4928733,61.8910156 31.5894199,61.8754436 31.7297071,61.8428187 L32.1505782,61.7449417 L32.3725071,63.1998087 L32.048807,63.304439 C31.6256699,63.4412106 31.2969941,63.5113281 31.046875,63.5113281 C30.482862,63.5113281 30.0403873,63.279402 29.7486796,62.8451881 C29.109941,63.2860669 28.4594991,63.5113281 27.8007812,63.5113281 Z M29.3109375,60.2771156 C27.9595969,60.2852608 27.3921875,60.5994368 27.3921875,61.1601562 C27.3921875,61.3603981 27.4497931,61.5010888 27.568187,61.6103755 C27.6930828,61.7256639 27.8652463,61.7855469 28.1054688,61.7855469 C28.4662677,61.7855469 28.8682217,61.6249209 29.3109375,61.2892526 L29.3109375,60.2771156 Z M32.8441406,55.0152344 L32.8441406,53.3480469 L37.259375,53.3480469 L37.259375,63.4 L35.2992188,63.4 L35.2992188,55.0152344 L32.8441406,55.0152344 Z M40.0746094,55.0152344 L40.0746094,53.3480469 L44.4898437,53.3480469 L44.4898437,63.4 L42.5296875,63.4 L42.5296875,55.0152344 L40.0746094,55.0152344 Z M58.5289062,60.8964844 C58.5289062,61.0963065 58.5054411,61.3373576 58.4590107,61.6243533 L58.3242451,62.4329471 C58.2884922,62.6474646 58.2710937,62.8092697 58.2710937,62.9121094 C58.2710937,63.1317412 58.3259376,63.2454747 58.4339,63.3100751 C58.5954837,63.4067604 58.9431463,63.4671875 59.4589844,63.4671875 L60.321875,63.4671875 L60.321875,65.134375 L59.2832031,65.134375 C58.4126572,65.134375 57.7260978,64.9717977 57.2267665,64.63124 C56.6915282,64.2661927 56.4164063,63.7235558 56.4164063,63.046875 C56.4164063,62.786236 56.4462583,62.4983773 56.5055408,62.1808117 L56.7036441,61.1439385 C56.7270432,61.0102291 56.7386719,60.8789912 56.7386719,60.75 C56.7386719,60.2714434 56.495719,60.071875 55.8261719,60.071875 L54.8929688,60.071875 L54.8929688,58.4046875 L55.8261719,58.4046875 C56.4960789,58.4046875 56.7386719,58.2064977 56.7386719,57.7324219 C56.7386719,57.6034306 56.7270432,57.4721927 56.7047595,57.3445789 L56.5052294,56.2999613 C56.4462583,55.9840446 56.4164063,55.6961858 56.4164063,55.4355469 C56.4164063,54.0502615 57.4429075,53.3480469 59.2832031,53.3480469 L60.321875,53.3480469 L60.321875,55.0152344 L59.4589844,55.0152344 C58.9431463,55.0152344 58.5954837,55.0756614 58.4339,55.1723467 C58.3259376,55.2369472 58.2710937,55.3506807 58.2710937,55.5703125 C58.2710937,55.6728352 58.2884205,55.8322416 58.3243215,56.0440758 L58.458702,56.8562426 C58.5091049,57.1502594 58.5347656,57.398313 58.5347656,57.6035156 C58.5347656,58.3122332 58.2908991,58.8679989 57.8214139,59.241773 C58.2874621,59.6201639 58.5289062,60.1814809 58.5289062,60.8964844 Z M42.2617188,75.5113281 C41.5859746,75.5113281 41.0120178,75.3126058 40.5588508,74.9134432 C40.0954156,74.505236 39.8578125,73.9758612 39.8578125,73.3535156 C39.8578125,72.5585443 40.2180076,71.9053905 40.9102939,71.4300206 C41.5689094,70.9777713 42.4205834,70.75625 43.4570312,70.75625 L43.771875,70.75625 L43.771875,70.6113281 C43.771875,70.2608985 43.7040194,70.0426961 43.5959164,69.9388325 C43.483711,69.8310273 43.2500562,69.7632813 42.8828125,69.7632813 C42.2830403,69.7632813 41.65447,69.933741 40.9944135,70.2800001 L40.4085938,70.5873154 L40.4085938,68.6536592 L40.6740592,68.5588501 C41.5356633,68.2511344 42.3501433,68.0960937 43.1171875,68.0960937 C44.0191592,68.0960937 44.685734,68.2829626 45.1079268,68.6878727 C45.5344196,69.0969066 45.7320312,69.7509897 45.7320312,70.6347656 L45.7320312,73.3007812 C45.7320312,73.616804 45.763905,73.8194302 45.7993522,73.8793527 C45.8008483,73.881882 45.8211739,73.8910156 45.9179688,73.8910156 C45.9538108,73.8910156 46.0503574,73.8754436 46.1906446,73.8428187 L46.6115157,73.7449417 L46.8334446,75.1998087 L46.5097445,75.304439 C46.0866074,75.4412106 45.7579316,75.5113281 45.5078125,75.5113281 C44.9437995,75.5113281 44.5013248,75.279402 44.2096171,74.8451881 C43.5708785,75.2860669 42.9204366,75.5113281 42.2617188,75.5113281 Z M43.771875,72.2771156 C42.4205344,72.2852608 41.853125,72.5994368 41.853125,73.1601562 C41.853125,73.3603981 41.9107306,73.5010888 42.0291245,73.6103755 C42.1540203,73.7256639 42.3261838,73.7855469 42.5664062,73.7855469 C42.9272052,73.7855469 43.3291592,73.6249209 43.771875,73.2892526 L43.771875,72.2771156 Z M47.3871094,73.090514 L47.9458373,73.3320602 C48.7941156,73.6987831 49.5161708,73.8792969 50.1074219,73.8792969 C50.5062743,73.8792969 50.8216778,73.8022335 51.0602645,73.6548265 C51.255854,73.5339846 51.3304688,73.4175475 51.3304688,73.2773438 C51.3304688,73.1318027 51.095525,72.9370632 50.5104388,72.7493285 L49.2751863,72.3453817 C48.1572359,71.9832925 47.5511719,71.291349 47.5511719,70.3125 C47.5511719,69.6089212 47.8279879,69.0403932 48.3693961,68.6470832 C48.8815637,68.2750153 49.5784742,68.0960937 50.453125,68.0960937 C51.0839287,68.0960937 51.8069269,68.1918146 52.6238511,68.3818911 L52.9332031,68.453869 L52.9332031,70.2479181 L52.4173637,70.0918436 C51.6912648,69.8721522 51.0343486,69.7632813 50.4472656,69.7632813 C50.092973,69.7632813 49.8262513,69.8235835 49.6434912,69.9340897 C49.5068513,70.0167091 49.4585937,70.0952679 49.4585937,70.2070312 C49.4585937,70.3082933 49.6196284,70.4528958 50.0518594,70.6028545 L51.5120343,71.1130382 C52.1012689,71.3210034 52.5386666,71.5771775 52.8225106,71.8944149 C53.1239194,72.2312835 53.2730469,72.6636279 53.2730469,73.171875 C53.2730469,73.9026702 52.9626692,74.5026523 52.3627291,74.9348926 C51.7920911,75.3460215 51.045011,75.5464844 50.1308594,75.5464844 C49.3564593,75.5464844 48.5340512,75.404619 47.6638386,75.1227191 L47.3871094,75.0330744 L47.3871094,73.090514 Z M54.6175781,73.090514 L55.1763061,73.3320602 C56.0245844,73.6987831 56.7466396,73.8792969 57.3378906,73.8792969 C57.7367431,73.8792969 58.0521466,73.8022335 58.2907333,73.6548265 C58.4863227,73.5339846 58.5609375,73.4175475 58.5609375,73.2773438 C58.5609375,73.1318027 58.3259937,72.9370632 57.7409075,72.7493285 L56.5056551,72.3453817 C55.3877047,71.9832925 54.7816406,71.291349 54.7816406,70.3125 C54.7816406,69.6089212 55.0584566,69.0403932 55.5998649,68.6470832 C56.1120325,68.2750153 56.8089429,68.0960937 57.6835938,68.0960937 C58.3143974,68.0960937 59.0373956,68.1918146 59.8543198,68.3818911 L60.1636719,68.453869 L60.1636719,70.2479181 L59.6478324,70.0918436 C58.9217335,69.8721522 58.2648174,69.7632813 57.6777344,69.7632813 C57.3234417,69.7632813 57.0567201,69.8235835 56.8739599,69.9340897 C56.73732,70.0167091 56.6890625,70.0952679 56.6890625,70.2070312 C56.6890625,70.3082933 56.8500971,70.4528958 57.2823281,70.6028545 L58.742503,71.1130382 C59.3317377,71.3210034 59.7691354,71.5771775 60.0529793,71.8944149 C60.3543881,72.2312835 60.5035156,72.6636279 60.5035156,73.171875 C60.5035156,73.9026702 60.1931379,74.5026523 59.5931979,74.9348926 C59.0225598,75.3460215 58.2754798,75.5464844 57.3613281,75.5464844 C56.586928,75.5464844 55.76452,75.404619 54.8943073,75.1227191 L54.6175781,75.0330744 L54.6175781,73.090514 Z M63.6596317,72.5171875 C63.8396146,73.4509375 64.4375942,73.8792969 65.5410156,73.8792969 C66.1075776,73.8792969 66.7398288,73.7416147 67.4373812,73.4625937 L67.9859375,73.2431712 L67.9859375,75.0367957 L67.7118729,75.127705 C66.8725579,75.4061119 66.0963807,75.5464844 65.3828125,75.5464844 C64.1930119,75.5464844 63.2530423,75.2320694 62.5838189,74.5917494 C61.9108438,73.9478397 61.5785156,73.0380775 61.5785156,71.8886719 C61.5785156,70.8063103 61.8936939,69.8989458 62.5258773,69.1858255 C63.1667653,68.462886 63.9937356,68.0960937 64.9785156,68.0960937 C65.9718312,68.0960937 66.7364523,68.4074779 67.2349408,69.0393648 C67.7156119,69.6486662 67.9449219,70.5529872 67.9449219,71.7480469 L67.9449219,72.5171875 L63.6596317,72.5171875 Z M65.9070158,70.85 C65.8554739,70.0798311 65.5339924,69.7632813 64.8789062,69.7632813 C64.5325396,69.7632813 64.2694428,69.8800605 64.059405,70.1229614 C63.9014714,70.3056057 63.7847587,70.5468096 63.7122517,70.85 L65.9070158,70.85 Z M71.7417969,75.4 L69.7875,75.4 L69.7875,68.2367187 L71.7417969,68.2367187 L71.7417969,68.7801588 C72.2916463,68.3271487 72.9492095,68.0960937 73.703125,68.0960937 C74.0819778,68.0960937 74.5049313,68.1484395 74.9731249,68.2520221 L75.2867188,68.3214013 L75.2867188,70.8472656 L73.6195312,70.8472656 L73.6195312,69.9058872 C73.5958727,69.9045636 73.5729541,69.9039063 73.5507812,69.9039063 C73.1810877,69.9039063 72.8659285,69.9872607 72.5970005,70.1523919 C72.3348446,70.3133649 72.0477059,70.592599 71.7417969,70.9910873 L71.7417969,75.4 Z M79.5230469,72.9082031 C79.5230469,73.2313083 79.5425581,73.4484765 79.5704424,73.5333418 C79.5861142,73.5810385 79.6266208,73.6309558 79.7012155,73.6820521 C79.8918861,73.8082312 80.2045751,73.8792969 80.640625,73.8792969 C81.0906685,73.8792969 81.5369745,73.8280814 81.9801335,73.7255322 L82.4703125,73.6121024 L82.4703125,75.3299958 L82.1395229,75.3881075 C81.5390107,75.4936029 80.9573146,75.5464844 80.3945312,75.5464844 C79.3574543,75.5464844 78.622458,75.3526515 78.1906298,74.9233051 C77.7580766,74.4932378 77.5628906,73.7584861 77.5628906,72.7207031 L77.5628906,70.0503906 L75.975,70.0503906 L75.975,68.3832031 L77.5628906,68.3832031 L77.5628906,67.0121094 L79.5230469,67.0121094 L79.5230469,68.3832031 L82.3414063,68.3832031 L82.3414063,70.0503906 L79.5230469,70.0503906 L79.5230469,72.9082031 Z M90.6878906,69.9039063 L90.6878906,68.2367187 L94.9566406,68.2367187 L94.9566406,75.4 L93.0023437,75.4 L93.0023437,69.9039063 L90.6878906,69.9039063 Z M92.8558594,65.3480469 L95.103125,65.3480469 L95.103125,67.5953125 L92.8558594,67.5953125 L92.8558594,65.3480469 Z M97.4085937,72.06875 L104.425391,72.06875 L104.425391,73.7359375 L97.4085937,73.7359375 L97.4085937,72.06875 Z M97.4085937,69.9007812 L104.425391,69.9007812 L104.425391,71.5679688 L97.4085937,71.5679688 L97.4085937,69.9007812 Z M110.835547,73.5863281 L110.835547,75.4 L105.119531,75.4 L105.119531,73.9863281 L105.164202,73.8026409 C105.661279,72.8410822 106.397327,71.8785576 107.369501,70.9144229 L107.891757,70.3921689 C108.540638,69.7468144 108.851953,69.1224926 108.851953,68.5136719 C108.851953,68.1494089 108.751852,67.8789231 108.55404,67.6783048 C108.357481,67.4789581 108.092678,67.3785156 107.734375,67.3785156 C107.24937,67.3785156 106.643139,67.5634073 105.922332,67.942013 L105.336328,68.2498129 L105.336328,66.3034682 L105.580211,66.2000831 C106.346845,65.875097 107.102701,65.7113281 107.845703,65.7113281 C108.73221,65.7113281 109.465262,65.9594208 110.025507,66.4606925 C110.594968,66.9702101 110.882422,67.6486947 110.882422,68.4667969 C110.882422,68.9916939 110.753832,69.4880067 110.49842,69.9495393 C110.252682,70.3935923 109.850017,70.8734529 109.291616,71.3948974 L108.797958,71.8591638 C108.145835,72.4663129 107.698873,73.043457 107.451678,73.5863281 L110.835547,73.5863281 Z M42.2617188,87.5113281 C41.5859746,87.5113281 41.0120178,87.3126058 40.5588508,86.9134432 C40.0954156,86.505236 39.8578125,85.9758612 39.8578125,85.3535156 C39.8578125,84.5585443 40.2180076,83.9053905 40.9102939,83.4300206 C41.5689094,82.9777713 42.4205834,82.75625 43.4570312,82.75625 L43.771875,82.75625 L43.771875,82.6113281 C43.771875,82.2608985 43.7040194,82.0426961 43.5959164,81.9388325 C43.483711,81.8310273 43.2500562,81.7632813 42.8828125,81.7632813 C42.2830403,81.7632813 41.65447,81.933741 40.9944135,82.2800001 L40.4085938,82.5873154 L40.4085938,80.6536592 L40.6740592,80.5588501 C41.5356633,80.2511344 42.3501433,80.0960937 43.1171875,80.0960937 C44.0191592,80.0960937 44.685734,80.2829626 45.1079268,80.6878727 C45.5344196,81.0969066 45.7320312,81.7509897 45.7320312,82.6347656 L45.7320312,85.3007812 C45.7320312,85.616804 45.763905,85.8194302 45.7993522,85.8793527 C45.8008483,85.881882 45.8211739,85.8910156 45.9179688,85.8910156 C45.9538108,85.8910156 46.0503574,85.8754436 46.1906446,85.8428187 L46.6115157,85.7449417 L46.8334446,87.1998087 L46.5097445,87.304439 C46.0866074,87.4412106 45.7579316,87.5113281 45.5078125,87.5113281 C44.9437995,87.5113281 44.5013248,87.279402 44.2096171,86.8451881 C43.5708785,87.2860669 42.9204366,87.5113281 42.2617188,87.5113281 Z M43.771875,84.2771156 C42.4205344,84.2852608 41.853125,84.5994368 41.853125,85.1601562 C41.853125,85.3603981 41.9107306,85.5010888 42.0291245,85.6103755 C42.1540203,85.7256639 42.3261838,85.7855469 42.5664062,85.7855469 C42.9272052,85.7855469 43.3291592,85.6249209 43.771875,85.2892526 L43.771875,84.2771156 Z M47.3871094,85.090514 L47.9458373,85.3320602 C48.7941156,85.6987831 49.5161708,85.8792969 50.1074219,85.8792969 C50.5062743,85.8792969 50.8216778,85.8022335 51.0602645,85.6548265 C51.255854,85.5339846 51.3304688,85.4175475 51.3304688,85.2773438 C51.3304688,85.1318027 51.095525,84.9370632 50.5104388,84.7493285 L49.2751863,84.3453817 C48.1572359,83.9832925 47.5511719,83.291349 47.5511719,82.3125 C47.5511719,81.6089212 47.8279879,81.0403932 48.3693961,80.6470832 C48.8815637,80.2750153 49.5784742,80.0960937 50.453125,80.0960937 C51.0839287,80.0960937 51.8069269,80.1918146 52.6238511,80.3818911 L52.9332031,80.453869 L52.9332031,82.2479181 L52.4173637,82.0918436 C51.6912648,81.8721522 51.0343486,81.7632813 50.4472656,81.7632813 C50.092973,81.7632813 49.8262513,81.8235835 49.6434912,81.9340897 C49.5068513,82.0167091 49.4585937,82.0952679 49.4585937,82.2070312 C49.4585937,82.3082933 49.6196284,82.4528958 50.0518594,82.6028545 L51.5120343,83.1130382 C52.1012689,83.3210034 52.5386666,83.5771775 52.8225106,83.8944149 C53.1239194,84.2312835 53.2730469,84.6636279 53.2730469,85.171875 C53.2730469,85.9026702 52.9626692,86.5026523 52.3627291,86.9348926 C51.7920911,87.3460215 51.045011,87.5464844 50.1308594,87.5464844 C49.3564593,87.5464844 48.5340512,87.404619 47.6638386,87.1227191 L47.3871094,87.0330744 L47.3871094,85.090514 Z M54.6175781,85.090514 L55.1763061,85.3320602 C56.0245844,85.6987831 56.7466396,85.8792969 57.3378906,85.8792969 C57.7367431,85.8792969 58.0521466,85.8022335 58.2907333,85.6548265 C58.4863227,85.5339846 58.5609375,85.4175475 58.5609375,85.2773438 C58.5609375,85.1318027 58.3259937,84.9370632 57.7409075,84.7493285 L56.5056551,84.3453817 C55.3877047,83.9832925 54.7816406,83.291349 54.7816406,82.3125 C54.7816406,81.6089212 55.0584566,81.0403932 55.5998649,80.6470832 C56.1120325,80.2750153 56.8089429,80.0960937 57.6835938,80.0960937 C58.3143974,80.0960937 59.0373956,80.1918146 59.8543198,80.3818911 L60.1636719,80.453869 L60.1636719,82.2479181 L59.6478324,82.0918436 C58.9217335,81.8721522 58.2648174,81.7632813 57.6777344,81.7632813 C57.3234417,81.7632813 57.0567201,81.8235835 56.8739599,81.9340897 C56.73732,82.0167091 56.6890625,82.0952679 56.6890625,82.2070312 C56.6890625,82.3082933 56.8500971,82.4528958 57.2823281,82.6028545 L58.742503,83.1130382 C59.3317377,83.3210034 59.7691354,83.5771775 60.0529793,83.8944149 C60.3543881,84.2312835 60.5035156,84.6636279 60.5035156,85.171875 C60.5035156,85.9026702 60.1931379,86.5026523 59.5931979,86.9348926 C59.0225598,87.3460215 58.2754798,87.5464844 57.3613281,87.5464844 C56.586928,87.5464844 55.76452,87.404619 54.8943073,87.1227191 L54.6175781,87.0330744 L54.6175781,85.090514 Z M65.5410156,85.8792969 C66.1075776,85.8792969 66.7398288,85.7416147 67.4373812,85.4625937 L67.9859375,85.2431712 L67.9859375,87.0367957 L67.7118729,87.127705 C66.8725579,87.4061119 66.0963807,87.5464844 65.3828125,87.5464844 C64.1930119,87.5464844 63.2530423,87.2320694 62.5838189,86.5917494 C61.9108438,85.9478397 61.5785156,85.0380775 61.5785156,83.8886719 C61.5785156,82.8063103 61.8936939,81.8989458 62.5258773,81.1858255 C63.1667653,80.462886 63.9937356,80.0960937 64.9785156,80.0960937 C65.9718312,80.0960937 66.7364523,80.4074779 67.2349408,81.0393648 C67.7156119,81.6486662 67.9449219,82.5529872 67.9449219,83.7480469 L67.9449219,84.5171875 L63.6596317,84.5171875 C63.8396146,85.4509375 64.4375942,85.8792969 65.5410156,85.8792969 Z M65.9070158,82.85 C65.8554739,82.0798311 65.5339924,81.7632813 64.8789062,81.7632813 C64.5325396,81.7632813 64.2694428,81.8800605 64.059405,82.1229614 C63.9014714,82.3056057 63.7847587,82.5468096 63.7122517,82.85 L65.9070158,82.85 Z M71.7417969,87.4 L69.7875,87.4 L69.7875,80.2367187 L71.7417969,80.2367187 L71.7417969,80.7801588 C72.2916463,80.3271487 72.9492095,80.0960937 73.703125,80.0960937 C74.0819778,80.0960937 74.5049313,80.1484395 74.9731249,80.2520221 L75.2867188,80.3214013 L75.2867188,82.8472656 L73.6195312,82.8472656 L73.6195312,81.9058872 C73.5958727,81.9045636 73.5729541,81.9039063 73.5507812,81.9039063 C73.1810877,81.9039063 72.8659285,81.9872607 72.5970005,82.1523919 C72.3348446,82.3133649 72.0477059,82.592599 71.7417969,82.9910873 L71.7417969,87.4 Z M79.5230469,84.9082031 C79.5230469,85.2313083 79.5425581,85.4484765 79.5704424,85.5333418 C79.5861142,85.5810385 79.6266208,85.6309558 79.7012155,85.6820521 C79.8918861,85.8082312 80.2045751,85.8792969 80.640625,85.8792969 C81.0906685,85.8792969 81.5369745,85.8280814 81.9801335,85.7255322 L82.4703125,85.6121024 L82.4703125,87.3299958 L82.1395229,87.3881075 C81.5390107,87.4936029 80.9573146,87.5464844 80.3945312,87.5464844 C79.3574543,87.5464844 78.622458,87.3526515 78.1906298,86.9233051 C77.7580766,86.4932378 77.5628906,85.7584861 77.5628906,84.7207031 L77.5628906,82.0503906 L75.975,82.0503906 L75.975,80.3832031 L77.5628906,80.3832031 L77.5628906,79.0121094 L79.5230469,79.0121094 L79.5230469,80.3832031 L82.3414063,80.3832031 L82.3414063,82.0503906 L79.5230469,82.0503906 L79.5230469,84.9082031 Z M90.7699219,85.090514 L91.3286498,85.3320602 C92.1769281,85.6987831 92.8989833,85.8792969 93.4902344,85.8792969 C93.8890868,85.8792969 94.2044903,85.8022335 94.443077,85.6548265 C94.6386665,85.5339846 94.7132812,85.4175475 94.7132812,85.2773438 C94.7132812,85.1318027 94.4783375,84.9370632 93.8932513,84.7493285 L92.6579988,84.3453817 C91.5400484,83.9832925 90.9339844,83.291349 90.9339844,82.3125 C90.9339844,81.6089212 91.2108004,81.0403932 91.7522086,80.6470832 C92.2643762,80.2750153 92.9612867,80.0960937 93.8359375,80.0960937 C94.4667412,80.0960937 95.1897394,80.1918146 96.0066636,80.3818911 L96.3160156,80.453869 L96.3160156,82.2479181 L95.8001762,82.0918436 C95.0740773,81.8721522 94.4171611,81.7632813 93.8300781,81.7632813 C93.4757855,81.7632813 93.2090638,81.8235835 93.0263037,81.9340897 C92.8896638,82.0167091 92.8414063,82.0952679 92.8414063,82.2070312 C92.8414063,82.3082933 93.0024409,82.4528958 93.4346719,82.6028545 L94.8948468,83.1130382 C95.4840814,83.3210034 95.9214791,83.5771775 96.2053231,83.8944149 C96.5067319,84.2312835 96.6558594,84.6636279 96.6558594,85.171875 C96.6558594,85.9026702 96.3454817,86.5026523 95.7455416,86.9348926 C95.1749036,87.3460215 94.4278235,87.5464844 93.5136719,87.5464844 C92.7392718,87.5464844 91.9168637,87.404619 91.0466511,87.1227191 L90.7699219,87.0330744 L90.7699219,85.090514 Z M97.4085937,84.06875 L104.425391,84.06875 L104.425391,85.7359375 L97.4085937,85.7359375 L97.4085937,84.06875 Z M97.4085937,81.9007812 L104.425391,81.9007812 L104.425391,83.5679688 L97.4085937,83.5679688 L97.4085937,81.9007812 Z M105.544701,77.3480469 L107.868212,77.3480469 L107.501579,81.3296875 L105.904002,81.3296875 L105.544701,77.3480469 Z M108.432569,77.3480469 L110.75608,77.3480469 L110.39678,81.3296875 L108.799203,81.3296875 L108.432569,77.3480469 Z M114.386328,87.4 L112.432031,87.4 L112.432031,80.2367187 L114.386328,80.2367187 L114.386328,80.7295073 C114.882564,80.3107528 115.475245,80.0960937 116.154297,80.0960937 C117.598951,80.0960937 118.364844,81.0057458 118.364844,82.6464844 L118.364844,87.4 L116.410547,87.4 L116.410547,82.9628906 C116.410547,82.5444314 116.350203,82.2686831 116.257306,82.1428607 C116.186875,82.0474668 116.049001,81.9917969 115.802734,81.9917969 C115.396092,81.9917969 114.918295,82.3065617 114.386328,82.9768987 L114.386328,87.4 Z M122.611328,87.5464844 C121.569091,87.5464844 120.726702,87.2066125 120.113962,86.5265375 C119.509237,85.8553598 119.211328,84.9463557 119.211328,83.8183594 C119.211328,82.6939372 119.510492,81.7866202 120.117379,81.1155007 C120.73191,80.435928 121.573084,80.0960937 122.611328,80.0960937 C123.653565,80.0960937 124.495954,80.4359656 125.108695,81.1160407 C125.713336,81.7871264 126.011328,82.6942001 126.011328,83.8183594 C126.011328,84.9463557 125.713419,85.8553598 125.108695,86.5265375 C124.495954,87.2066125 123.653565,87.5464844 122.611328,87.5464844 Z M122.611328,85.8792969 C123.038825,85.8792969 123.351127,85.7231456 123.587607,85.3950304 C123.845452,85.03727 123.980859,84.5142585 123.980859,83.8183594 C123.980859,83.1264227 123.845535,82.6054233 123.587607,82.2475478 C123.351127,81.9194325 123.038825,81.7632813 122.611328,81.7632813 C122.183832,81.7632813 121.871529,81.9194325 121.63505,82.2475478 C121.377121,82.6054233 121.241797,83.1264227 121.241797,83.8183594 C121.241797,84.5142585 121.377204,85.03727 121.63505,85.3950304 C121.871529,85.7231456 122.183832,85.8792969 122.611328,85.8792969 Z M127.236107,77.3480469 L129.559618,77.3480469 L129.192985,81.3296875 L127.595408,81.3296875 L127.236107,77.3480469 Z M130.123975,77.3480469 L132.447487,77.3480469 L132.088186,81.3296875 L130.490609,81.3296875 L130.123975,77.3480469 Z M42.2617188,99.5113281 C41.5859746,99.5113281 41.0120178,99.3126058 40.5588508,98.9134432 C40.0954156,98.505236 39.8578125,97.9758612 39.8578125,97.3535156 C39.8578125,96.5585443 40.2180076,95.9053905 40.9102939,95.4300206 C41.5689094,94.9777713 42.4205834,94.75625 43.4570312,94.75625 L43.771875,94.75625 L43.771875,94.6113281 C43.771875,94.2608985 43.7040194,94.0426961 43.5959164,93.9388325 C43.483711,93.8310273 43.2500562,93.7632813 42.8828125,93.7632813 C42.2830403,93.7632813 41.65447,93.933741 40.9944135,94.2800001 L40.4085938,94.5873154 L40.4085938,92.6536592 L40.6740592,92.5588501 C41.5356633,92.2511344 42.3501433,92.0960937 43.1171875,92.0960937 C44.0191592,92.0960937 44.685734,92.2829626 45.1079268,92.6878727 C45.5344196,93.0969066 45.7320312,93.7509897 45.7320312,94.6347656 L45.7320312,97.3007812 C45.7320312,97.616804 45.763905,97.8194302 45.7993522,97.8793527 C45.8008483,97.881882 45.8211739,97.8910156 45.9179688,97.8910156 C45.9538108,97.8910156 46.0503574,97.8754436 46.1906446,97.8428187 L46.6115157,97.7449417 L46.8334446,99.1998087 L46.5097445,99.304439 C46.0866074,99.4412106 45.7579316,99.5113281 45.5078125,99.5113281 C44.9437995,99.5113281 44.5013248,99.279402 44.2096171,98.8451881 C43.5708785,99.2860669 42.9204366,99.5113281 42.2617188,99.5113281 Z M43.771875,96.2771156 C42.4205344,96.2852608 41.853125,96.5994368 41.853125,97.1601562 C41.853125,97.3603981 41.9107306,97.5010888 42.0291245,97.6103755 C42.1540203,97.7256639 42.3261838,97.7855469 42.5664062,97.7855469 C42.9272052,97.7855469 43.3291592,97.6249209 43.771875,97.2892526 L43.771875,96.2771156 Z M47.3871094,97.090514 L47.9458373,97.3320602 C48.7941156,97.6987831 49.5161708,97.8792969 50.1074219,97.8792969 C50.5062743,97.8792969 50.8216778,97.8022335 51.0602645,97.6548265 C51.255854,97.5339846 51.3304688,97.4175475 51.3304688,97.2773438 C51.3304688,97.1318027 51.095525,96.9370632 50.5104388,96.7493285 L49.2751863,96.3453817 C48.1572359,95.9832925 47.5511719,95.291349 47.5511719,94.3125 C47.5511719,93.6089212 47.8279879,93.0403932 48.3693961,92.6470832 C48.8815637,92.2750153 49.5784742,92.0960937 50.453125,92.0960937 C51.0839287,92.0960937 51.8069269,92.1918146 52.6238511,92.3818911 L52.9332031,92.453869 L52.9332031,94.2479181 L52.4173637,94.0918436 C51.6912648,93.8721522 51.0343486,93.7632813 50.4472656,93.7632813 C50.092973,93.7632813 49.8262513,93.8235835 49.6434912,93.9340897 C49.5068513,94.0167091 49.4585937,94.0952679 49.4585937,94.2070312 C49.4585937,94.3082933 49.6196284,94.4528958 50.0518594,94.6028545 L51.5120343,95.1130382 C52.1012689,95.3210034 52.5386666,95.5771775 52.8225106,95.8944149 C53.1239194,96.2312835 53.2730469,96.6636279 53.2730469,97.171875 C53.2730469,97.9026702 52.9626692,98.5026523 52.3627291,98.9348926 C51.7920911,99.3460215 51.045011,99.5464844 50.1308594,99.5464844 C49.3564593,99.5464844 48.5340512,99.404619 47.6638386,99.1227191 L47.3871094,99.0330744 L47.3871094,97.090514 Z M54.6175781,97.090514 L55.1763061,97.3320602 C56.0245844,97.6987831 56.7466396,97.8792969 57.3378906,97.8792969 C57.7367431,97.8792969 58.0521466,97.8022335 58.2907333,97.6548265 C58.4863227,97.5339846 58.5609375,97.4175475 58.5609375,97.2773438 C58.5609375,97.1318027 58.3259937,96.9370632 57.7409075,96.7493285 L56.5056551,96.3453817 C55.3877047,95.9832925 54.7816406,95.291349 54.7816406,94.3125 C54.7816406,93.6089212 55.0584566,93.0403932 55.5998649,92.6470832 C56.1120325,92.2750153 56.8089429,92.0960937 57.6835938,92.0960937 C58.3143974,92.0960937 59.0373956,92.1918146 59.8543198,92.3818911 L60.1636719,92.453869 L60.1636719,94.2479181 L59.6478324,94.0918436 C58.9217335,93.8721522 58.2648174,93.7632813 57.6777344,93.7632813 C57.3234417,93.7632813 57.0567201,93.8235835 56.8739599,93.9340897 C56.73732,94.0167091 56.6890625,94.0952679 56.6890625,94.2070312 C56.6890625,94.3082933 56.8500971,94.4528958 57.2823281,94.6028545 L58.742503,95.1130382 C59.3317377,95.3210034 59.7691354,95.5771775 60.0529793,95.8944149 C60.3543881,96.2312835 60.5035156,96.6636279 60.5035156,97.171875 C60.5035156,97.9026702 60.1931379,98.5026523 59.5931979,98.9348926 C59.0225598,99.3460215 58.2754798,99.5464844 57.3613281,99.5464844 C56.586928,99.5464844 55.76452,99.404619 54.8943073,99.1227191 L54.6175781,99.0330744 L54.6175781,97.090514 Z M63.6596317,96.5171875 C63.8396146,97.4509375 64.4375942,97.8792969 65.5410156,97.8792969 C66.1075776,97.8792969 66.7398288,97.7416147 67.4373812,97.4625937 L67.9859375,97.2431712 L67.9859375,99.0367957 L67.7118729,99.127705 C66.8725579,99.4061119 66.0963807,99.5464844 65.3828125,99.5464844 C64.1930119,99.5464844 63.2530423,99.2320694 62.5838189,98.5917494 C61.9108438,97.9478397 61.5785156,97.0380775 61.5785156,95.8886719 C61.5785156,94.8063103 61.8936939,93.8989458 62.5258773,93.1858255 C63.1667653,92.462886 63.9937356,92.0960937 64.9785156,92.0960937 C65.9718312,92.0960937 66.7364523,92.4074779 67.2349408,93.0393648 C67.7156119,93.6486662 67.9449219,94.5529872 67.9449219,95.7480469 L67.9449219,96.5171875 L63.6596317,96.5171875 Z M65.9070158,94.85 C65.8554739,94.0798311 65.5339924,93.7632813 64.8789062,93.7632813 C64.5325396,93.7632813 64.2694428,93.8800605 64.059405,94.1229614 C63.9014714,94.3056057 63.7847587,94.5468096 63.7122517,94.85 L65.9070158,94.85 Z M71.7417969,99.4 L69.7875,99.4 L69.7875,92.2367187 L71.7417969,92.2367187 L71.7417969,92.7801588 C72.2916463,92.3271487 72.9492095,92.0960937 73.703125,92.0960937 C74.0819778,92.0960937 74.5049313,92.1484395 74.9731249,92.2520221 L75.2867188,92.3214013 L75.2867188,94.8472656 L73.6195312,94.8472656 L73.6195312,93.9058872 C73.5958727,93.9045636 73.5729541,93.9039063 73.5507812,93.9039063 C73.1810877,93.9039063 72.8659285,93.9872607 72.5970005,94.1523919 C72.3348446,94.3133649 72.0477059,94.592599 71.7417969,94.9910873 L71.7417969,99.4 Z M79.5230469,96.9082031 C79.5230469,97.2313083 79.5425581,97.4484765 79.5704424,97.5333418 C79.5861142,97.5810385 79.6266208,97.6309558 79.7012155,97.6820521 C79.8918861,97.8082312 80.2045751,97.8792969 80.640625,97.8792969 C81.0906685,97.8792969 81.5369745,97.8280814 81.9801335,97.7255322 L82.4703125,97.6121024 L82.4703125,99.3299958 L82.1395229,99.3881075 C81.5390107,99.4936029 80.9573146,99.5464844 80.3945312,99.5464844 C79.3574543,99.5464844 78.622458,99.3526515 78.1906298,98.9233051 C77.7580766,98.4932378 77.5628906,97.7584861 77.5628906,96.7207031 L77.5628906,94.0503906 L75.975,94.0503906 L75.975,92.3832031 L77.5628906,92.3832031 L77.5628906,91.0121094 L79.5230469,91.0121094 L79.5230469,92.3832031 L82.3414063,92.3832031 L82.3414063,94.0503906 L79.5230469,94.0503906 L79.5230469,96.9082031 Z M92.2354264,99.4703125 L90.6878906,99.4703125 L90.6878906,89.3480469 L92.6421875,89.3480469 L92.6421875,92.7358414 C93.1303508,92.3135159 93.6926816,92.0960937 94.3222656,92.0960937 C95.1696419,92.0960937 95.8582592,92.4327248 96.3506777,93.0915947 C96.8234766,93.7242129 97.0542969,94.5662193 97.0542969,95.6074219 C97.0542969,96.7439569 96.7838789,97.6818353 96.235326,98.4088855 C95.6681009,99.1606838 94.9057405,99.5464844 93.9824219,99.5464844 C93.3920628,99.5464844 92.8630643,99.3616814 92.4059351,99.0005437 L92.2354264,99.4703125 Z M93.8242188,97.8792969 C94.1924534,97.8792969 94.4585611,97.7280843 94.6656003,97.3965321 C94.900083,97.0210317 95.0238281,96.4663421 95.0238281,95.7304688 C95.0238281,94.4225391 94.7005622,93.8804688 94.0820312,93.8804688 C93.6027559,93.8804688 93.1235772,94.1825456 92.6421875,94.8289474 L92.6421875,97.2513892 C93.0673369,97.6784997 93.4614478,97.8792969 93.8242188,97.8792969 Z M97.4085937,96.06875 L104.425391,96.06875 L104.425391,97.7359375 L97.4085937,97.7359375 L97.4085937,96.06875 Z M97.4085937,93.9007812 L104.425391,93.9007812 L104.425391,95.5679688 L97.4085937,95.5679688 L97.4085937,93.9007812 Z M108.444922,96.9082031 C108.444922,97.2313083 108.464433,97.4484765 108.492317,97.5333418 C108.507989,97.5810385 108.548496,97.6309558 108.623091,97.6820521 C108.813761,97.8082312 109.12645,97.8792969 109.5625,97.8792969 C110.012544,97.8792969 110.45885,97.8280814 110.902008,97.7255322 L111.392188,97.6121024 L111.392188,99.3299958 L111.061398,99.3881075 C110.460886,99.4936029 109.87919,99.5464844 109.316406,99.5464844 C108.279329,99.5464844 107.544333,99.3526515 107.112505,98.9233051 C106.679952,98.4932378 106.484766,97.7584861 106.484766,96.7207031 L106.484766,94.0503906 L104.896875,94.0503906 L104.896875,92.3832031 L106.484766,92.3832031 L106.484766,91.0121094 L108.444922,91.0121094 L108.444922,92.3832031 L111.263281,92.3832031 L111.263281,94.0503906 L108.444922,94.0503906 L108.444922,96.9082031 Z M115.124609,99.4 L113.170312,99.4 L113.170312,92.2367187 L115.124609,92.2367187 L115.124609,92.7801588 C115.674459,92.3271487 116.332022,92.0960937 117.085938,92.0960937 C117.46479,92.0960937 117.887744,92.1484395 118.355937,92.2520221 L118.669531,92.3214013 L118.669531,94.8472656 L117.002344,94.8472656 L117.002344,93.9058872 C116.978685,93.9045636 116.955767,93.9039063 116.933594,93.9039063 C116.5639,93.9039063 116.248741,93.9872607 115.979813,94.1523919 C115.717657,94.3133649 115.430518,94.592599 115.124609,94.9910873 L115.124609,99.4 Z M123.605859,96.6603421 L123.605859,92.2367187 L125.560156,92.2367187 L125.560156,99.4 L123.605859,99.4 L123.605859,98.9100466 C123.108577,99.3308014 122.513916,99.5464844 121.832031,99.5464844 C120.390664,99.5464844 119.627344,98.6344659 119.627344,96.9902344 L119.627344,92.2367187 L121.581641,92.2367187 L121.581641,96.6738281 C121.581641,97.0969046 121.641544,97.3756835 121.733389,97.5016769 C121.801563,97.595197 121.939744,97.6507812 122.189453,97.6507812 C122.595718,97.6507812 123.073645,97.3343451 123.605859,96.6603421 Z M130.615234,97.8792969 C131.181796,97.8792969 131.814048,97.7416147 132.5116,97.4625937 L133.060156,97.2431712 L133.060156,99.0367957 L132.786092,99.127705 C131.946777,99.4061119 131.170599,99.5464844 130.457031,99.5464844 C129.267231,99.5464844 128.327261,99.2320694 127.658038,98.5917494 C126.985063,97.9478397 126.652734,97.0380775 126.652734,95.8886719 C126.652734,94.8063103 126.967913,93.8989458 127.600096,93.1858255 C128.240984,92.462886 129.067954,92.0960937 130.052734,92.0960937 C131.04605,92.0960937 131.810671,92.4074779 132.30916,93.0393648 C132.789831,93.6486662 133.019141,94.5529872 133.019141,95.7480469 L133.019141,96.5171875 L128.73385,96.5171875 C128.913833,97.4509375 129.511813,97.8792969 130.615234,97.8792969 Z M127.879824,95.65 L127.920045,95.2133132 C127.981877,94.5419977 128.181715,94.000722 128.528486,93.5996949 C128.892669,93.1785299 129.377612,92.9632812 129.953125,92.9632812 C131.14885,92.9632812 131.788672,93.7310676 131.788672,95.0859375 L131.788672,95.65 L127.879824,95.65 Z M130.981235,94.85 C130.929693,94.0798311 130.608211,93.7632813 129.953125,93.7632813 C129.606758,93.7632813 129.343662,93.8800605 129.133624,94.1229614 C128.97569,94.3056057 128.858977,94.5468096 128.78647,94.85 L130.981235,94.85 Z M27.6175781,105.597656 C27.6175781,105.396202 27.6432461,105.150217 27.6932566,104.858529 L27.8282808,104.042532 C27.8639232,103.832242 27.88125,103.672835 27.88125,103.570312 C27.88125,103.351333 27.8261599,103.238018 27.7167476,103.173082 C27.552722,103.075733 27.2038172,103.015234 26.6875,103.015234 L25.8304688,103.015234 L25.8304688,101.348047 L26.8632812,101.348047 C27.7379389,101.348047 28.4256307,101.510632 28.9233582,101.851668 C29.4563304,102.216852 29.7300781,102.759278 29.7300781,103.435547 C29.7300781,103.696186 29.7002261,103.984045 29.641345,104.299477 L29.4469198,105.347978 C29.4207784,105.478685 29.4078125,105.606723 29.4078125,105.732422 C29.4078125,106.206027 29.6520675,106.404687 30.3261719,106.404687 L31.259375,106.404687 L31.259375,108.071875 L30.3261719,108.071875 C29.652424,108.071875 29.4078125,108.271913 29.4078125,108.75 C29.4078125,108.875699 29.4207784,109.003737 29.4479856,109.139976 L29.641075,110.181503 C29.7001842,110.493937 29.7300781,110.7822 29.7300781,111.046875 C29.7300781,112.43216 28.7035769,113.134375 26.8632812,113.134375 L25.8304688,113.134375 L25.8304688,111.467187 L26.6875,111.467187 C27.2072001,111.467187 27.5569991,111.406677 27.7184437,111.310075 C27.8264062,111.245475 27.88125,111.131741 27.88125,110.912109 C27.88125,110.80927 27.8638516,110.647465 27.8280987,110.432947 L27.6936417,109.626179 C27.6432388,109.332163 27.6175781,109.084109 27.6175781,108.878906 C27.6175781,108.171319 27.8595838,107.615279 28.3259132,107.239535 C27.8595398,106.864819 27.6175781,106.30779 27.6175781,105.597656 Z" id="all-{-assert-i=2-ass" fill="#FFFFFF" fill-rule="nonzero"></path>
                </g>
            </g>
        </g>
    </g>
</svg>