<?xml version="1.0" encoding="UTF-8"?>
<svg width="160px" height="160px" viewBox="0 0 160 160" version="1.1" xmlns="http://www.w3.org/2000/svg" xmlns:xlink="http://www.w3.org/1999/xlink">
    <!-- Generator: sketchtool 51.2 (57519) - http://www.bohemiancoding.com/sketch -->
    <title>55126711-4B3F-4842-9E2E-D5A029DB1CB5</title>
    <desc>Created with sketchtool.</desc>
    <defs></defs>
    <g id="Product" stroke="none" stroke-width="1" fill="none" fill-rule="evenodd">
        <g id="Desktop-HD-1440-grid-product" transform="translate(-190.000000, -1033.000000)">
            <g id="a/icon_5" transform="translate(190.000000, 1033.000000)">
                <rect id="Rectangle-Copy-29" fill="#FFFFFF" fill-rule="evenodd" x="0" y="0" width="160" height="160" rx="80"></rect>
                <rect id="Rectangle-Copy-9" fill="#F8F8F8" fill-rule="evenodd" x="0" y="0" width="80" height="80" rx="40"></rect>
                <path d="M76.0071979,34.170883 C76.0024317,34.1145547 76,34.0575613 76,34 L76,30 L72,30 C70.8954305,30 70,29.1045695 70,28 L70,24 C70,22.8954305 70.8954305,22 72,22 L88,22 C89.1045695,22 90,22.8954305 90,24 L90,28 C90,29.1045695 89.1045695,30 88,30 L84,30 L84,34 C84,34.0575613 83.9975683,34.1145547 83.9928021,34.170883 C107.528359,36.194489 126,55.940103 126,80 C126,105.405098 105.405098,126 80,126 C54.5949015,126 34,105.405098 34,80 C34,55.940103 52.471641,36.194489 76.0071979,34.170883 Z M80,118 C100.98682,118 118,100.98682 118,80 C118,59.0131795 100.98682,42 80,42 C59.0131795,42 42,59.0131795 42,80 C42,100.98682 59.0131795,118 80,118 Z" id="Combined-Shape" fill="#29282B" fill-rule="nonzero"></path>
                <path d="M80,48 L80,80 L112,80 C112,97.673112 97.673112,112 80,112 C62.326888,112 48,97.673112 48,80 C48,62.326888 62.326888,48 80,48 Z" id="Combined-Shape" fill="#AE8FFF" fill-rule="nonzero"></path>
            </g>
        </g>
    </g>
</svg>