<?xml version="1.0" encoding="UTF-8"?>
<svg width="160px" height="160px" viewBox="0 0 160 160" version="1.1" xmlns="http://www.w3.org/2000/svg" xmlns:xlink="http://www.w3.org/1999/xlink">
    <!-- Generator: sketchtool 51.2 (57519) - http://www.bohemiancoding.com/sketch -->
    <title>6354A19A-921E-4AAC-AB6D-6B1850265952</title>
    <desc>Created with sketchtool.</desc>
    <defs></defs>
    <g id="Product" stroke="none" stroke-width="1" fill="none" fill-rule="evenodd">
        <g id="Desktop-HD-1440-grid-product" transform="translate(-1091.000000, -1347.000000)">
            <g id="a/icon_6-copy" transform="translate(1091.000000, 1347.000000)">
                <g id="a/icon_6">
                    <rect id="Rectangle-Copy-22" fill="#FFFFFF" x="0" y="0" width="160" height="160" rx="80"></rect>
                    <rect id="Rectangle-Copy-9" fill="#F8F8F8" x="40" y="40" width="80" height="80" rx="40"></rect>
                    <g id="Group" transform="translate(18.000000, 11.000000)">
                        <path d="M64.4734773,120.047863 C58.0939461,104.943162 65.1674532,87.5268907 80.2721542,81.1486212 C95.3768552,74.76909 112.793127,81.8425972 119.171396,96.9472981 C125.550927,112.051999 118.47742,129.467009 103.372719,135.84654 C88.2680184,142.226071 70.8530085,135.152564 64.4734773,120.047863" id="Fill-1" fill="#AE8FFF"></path>
                        <circle id="Oval" fill="#29282B" fill-rule="nonzero" cx="92" cy="108" r="30"></circle>
                        <path d="M77,106 L77,97 L89,95.4 L89,106 L77,106 Z M77,110 L89,110 L89,120.6 L77,119 L77,110 Z M107,106 L93,106 L93,94.8666667 L107,93 L107,106 Z M107,110 L107,123 L93,121.133333 L93,110 L107,110 Z" id="Combined-Shape" fill="#FFFFFF" fill-rule="nonzero"></path>
                        <g id="MacOS_logo" transform="translate(0.000000, 69.000000)" fill="#29282B" fill-rule="nonzero">
                            <path d="M28.6200482,17.2514699 L28.6200482,16.8229398 L27.2880964,16.9144096 C26.9109398,16.9382169 26.627759,17.0184096 26.4373012,17.1537349 C26.2468434,17.2903133 26.1516145,17.4795181 26.1516145,17.7213494 C26.1516145,17.9569157 26.2455904,18.1448675 26.4347952,18.2839518 C26.622747,18.4242892 26.8758554,18.4932048 27.1916145,18.4932048 C27.3933494,18.4932048 27.5825542,18.4618795 27.7567229,18.4004819 C27.9308916,18.3390843 28.083759,18.2526265 28.2115663,18.1423614 C28.3393735,18.0333494 28.4396145,17.9030361 28.5110361,17.7514217 C28.5837108,17.5998072 28.6200482,17.4331566 28.6200482,17.2514699 Z M26,0 C11.4913735,0 0,11.4913735 0,26 C0,40.5098795 11.4913735,52 26,52 C40.5086265,52 52,40.5098795 52,26 C52,11.4913735 40.5098795,0 26,0 Z M31.0471325,15.4107952 C31.1699277,15.0662169 31.3428434,14.770506 31.5671325,14.5249157 C31.7914217,14.2793253 32.0608193,14.0901205 32.3765783,13.9573012 C32.6923373,13.8244819 33.0444337,13.7580723 33.4316145,13.7580723 C33.7812048,13.7580723 34.0969639,13.8106988 34.3776386,13.9146988 C34.6595663,14.0186988 34.9001446,14.1590361 35.1018795,14.3357108 C35.3036145,14.5123855 35.464,14.7178795 35.5817831,14.9534458 C35.6995663,15.189012 35.7697349,15.4383614 35.7935422,15.700241 L34.7497831,15.700241 C34.7234699,15.5561446 34.6758554,15.4208193 34.6081928,15.2967711 C34.5405301,15.1727229 34.4515663,15.0649639 34.3413012,14.973494 C34.2297831,14.8820241 34.0994699,14.8106024 33.9503614,14.7592289 C33.8,14.7066024 33.6320964,14.6815422 33.4428916,14.6815422 C33.2211084,14.6815422 33.0193735,14.7266506 32.8401928,14.8156145 C32.659759,14.9045783 32.5056386,15.0311325 32.3778313,15.1940241 C32.2500241,15.3569157 32.1510361,15.5561446 32.0808675,15.7892048 C32.0094458,16.0235181 31.9743614,16.2828916 31.9743614,16.5685783 C31.9743614,16.8642892 32.0094458,17.1299277 32.0808675,17.362988 C32.1510361,17.5973012 32.2512771,17.7940241 32.3815904,17.9556627 C32.5106506,18.1173012 32.6672771,18.2413494 32.8489639,18.3265542 C33.0306506,18.411759 33.2311325,18.4556145 33.4491566,18.4556145 C33.8062651,18.4556145 34.0969639,18.3716627 34.322506,18.203759 C34.5480482,18.0358554 34.6933976,17.7902651 34.7610602,17.466988 L35.8060723,17.466988 C35.776,17.7526747 35.6970602,18.0133012 35.569253,18.2488675 C35.4414458,18.4844337 35.2760482,18.6849157 35.0730602,18.8515663 C34.8688193,19.0182169 34.629494,19.1472771 34.3538313,19.237494 C34.0781687,19.3277108 33.7749398,19.3740723 33.4453976,19.3740723 C33.0544578,19.3740723 32.7023614,19.3089157 32.3853494,19.1798554 C32.0695904,19.0507952 31.7976867,18.8640964 31.5721446,18.6222651 C31.3466024,18.3804337 31.1724337,18.0859759 31.0496386,17.7388916 C30.9268434,17.3918072 30.8654458,17.0021205 30.8654458,16.5673253 C30.8629398,16.1425542 30.9243373,15.7566265 31.0471325,15.4107952 Z M16.1951807,13.829494 L17.2401928,13.829494 L17.2401928,14.7579759 L17.260241,14.7579759 C17.3241446,14.6038554 17.4080964,14.4647711 17.5108434,14.3444819 C17.6135904,14.2229398 17.7313735,14.1201928 17.8666988,14.0337349 C18.0007711,13.9472771 18.1498795,13.8821205 18.3102651,13.837012 C18.4719036,13.7919036 18.6423133,13.7693494 18.820241,13.7693494 C19.2036627,13.7693494 19.5281928,13.8608193 19.7913253,14.043759 C20.0557108,14.2266988 20.2436627,14.4898313 20.3539277,14.8331566 L20.380241,14.8331566 C20.4504096,14.667759 20.5431325,14.5199036 20.6571566,14.3895904 C20.7711807,14.2592771 20.902747,14.146506 21.0506024,14.0537831 C21.1984578,13.9610602 21.3613494,13.8908916 21.5380241,13.8420241 C21.7146988,13.7931566 21.9001446,13.7693494 22.0956145,13.7693494 C22.365012,13.7693494 22.6093494,13.8119518 22.8298795,13.8984096 C23.0504096,13.9848675 23.2383614,14.1051566 23.394988,14.2617831 C23.5516145,14.4184096 23.6719036,14.6088675 23.7558554,14.8319036 C23.8398072,15.0549398 23.8824096,15.3030361 23.8824096,15.5761928 L23.8824096,19.3114217 L22.7922892,19.3114217 L22.7922892,15.8380723 C22.7922892,15.4784578 22.6995663,15.1990361 22.5141205,15.0023133 C22.3299277,14.8055904 22.0655422,14.7066024 21.7222169,14.7066024 C21.5543133,14.7066024 21.4001928,14.7366747 21.2598554,14.7955663 C21.1207711,14.8544578 20.9992289,14.9371566 20.898988,15.0436627 C20.797494,15.1489157 20.7185542,15.2767229 20.6621687,15.4245783 C20.6045301,15.5724337 20.5757108,15.7340723 20.5757108,15.909494 L20.5757108,19.3114217 L19.5006265,19.3114217 L19.5006265,15.7478554 C19.5006265,15.5899759 19.4755663,15.4471325 19.4266988,15.3193253 C19.3778313,15.1915181 19.3089157,15.082506 19.2174458,14.9910361 C19.1272289,14.8995663 19.0157108,14.8306506 18.8866506,14.7817831 C18.7563373,14.7329157 18.610988,14.7078554 18.4493494,14.7078554 C18.2814458,14.7078554 18.1260723,14.7391807 17.9819759,14.8018313 C17.8391325,14.8644819 17.7163373,14.9509398 17.6135904,15.0612048 C17.5108434,15.1727229 17.4306506,15.3030361 17.3742651,15.4546506 C17.3191325,15.605012 17.2289157,15.7704096 17.2289157,15.9483373 L17.2289157,19.3101687 L16.1951807,19.3101687 L16.1951807,13.829494 Z M18.5671325,40.0663133 C13.7743614,40.0663133 10.7683855,36.7358072 10.7683855,31.4205301 C10.7683855,26.105253 13.7743614,22.7634699 18.5671325,22.7634699 C23.3599036,22.7634699 26.3546024,26.105253 26.3546024,31.4205301 C26.3546024,36.7345542 23.3599036,40.0663133 18.5671325,40.0663133 Z M27.4409639,19.2976386 C27.2642892,19.342747 27.0838554,19.3653012 26.8984096,19.3653012 C26.625253,19.3653012 26.3759036,19.3264578 26.1491084,19.2487711 C25.9210602,19.1710843 25.7268434,19.0620723 25.5639518,18.9204819 C25.4010602,18.7788916 25.273253,18.6084819 25.1830361,18.408 C25.0915663,18.2075181 25.0464578,17.9844819 25.0464578,17.7388916 C25.0464578,17.2577349 25.2256386,16.8818313 25.584,16.6111807 C25.9423614,16.3405301 26.4611084,16.1826506 27.141494,16.1387952 L28.6200482,16.0535904 L28.6200482,15.6300723 C28.6200482,15.3143133 28.5198072,15.0724819 28.3193253,14.9083373 C28.1188434,14.7441928 27.8356627,14.661494 27.4685301,14.661494 C27.3206747,14.661494 27.1815904,14.6802892 27.0537831,14.7166265 C26.9259759,14.7542169 26.8132048,14.8068434 26.7154699,14.875759 C26.6177349,14.9446747 26.5362892,15.0273735 26.4736386,15.1238554 C26.4097349,15.2190843 26.3658795,15.3268434 26.3420723,15.4446265 L25.3171084,15.4446265 C25.3233735,15.2027952 25.3835181,14.978506 25.4962892,14.773012 C25.6090602,14.5675181 25.7619277,14.3895904 25.9561446,14.2379759 C26.1503614,14.0863614 26.3771566,13.9685783 26.6402892,13.8846265 C26.9034217,13.8006747 27.1891084,13.7580723 27.4986024,13.7580723 C27.8319036,13.7580723 28.1338795,13.7994217 28.4045301,13.8846265 C28.6751807,13.9698313 28.906988,14.0888675 29.0986988,14.245494 C29.2904096,14.4021205 29.4382651,14.5900723 29.5422651,14.8106024 C29.6462651,15.0311325 29.6988916,15.2779759 29.6988916,15.5498795 L29.6988916,19.3101687 L28.6551325,19.3101687 L28.6551325,18.3967229 L28.6288193,18.3967229 C28.5511325,18.5445783 28.4533976,18.6786506 28.3343614,18.7976867 C28.2140723,18.9167229 28.08,19.0194699 27.9308916,19.1034217 C27.7805301,19.1873735 27.6176386,19.2525301 27.4409639,19.2976386 Z M34.3362892,40.0663133 C30.681253,40.0663133 28.1965301,38.1517108 28.0236145,35.1457349 L30.4030843,35.1457349 C30.5885301,36.8636145 32.2487711,38.0013494 34.522988,38.0013494 C36.7044819,38.0013494 38.272,36.8636145 38.272,35.3086265 C38.272,33.9628916 37.3197108,33.1496867 35.1156627,32.5933494 L32.968,32.0595663 C29.8805783,31.2939759 28.4772048,29.8893494 28.4772048,27.5800482 C28.4772048,24.7369639 30.9606747,22.7634699 34.5004337,22.7634699 C37.958747,22.7634699 40.3720482,24.748241 40.4647711,27.6026024 L38.1091084,27.6026024 C37.9462169,25.8847229 36.5428434,24.8284337 34.4528193,24.8284337 C32.3753253,24.8284337 30.9368675,25.896 30.9368675,27.4397108 C30.9368675,28.6576386 31.8415422,29.3781205 34.0468434,29.9344578 L35.8574458,30.3867952 C39.3044819,31.2225542 40.7203855,32.5808193 40.7203855,35.0179277 C40.7191325,38.1279036 38.2594699,40.0663133 34.3362892,40.0663133 Z M18.5671325,24.8973494 C15.282988,24.8973494 13.2293012,27.4159036 13.2293012,31.4192771 C13.2293012,35.4113735 15.282988,37.9299277 18.5671325,37.9299277 C21.84,37.9299277 23.9049639,35.4113735 23.9049639,31.4192771 C23.9062169,27.4159036 21.84,24.8973494 18.5671325,24.8973494 Z" id="Shape"></path>
                        </g>
                        <path d="M88.5715807,66.8330697 C71.5424851,77.0899336 49.4227532,71.6002747 39.1671284,54.5711791 C28.9090253,37.5420835 34.3999235,15.4235907 51.4277799,5.16672681 C68.4568755,-5.09013712 90.5766074,0.39952184 100.833471,17.4286174 C111.090335,34.4564738 105.600676,56.5762058 88.5715807,66.8330697" id="Fill-6" fill="#AE8FFF"></path>
                        <g id="8bb9f327cc52b2cb3977bda2f5598b70" transform="translate(48.710843, 9.566265)" fill="#29282B" fill-rule="nonzero">
                            <path d="M41.2187152,40.4051022 C39.9155828,39.8700864 38.8438948,39.0400618 38.9193658,37.4300142 C38.9948368,35.8299669 37.7671754,34.7699356 37.7671754,34.7699356 C37.7671754,34.7699356 38.8438948,31.2648319 37.8426464,28.3697463 C36.8464293,25.4696605 33.5508628,20.8295233 31.020069,17.3244196 C28.499338,13.819316 30.6427141,9.78419666 28.3433647,4.60404347 C26.0389838,-0.566109426 20.0616816,-0.266100554 16.8415861,1.9439648 C13.6164592,4.14903001 14.6126762,9.63419222 14.7686496,12.229269 C14.9195916,14.8143454 14.8390892,16.6594 14.5422366,17.3294198 C14.2353213,17.9994396 12.1674162,20.4545122 10.7888128,22.509573 C9.41020944,24.5646338 8.41399239,28.8297599 7.41274395,30.5798116 C6.41652691,32.3348635 7.1058286,33.9299107 7.1058286,33.9299107 C7.1058286,33.9299107 6.41652691,34.1549174 5.87816719,35.3049514 C5.33980747,36.4399849 4.27315084,36.9750008 2.35618774,37.3500119 C0.439224644,37.7300231 0.439224644,38.9550593 0.897081972,40.3301 C1.3599707,41.6951404 0.897081972,42.4651631 0.358722257,44.2152149 C-0.179637459,45.9652666 2.50209832,46.5002825 5.10836311,46.8002913 C7.7146279,47.1103005 10.627808,48.78535 13.0831309,49.0853589 C15.5334223,49.3903679 16.3032264,47.4103094 16.3032264,47.4103094 C16.3032264,47.4103094 19.0604331,46.8002913 21.9685819,46.7252891 C24.881762,46.6452867 27.6339374,47.330307 27.6339374,47.330307 C27.6339374,47.330307 28.1722971,48.5503431 29.1685141,49.0803588 C30.1697626,49.6153746 32.3131386,49.6903768 33.691742,48.2453341 C35.0703454,46.7952912 38.7533296,44.9702372 40.8162033,43.8302035 C42.904234,42.6801695 42.5218476,40.9301177 41.2187152,40.4051022 Z M23.2817771,6.81410883 C24.6000037,6.81410883 25.6565975,8.10914712 25.6565975,9.70419429 C25.6565975,10.8392279 25.1232692,11.8142567 24.3434023,12.2892707 C24.1471777,12.1992681 23.9408904,12.1192657 23.7195088,12.0192628 C24.1874289,11.789256 24.5195013,11.1942384 24.5195013,10.504218 C24.5195013,9.60419134 23.9559846,8.87416975 23.2666829,8.87416975 C22.5824126,8.87416975 22.0188959,9.60919148 22.0188959,10.504218 C22.0188959,10.8392279 22.0993982,11.1542372 22.235246,11.419245 C21.8277027,11.2592403 21.4503477,11.1042357 21.1534952,10.9992326 C20.9975218,10.6142212 20.9019252,10.169208 20.9019252,9.69919415 C20.9069566,8.10914712 21.9685819,6.81410883 23.2817771,6.81410883 Z M23.1107095,12.9142892 C23.7647914,13.1392959 24.4993757,13.5643084 24.4239047,13.9843209 C24.3434023,14.4043333 24.0012671,14.4043333 23.1107095,14.9493494 C22.2201518,15.4843652 20.2931259,16.6744004 19.6742638,16.7494026 C19.0554017,16.829405 18.7082352,16.4793947 18.0541533,16.0593822 C17.4000714,15.6393698 16.1623472,14.6343401 16.4742939,14.0993243 C16.4742939,14.0993243 17.4352912,13.3643025 17.8579287,12.9842913 C18.2805662,12.5992799 19.3673485,11.6792527 20.0214304,11.7992563 C20.6755123,11.9092595 22.4566276,12.6842824 23.1107095,12.9142892 Z M17.1887526,7.27412243 C18.2252209,7.27412243 19.0654645,8.49915866 19.0654645,10.0142035 C19.0654645,10.2942117 19.0352761,10.5492193 18.9849621,10.7992267 C18.7333922,10.8892293 18.4767908,11.0242333 18.2252209,11.2292394 C18.0994359,11.3342425 17.9887451,11.4292453 17.8780543,11.5242481 C18.0390591,11.2192391 18.1094987,10.7842262 18.0340277,10.3242126 C17.8981799,9.49418808 17.3396946,8.89417034 16.7912721,8.984173 C16.2428496,9.07917581 15.9158086,9.81919769 16.0516564,10.6542224 C16.1925356,11.4892471 16.7459895,12.0892648 17.294412,11.994262 C17.3246004,11.9892619 17.3547888,11.9792616 17.3900086,11.9692613 C17.1233444,12.2242688 16.8768059,12.4442753 16.6252359,12.6292808 C15.8654946,12.2792704 15.3070093,11.2392397 15.3070093,10.0092033 C15.3170721,8.49915866 16.1522844,7.27412243 17.1887526,7.27412243 Z M15.1661301,45.7552604 C14.9195916,46.8452927 13.6315534,47.6403162 13.6315534,47.6403162 C12.4642688,48.0003268 9.21901627,46.6052856 7.7548791,45.9952675 C6.28571053,45.3902496 2.55241231,45.200244 2.05933519,44.660228 C1.57128947,44.1052116 2.30587375,42.8901757 2.49203552,41.7401417 C2.67316589,40.5801074 2.12977478,39.8550859 2.30587375,39.0600624 C2.49203552,38.2700391 4.87691875,38.2700391 5.7926334,37.7250229 C6.71337946,37.1750067 6.89450983,35.59496 7.62909412,35.1699474 C8.3636784,34.7399347 9.70706199,36.2599796 10.2605159,37.1200051 C10.8139698,37.96503 12.8919377,41.6201381 13.7472756,42.530165 C14.6177076,43.440192 15.4076373,44.6652282 15.1661301,45.7552604 Z M28.7207196,35.1449466 C28.499338,36.2199784 28.499338,40.095093 28.499338,40.095093 C28.499338,40.095093 26.1245176,43.3651897 22.4415334,43.9002056 C18.7635806,44.4352214 16.9220885,44.05021 16.9220885,44.05021 L14.8541834,41.6901402 C14.8541834,41.6901402 16.4591997,41.4601334 16.2327868,39.8600861 C16.0013424,38.2650389 11.3271725,36.0499734 10.4869289,34.0699149 C9.6466852,32.0898563 10.3359869,28.7347571 11.4076749,27.0597075 C12.479363,25.384658 13.1686646,21.7295499 14.2403527,20.5095138 C15.3170721,19.2944779 16.1522844,16.7044013 15.7749294,15.5643676 C15.7749294,15.5643676 18.0742789,18.3094488 19.6843266,17.8494352 C21.289343,17.3894216 24.8968562,14.7243428 25.4301845,15.1843564 C25.9685442,15.64437 30.5672431,25.6946672 31.020069,28.8947618 C31.4829578,32.0948564 30.7131537,34.5249283 30.7131537,34.5249283 C30.7131537,34.5249283 28.9471326,34.074915 28.7207196,35.1449466 Z M40.484131,42.3201588 C39.7696723,42.9701781 35.7848041,44.5752255 34.5923625,45.8152622 C33.4049523,47.0552989 31.8502499,48.0603286 30.8993155,47.7653199 C29.9433496,47.465311 29.1081373,46.1702727 29.5307749,44.2702165 C29.9433496,42.3801606 30.3056104,40.3100994 30.2452336,39.1250643 C30.1848568,37.9400293 29.9433496,36.339982 30.2452336,36.104975 C30.5420861,35.8749682 31.0150376,35.9899716 31.0150376,35.9899716 C31.0150376,35.9899716 30.7835933,38.235038 32.1471025,38.8300556 C33.5106117,39.4200731 35.4778887,38.5950487 36.0766252,37.9950309 C36.6753618,37.4050135 37.0929679,36.5199873 37.0929679,36.5199873 C37.0929679,36.5199873 37.686673,36.8199962 37.6313276,37.7650241 C37.5709508,38.7100521 38.0439023,40.0750924 38.9445228,40.5451063 C39.8250177,41.0151202 41.1985896,41.6651395 40.484131,42.3201588 Z" id="Shape"></path>
                        </g>
                    </g>
                </g>
            </g>
        </g>
    </g>
</svg>