<svg xmlns="http://www.w3.org/2000/svg" width="160" height="160" viewBox="0 0 160 160">
    <g fill="none" fill-rule="evenodd">
        <rect width="160" height="160" fill="#FFF" rx="80"/>
        <rect width="80" height="80" x="60" y="50" fill="#F8F8F8" rx="40"/>
        <path fill="#29282B" d="M76.97 91.5c8.899-.683 14.355-4.599 16.369-11.745 3.578-12.698 2.588-16.187 2.588-16.187h15.915c5.303 0-2.225 4.33-6.013 5.342-2.988.8-2.66 15.707-8.835 23.457 3.933.006 8.302.057 13.13.295 23.65 1.164 25.42 18.867 14.62 31.81-10.799 12.943-40.016 14.733-60.55 6.39a49.517 49.517 0 0 1-2.318-1.011c-9.805-1.404-36.218 2.162-40.888-2.044-3.248-2.925 1.513-12.256 14.285-27.991-.811-2.679-1.212-5.124-1.212-7.154 0-.18.01-.357.03-.533A16.067 16.067 0 0 1 34 90.417c0-4.122 1.572-7.905 4.192-10.86-2.023.071-4.204.603-4.192.542 1.481-2.24 5.101-3.096 7.422-3.402.332-.23.672-.45 1.02-.659-2.344-.493-5.976 1.523-3.496-.354 1.575-1.19 3.762-1.567 6.563-1.129 2.15-.81 4.5-1.258 6.964-1.258 9.407 0 17.172 6.517 18.325 14.945 1.509 1.662 3.55 2.66 6.172 3.258zm-38.06 16.783c-1.743 4.051-6.116 9.806-5.184 11.253.54.838 6.643.288 13.18-.437a52.142 52.142 0 0 1-7.996-10.816z"/>
        <ellipse cx="53.767" cy="91.793" fill="#FFF" rx="15.615" ry="14.054" transform="rotate(-9 53.767 91.793)"/>
        <path fill="#29282B" d="M50.476 91.159a4.326 4.326 0 0 1-.322-1.645 4.316 4.316 0 0 1 4.308-4.325 4.3 4.3 0 0 1 3.588 1.93c1.489-.605 2.648-.944 3.008-.825 1.28.425 1.614 6.822-1.321 8.597-2.936 1.775-12.116 1.43-11.725-1.111.11-.714 1.087-1.652 2.464-2.621zm-11.644 7.003c-1.678-3.469-2.037-6.232-1.077-8.289 1.44-3.085 7.993-2.846 9.548-1.869 1.554.977.63 2.125-3.995 3.168-3.083.694-4.575 3.025-4.476 6.99zM57.21 83.027c-1.02-.032-.728-.944.876-2.734 2.406-2.686 6.693-1.296 7.64-.659.948.638 1.992 3.378-.803 2.461-1.863-.61-4.434-.3-7.713.932z"/>
        <path fill="#8D6CE3" d="M83.23 16h16.262a3 3 0 0 1 3 3v2.714h24.431a4 4 0 0 1 4 4V58a6 6 0 0 1-6 6H85.231a6 6 0 0 1-6-6V20a4 4 0 0 1 4-4z"/>
        <rect width="51.692" height="35.027" x="79.231" y="28.973" fill="#AE8FFF" rx="6"/>
    </g>
</svg>
