<svg xmlns="http://www.w3.org/2000/svg" width="140" height="40">
  <g fill="none" fill-rule="nonzero">
    <g fill="#FFF">
      <path d="M48.7 17.2c-.3-.4-.7-.8-1.2-1.1-.5-.3-1.1-.4-1.7-.4-.3 0-.6 0-.8.1-.3.1-.5.2-.7.3-.2.1-.4.3-.5.5-.1.2-.2.4-.2.7 0 .5.2.9.7 1.1.5.2 1.2.5 2.1.7.6.1 1.1.3 1.6.5s.9.4 1.3.7c.4.3.7.6.9 1 .2.4.3.9.3 1.4 0 .7-.1 1.3-.4 1.8-.3.5-.6.9-1.1 1.2-.5.3-1 .5-1.6.7-.6.1-1.2.2-1.8.2-.9 0-1.8-.2-2.7-.5-.9-.4-1.6-.9-2.2-1.7l1.7-1.5c.3.5.8.9 1.4 1.2.6.3 1.2.5 1.9.5.3 0 .6 0 .9-.1.3-.1.5-.2.8-.3.2-.1.4-.3.6-.5.1-.2.2-.5.2-.9 0-.6-.3-1-.8-1.3-.5-.3-1.3-.5-2.4-.8-.4-.1-.8-.2-1.3-.4-.4-.1-.8-.3-1.1-.6-.3-.3-.6-.6-.8-1-.2-.4-.3-.9-.3-1.4 0-.7.1-1.2.4-1.7.3-.5.6-.9 1-1.2.4-.3.9-.5 1.5-.7.6-.1 1.1-.2 1.7-.2.9 0 1.7.2 2.5.5s1.4.8 1.9 1.5l-1.8 1.7z"/>
      <path d="M65 20.2v.8h-9.7c0 .5.1 1 .3 1.4.2.5.5.8.9 1.2.4.3.8.6 1.3.8.5.2 1 .3 1.5.3.8 0 1.5-.2 2.1-.5.6-.4 1.1-.8 1.4-1.3l1.7 1.4c-.7.9-1.4 1.5-2.3 1.9-.9.4-1.9.6-3 .6-.9 0-1.8-.2-2.6-.5s-1.5-.7-2-1.3c-.6-.6-1-1.2-1.3-2-.3-.8-.5-1.7-.5-2.6 0-.9.2-1.8.5-2.6s.8-1.5 1.3-2.1c.6-.6 1.2-1 2-1.3.8-.3 1.6-.5 2.5-.5.9 0 1.7.1 2.4.4.7.3 1.4.7 1.9 1.3.5.6.9 1.2 1.2 2 .2.7.4 1.6.4 2.6zm-2.5-1c0-.5-.1-.9-.2-1.4-.1-.4-.4-.8-.6-1.1-.3-.3-.6-.6-1.1-.7-.4-.2-.9-.3-1.5-.3-.5 0-1 .1-1.5.3-.5.2-.9.4-1.2.7-.3.3-.6.7-.8 1.1-.2.4-.3.9-.4 1.4h7.3z"/>
      <path d="M70.8 26.4h-2.4V6.9h2.4z"/>
      <path d="M86.5 20.2v.8h-9.7c0 .5.1 1 .3 1.4.2.5.5.8.9 1.2.4.3.8.6 1.3.8.5.2 1 .3 1.5.3.8 0 1.5-.2 2.1-.5.6-.4 1.1-.8 1.4-1.3l1.7 1.4c-.7.9-1.4 1.5-2.3 1.9-.9.4-1.9.6-3 .6-.9 0-1.8-.2-2.6-.5s-1.5-.7-2-1.3c-.6-.6-1-1.2-1.3-2-.3-.8-.5-1.7-.5-2.6 0-.9.2-1.8.5-2.6s.8-1.5 1.3-2.1c.6-.6 1.2-1 2-1.3.8-.3 1.6-.5 2.5-.5.9 0 1.7.1 2.4.4.7.3 1.4.7 1.9 1.3.5.6.9 1.2 1.2 2 .2.7.4 1.6.4 2.6zm-2.5-1c0-.5-.1-.9-.2-1.4-.1-.4-.4-.8-.6-1.1-.3-.3-.6-.6-1.1-.7-.4-.2-.9-.3-1.5-.3-.5 0-1 .1-1.5.3-.5.2-.9.4-1.2.7-.3.3-.6.7-.8 1.1-.2.4-.3.9-.4 1.4H84z"/>
      <path d="M92 14.1c0 .3.1.7.1 1v1h.1l.6-.9c.3-.3.6-.5.9-.7.3-.2.7-.4 1.1-.5.4-.1.8-.2 1.3-.2.8 0 1.5.1 2 .4.6.3 1 .6 1.4 1.1.4.4.7 1 .8 1.6.2.6.3 1.2.3 1.9v7.6h-2.4v-6.8c0-.5 0-1-.1-1.4-.1-.4-.2-.8-.4-1.2-.2-.3-.5-.6-.9-.8-.4-.2-.8-.3-1.4-.3-1 0-1.8.4-2.4 1.1-.6.7-.9 1.7-.9 2.9v6.5h-2.4v-9.6-1.3c0-.5 0-1-.1-1.4H92z"/>
      <path d="M107.7 9.7c0 .4-.2.8-.5 1.1-.3.3-.7.4-1.1.4-.4 0-.8-.2-1.1-.5-.3-.3-.5-.7-.5-1.1 0-.4.2-.8.5-1.1.3-.3.7-.5 1.1-.5.4 0 .8.2 1.1.5.3.4.5.8.5 1.2zm-.4 16.7h-2.4V14.1h2.4v12.3z"/>
      <path d="M121.3 24.4c-.5.7-1.1 1.3-1.9 1.7-.8.4-1.6.6-2.5.6-.9 0-1.8-.2-2.6-.5s-1.4-.8-1.9-1.4c-.5-.6-.9-1.3-1.2-2.1-.3-.8-.4-1.6-.4-2.5 0-.9.1-1.7.4-2.5.3-.8.7-1.5 1.3-2.1.5-.6 1.2-1 1.9-1.4.8-.3 1.6-.5 2.5-.5 1 0 1.9.2 2.6.6.7.4 1.3.9 1.8 1.5h.1V6.9h2.4v19.5h-2.3l-.2-2zm-8.1-4.2c0 .6.1 1.1.3 1.6.2.5.4 1 .8 1.4.3.4.8.7 1.3 1 .5.2 1.1.4 1.8.4.6 0 1.2-.1 1.7-.4.5-.2.9-.6 1.3-1s.6-.9.8-1.4c.2-.5.3-1.1.3-1.7 0-.6-.1-1.1-.3-1.7-.2-.5-.5-1-.8-1.4-.3-.4-.8-.7-1.3-1-.5-.2-1.1-.4-1.7-.4-.7 0-1.3.1-1.8.4-.5.2-.9.6-1.3 1-.3.4-.6.9-.8 1.4-.2.7-.3 1.3-.3 1.8z"/>
      <path d="M139.3 20.2v.8h-9.7c0 .5.1 1 .3 1.4.2.5.5.8.9 1.2.4.3.8.6 1.3.8.5.2 1 .3 1.5.3.8 0 1.5-.2 2.1-.5.6-.4 1.1-.8 1.4-1.3l1.7 1.4c-.7.9-1.4 1.5-2.3 1.9-.9.4-1.9.6-3 .6-.9 0-1.8-.2-2.6-.5s-1.5-.7-2-1.3c-.6-.6-1-1.2-1.3-2-.3-.8-.5-1.7-.5-2.6 0-.9.2-1.8.5-2.6s.8-1.5 1.3-2.1c.6-.6 1.2-1 2-1.3.8-.3 1.6-.5 2.5-.5.9 0 1.7.1 2.4.4.7.3 1.4.7 1.9 1.3.5.6.9 1.2 1.2 2 .3.7.4 1.6.4 2.6zm-2.4-1c0-.5-.1-.9-.2-1.4-.1-.4-.4-.8-.6-1.1-.3-.3-.6-.6-1.1-.7-.4-.2-.9-.3-1.5-.3-.5 0-1 .1-1.5.3-.5.2-.9.4-1.2.7-.3.3-.6.7-.8 1.1-.2.4-.3.9-.4 1.4h7.3z"/>
    </g>
    <g transform="translate(18 22)">
      <path fill="#FFF" d="M17.2 4.9c-.5-2.2-2.7-3.6-5-3.1-.4.1-.8.6-.9.9-.4 1.2-.4 2.3-.1 3.6.3 1.3.8 2.3 1.7 3.2.3.3.9.5 1.3.4 2.2-.5 3.6-2.8 3-5z"/>
      <circle cx="7.7" cy="8" r="7.6" fill="#FF3C91"/>
      <path fill="#FFF" d="M11.7 17.6c2.4-1 3.5-3.8 2.5-6.2-.2-.4-.8-.8-1.2-.9-1.4-.3-2.6 0-4 .6s-2.4 1.3-3.2 2.5c-.2.4-.4 1.1-.2 1.5 1 2.4 3.8 3.5 6.1 2.5z"/>
    </g>
    <g transform="translate(0 20)">
      <path fill="#FFF" d="M5.8 14.1c1.7.9 3.8.3 4.7-1.4.2-.3.1-.8-.1-1.1-.5-.9-1.2-1.5-2.2-2-1-.5-1.9-.8-2.9-.7-.3 0-.8.3-1 .6-.8 1.7-.2 3.7 1.5 4.6z"/>
      <circle cx="9.1" cy="6.4" r="6.3" fill="#9BC7FB"/>
      <path fill="#FFF" d="M.8 3.8c-.7 2.1.5 4.3 2.5 4.9.3.1.9-.1 1.2-.3.9-.7 1.4-1.6 1.8-2.8.4-1.2.5-2.2.2-3.4-.1-.4-.5-.8-.8-1-2-.6-4.2.5-4.9 2.6z"/>
    </g>
    <g transform="translate(10)">
      <path fill="#FFF" d="M4.5.5c-2.6 1-4 4-2.9 6.6.2.4.8.9 1.3 1 1.5.3 2.8.1 4.4-.5C8.9 7 10 6.3 10.9 5c.3-.4.5-1.2.3-1.6C10.1.8 7.1-.5 4.5.5z"/>
      <circle cx="9.9" cy="11.6" r="9.4" fill="#AE8FFF"/>
      <path fill="#FFF" d="M20.9 5a5.94 5.94 0 0 0-8-2c-.5.3-.8 1.1-.9 1.7-.1 1.7.4 3.2 1.4 4.8 1 1.6 2 2.7 3.6 3.5.5.2 1.4.3 1.9 0 2.8-1.7 3.7-5.2 2-8z"/>
    </g>
  </g>
</svg>