<?xml version="1.0" encoding="UTF-8"?>
<svg width="140px" height="40px" viewBox="0 0 140 40" version="1.1" xmlns="http://www.w3.org/2000/svg" xmlns:xlink="http://www.w3.org/1999/xlink">
    <!-- Generator: sketchtool 50.2 (55047) - http://www.bohemiancoding.com/sketch -->
    <title>33AFCF46-D6B7-4B03-B83C-AF53715DFFF0</title>
    <desc>Created with sketchtool.</desc>
    <defs></defs>
    <g id="responsive" stroke="none" stroke-width="1" fill="none" fill-rule="evenodd">
        <g id="Desktop-HD-1440_picture" transform="translate(-136.000000, -12.000000)" fill-rule="nonzero">
            <g id="header">
                <g id="selenide_logo" transform="translate(136.000000, 12.000000)">
                    <g id="Group" transform="translate(40.000000, 6.000000)" fill="#FFFFFF">
                        <path d="M8.7,11.2 C8.4,10.8 8,10.4 7.5,10.1 C7,9.8 6.4,9.7 5.8,9.7 C5.5,9.7 5.2,9.7 5,9.8 C4.7,9.9 4.5,10 4.3,10.1 C4.1,10.2 3.9,10.4 3.8,10.6 C3.7,10.8 3.6,11 3.6,11.3 C3.6,11.8 3.8,12.2 4.3,12.4 C4.8,12.6 5.5,12.9 6.4,13.1 C7,13.2 7.5,13.4 8,13.6 C8.5,13.8 8.9,14 9.3,14.3 C9.7,14.6 10,14.9 10.2,15.3 C10.4,15.7 10.5,16.2 10.5,16.7 C10.5,17.4 10.4,18 10.1,18.5 C9.8,19 9.5,19.4 9,19.7 C8.5,20 8,20.2 7.4,20.4 C6.8,20.5 6.2,20.6 5.6,20.6 C4.7,20.6 3.8,20.4 2.9,20.1 C2,19.7 1.3,19.2 0.7,18.4 L2.4,16.9 C2.7,17.4 3.2,17.8 3.8,18.1 C4.4,18.4 5,18.6 5.7,18.6 C6,18.6 6.3,18.6 6.6,18.5 C6.9,18.4 7.1,18.3 7.4,18.2 C7.6,18.1 7.8,17.9 8,17.7 C8.1,17.5 8.2,17.2 8.2,16.8 C8.2,16.2 7.9,15.8 7.4,15.5 C6.9,15.2 6.1,15 5,14.7 C4.6,14.6 4.2,14.5 3.7,14.3 C3.3,14.2 2.9,14 2.6,13.7 C2.3,13.4 2,13.1 1.8,12.7 C1.6,12.3 1.5,11.8 1.5,11.3 C1.5,10.6 1.6,10.1 1.9,9.6 C2.2,9.1 2.5,8.7 2.9,8.4 C3.3,8.1 3.8,7.9 4.4,7.7 C5,7.6 5.5,7.5 6.1,7.5 C7,7.5 7.8,7.7 8.6,8 C9.4,8.3 10,8.8 10.5,9.5 L8.7,11.2 Z" id="Shape"></path>
                        <path d="M25,14.2 C25,14.3 25,14.5 25,14.6 C25,14.7 25,14.9 25,15 L15.3,15 C15.3,15.5 15.4,16 15.6,16.4 C15.8,16.9 16.1,17.2 16.5,17.6 C16.9,17.9 17.3,18.2 17.8,18.4 C18.3,18.6 18.8,18.7 19.3,18.7 C20.1,18.7 20.8,18.5 21.4,18.2 C22,17.8 22.5,17.4 22.8,16.9 L24.5,18.3 C23.8,19.2 23.1,19.8 22.2,20.2 C21.3,20.6 20.3,20.8 19.2,20.8 C18.3,20.8 17.4,20.6 16.6,20.3 C15.8,20 15.1,19.6 14.6,19 C14,18.4 13.6,17.8 13.3,17 C13,16.2 12.8,15.3 12.8,14.4 C12.8,13.5 13,12.6 13.3,11.8 C13.6,11 14.1,10.3 14.6,9.7 C15.2,9.1 15.8,8.7 16.6,8.4 C17.4,8.1 18.2,7.9 19.1,7.9 C20,7.9 20.8,8 21.5,8.3 C22.2,8.6 22.9,9 23.4,9.6 C23.9,10.2 24.3,10.8 24.6,11.6 C24.8,12.3 25,13.2 25,14.2 Z M22.5,13.2 C22.5,12.7 22.4,12.3 22.3,11.8 C22.2,11.4 21.9,11 21.7,10.7 C21.4,10.4 21.1,10.1 20.6,10 C20.2,9.8 19.7,9.7 19.1,9.7 C18.6,9.7 18.1,9.8 17.6,10 C17.1,10.2 16.7,10.4 16.4,10.7 C16.1,11 15.8,11.4 15.6,11.8 C15.4,12.2 15.3,12.7 15.2,13.2 L22.5,13.2 Z" id="Shape"></path>
                        <polygon id="Shape" points="30.8 20.4 28.4 20.4 28.4 0.9 30.8 0.9"></polygon>
                        <path d="M46.5,14.2 C46.5,14.3 46.5,14.5 46.5,14.6 C46.5,14.7 46.5,14.9 46.5,15 L36.8,15 C36.8,15.5 36.9,16 37.1,16.4 C37.3,16.9 37.6,17.2 38,17.6 C38.4,17.9 38.8,18.2 39.3,18.4 C39.8,18.6 40.3,18.7 40.8,18.7 C41.6,18.7 42.3,18.5 42.9,18.2 C43.5,17.8 44,17.4 44.3,16.9 L46,18.3 C45.3,19.2 44.6,19.8 43.7,20.2 C42.8,20.6 41.8,20.8 40.7,20.8 C39.8,20.8 38.9,20.6 38.1,20.3 C37.3,20 36.6,19.6 36.1,19 C35.5,18.4 35.1,17.8 34.8,17 C34.5,16.2 34.3,15.3 34.3,14.4 C34.3,13.5 34.5,12.6 34.8,11.8 C35.1,11 35.6,10.3 36.1,9.7 C36.7,9.1 37.3,8.7 38.1,8.4 C38.9,8.1 39.7,7.9 40.6,7.9 C41.5,7.9 42.3,8 43,8.3 C43.7,8.6 44.4,9 44.9,9.6 C45.4,10.2 45.8,10.8 46.1,11.6 C46.3,12.3 46.5,13.2 46.5,14.2 Z M44,13.2 C44,12.7 43.9,12.3 43.8,11.8 C43.7,11.4 43.4,11 43.2,10.7 C42.9,10.4 42.6,10.1 42.1,10 C41.7,9.8 41.2,9.7 40.6,9.7 C40.1,9.7 39.6,9.8 39.1,10 C38.6,10.2 38.2,10.4 37.9,10.7 C37.6,11 37.3,11.4 37.1,11.8 C36.9,12.2 36.8,12.7 36.7,13.2 L44,13.2 Z" id="Shape"></path>
                        <path d="M52,8.1 C52,8.4 52.1,8.8 52.1,9.1 C52.1,9.5 52.1,9.8 52.1,10.1 L52.2,10.1 C52.4,9.8 52.6,9.5 52.8,9.2 C53.1,8.9 53.4,8.7 53.7,8.5 C54,8.3 54.4,8.1 54.8,8 C55.2,7.9 55.6,7.8 56.1,7.8 C56.9,7.8 57.6,7.9 58.1,8.2 C58.7,8.5 59.1,8.8 59.5,9.3 C59.9,9.7 60.2,10.3 60.3,10.9 C60.5,11.5 60.6,12.1 60.6,12.8 L60.6,20.4 L58.2,20.4 L58.2,13.6 C58.2,13.1 58.2,12.6 58.1,12.2 C58,11.8 57.9,11.4 57.7,11 C57.5,10.7 57.2,10.4 56.8,10.2 C56.4,10 56,9.9 55.4,9.9 C54.4,9.9 53.6,10.3 53,11 C52.4,11.7 52.1,12.7 52.1,13.9 L52.1,20.4 L49.7,20.4 L49.7,10.8 C49.7,10.5 49.7,10.1 49.7,9.5 C49.7,9 49.7,8.5 49.6,8.1 L52,8.1 Z" id="Shape"></path>
                        <path d="M67.7,3.7 C67.7,4.1 67.5,4.5 67.2,4.8 C66.9,5.1 66.5,5.2 66.1,5.2 C65.7,5.2 65.3,5 65,4.7 C64.7,4.4 64.5,4 64.5,3.6 C64.5,3.2 64.7,2.8 65,2.5 C65.3,2.2 65.7,2 66.1,2 C66.5,2 66.9,2.2 67.2,2.5 C67.5,2.9 67.7,3.3 67.7,3.7 Z M67.3,20.4 L64.9,20.4 L64.9,8.1 L67.3,8.1 L67.3,20.4 Z" id="Shape"></path>
                        <path d="M81.3,18.4 C80.8,19.1 80.2,19.7 79.4,20.1 C78.6,20.5 77.8,20.7 76.9,20.7 C76,20.7 75.1,20.5 74.3,20.2 C73.5,19.9 72.9,19.4 72.4,18.8 C71.9,18.2 71.5,17.5 71.2,16.7 C70.9,15.9 70.8,15.1 70.8,14.2 C70.8,13.3 70.9,12.5 71.2,11.7 C71.5,10.9 71.9,10.2 72.5,9.6 C73,9 73.7,8.6 74.4,8.2 C75.2,7.9 76,7.7 76.9,7.7 C77.9,7.7 78.8,7.9 79.5,8.3 C80.2,8.7 80.8,9.2 81.3,9.8 L81.4,9.8 L81.4,0.9 L83.8,0.9 L83.8,20.4 L81.5,20.4 L81.3,18.4 Z M73.2,14.2 C73.2,14.8 73.3,15.3 73.5,15.8 C73.7,16.3 73.9,16.8 74.3,17.2 C74.6,17.6 75.1,17.9 75.6,18.2 C76.1,18.4 76.7,18.6 77.4,18.6 C78,18.6 78.6,18.5 79.1,18.2 C79.6,18 80,17.6 80.4,17.2 C80.8,16.8 81,16.3 81.2,15.8 C81.4,15.3 81.5,14.7 81.5,14.1 C81.5,13.5 81.4,13 81.2,12.4 C81,11.9 80.7,11.4 80.4,11 C80.1,10.6 79.6,10.3 79.1,10 C78.6,9.8 78,9.6 77.4,9.6 C76.7,9.6 76.1,9.7 75.6,10 C75.1,10.2 74.7,10.6 74.3,11 C74,11.4 73.7,11.9 73.5,12.4 C73.3,13.1 73.2,13.7 73.2,14.2 Z" id="Shape"></path>
                        <path d="M99.3,14.2 C99.3,14.3 99.3,14.5 99.3,14.6 C99.3,14.7 99.3,14.9 99.3,15 L89.6,15 C89.6,15.5 89.7,16 89.9,16.4 C90.1,16.9 90.4,17.2 90.8,17.6 C91.2,17.9 91.6,18.2 92.1,18.4 C92.6,18.6 93.1,18.7 93.6,18.7 C94.4,18.7 95.1,18.5 95.7,18.2 C96.3,17.8 96.8,17.4 97.1,16.9 L98.8,18.3 C98.1,19.2 97.4,19.8 96.5,20.2 C95.6,20.6 94.6,20.8 93.5,20.8 C92.6,20.8 91.7,20.6 90.9,20.3 C90.1,20 89.4,19.6 88.9,19 C88.3,18.4 87.9,17.8 87.6,17 C87.3,16.2 87.1,15.3 87.1,14.4 C87.1,13.5 87.3,12.6 87.6,11.8 C87.9,11 88.4,10.3 88.9,9.7 C89.5,9.1 90.1,8.7 90.9,8.4 C91.7,8.1 92.5,7.9 93.4,7.9 C94.3,7.9 95.1,8 95.8,8.3 C96.5,8.6 97.2,9 97.7,9.6 C98.2,10.2 98.6,10.8 98.9,11.6 C99.2,12.3 99.3,13.2 99.3,14.2 Z M96.9,13.2 C96.9,12.7 96.8,12.3 96.7,11.8 C96.6,11.4 96.3,11 96.1,10.7 C95.8,10.4 95.5,10.1 95,10 C94.6,9.8 94.1,9.7 93.5,9.7 C93,9.7 92.5,9.8 92,10 C91.5,10.2 91.1,10.4 90.8,10.7 C90.5,11 90.2,11.4 90,11.8 C89.8,12.2 89.7,12.7 89.6,13.2 L96.9,13.2 Z" id="Shape"></path>
                    </g>
                    <g id="Group">
                        <g transform="translate(18.000000, 22.000000)">
                            <path d="M17.2,4.9 C16.7,2.7 14.5,1.3 12.2,1.8 C12.2,1.8 12.2,1.8 12.2,1.8 C11.8,1.9 11.4,2.4 11.3,2.7 C10.9,3.9 10.9,5 11.2,6.3 C11.5,7.6 12,8.6 12.9,9.5 C13.2,9.8 13.8,10 14.2,9.9 C14.2,9.9 14.2,9.9 14.2,9.9 C16.4,9.4 17.8,7.1 17.2,4.9 Z" id="Shape" fill="#FFFFFF"></path>
                            <circle id="Oval" fill="#FF3C91" cx="7.7" cy="8" r="7.6"></circle>
                            <path d="M11.7,17.6 C14.1,16.6 15.2,13.8 14.2,11.4 C14.2,11.4 14.2,11.4 14.2,11.4 C14,11 13.4,10.6 13,10.5 C11.6,10.2 10.4,10.5 9,11.1 C7.6,11.7 6.6,12.4 5.8,13.6 C5.6,14 5.4,14.7 5.6,15.1 C5.6,15.1 5.6,15.1 5.6,15.1 C6.6,17.5 9.4,18.6 11.7,17.6 Z" id="Shape" fill="#FFFFFF"></path>
                        </g>
                        <g transform="translate(0.000000, 20.000000)">
                            <path d="M5.8,14.1 C7.5,15 9.6,14.4 10.5,12.7 C10.5,12.7 10.5,12.7 10.5,12.7 C10.7,12.4 10.6,11.9 10.4,11.6 C9.9,10.7 9.2,10.1 8.2,9.6 C7.2,9.1 6.3,8.8 5.3,8.9 C5,8.9 4.5,9.2 4.3,9.5 C4.3,9.5 4.3,9.5 4.3,9.5 C3.5,11.2 4.1,13.2 5.8,14.1 Z" id="Shape" fill="#FFFFFF"></path>
                            <circle id="Oval" fill="#9BC7FB" cx="9.1" cy="6.4" r="6.3"></circle>
                            <path d="M0.8,3.8 C0.1,5.9 1.3,8.1 3.3,8.7 C3.3,8.7 3.3,8.7 3.3,8.7 C3.6,8.8 4.2,8.6 4.5,8.4 C5.4,7.7 5.9,6.8 6.3,5.6 C6.7,4.4 6.8,3.4 6.5,2.2 C6.4,1.8 6,1.4 5.7,1.2 C5.7,1.2 5.7,1.2 5.7,1.2 C3.7,0.6 1.5,1.7 0.8,3.8 Z" id="Shape" fill="#FFFFFF"></path>
                        </g>
                        <g transform="translate(10.000000, 0.000000)">
                            <path d="M4.5,0.5 C1.9,1.5 0.5,4.5 1.6,7.1 C1.6,7.1 1.6,7.1 1.6,7.1 C1.8,7.5 2.4,8 2.9,8.1 C4.4,8.4 5.7,8.2 7.3,7.6 C8.9,7 10,6.3 10.9,5 C11.2,4.6 11.4,3.8 11.2,3.4 C11.2,3.4 11.2,3.4 11.2,3.4 C10.1,0.8 7.1,-0.5 4.5,0.5 Z" id="Shape" fill="#FFFFFF"></path>
                            <circle id="Oval" fill="#AE8FFF" cx="9.9" cy="11.6" r="9.4"></circle>
                            <path d="M20.9,5 C19.2,2.3 15.7,1.4 12.9,3 C12.9,3 12.9,3 12.9,3 C12.4,3.3 12.1,4.1 12,4.7 C11.9,6.4 12.4,7.9 13.4,9.5 C14.4,11.1 15.4,12.2 17,13 C17.5,13.2 18.4,13.3 18.9,13 C18.9,13 18.9,13 18.9,13 C21.7,11.3 22.6,7.8 20.9,5 Z" id="Shape" fill="#FFFFFF"></path>
                        </g>
                    </g>
                </g>
            </g>
        </g>
    </g>
</svg>