<?xml version="1.0" encoding="utf-8"?><svg xmlns="http://www.w3.org/2000/svg" xmlns:xlink="http://www.w3.org/1999/xlink"><symbol viewBox="0 0 512 512" id="arrow" xmlns="http://www.w3.org/2000/svg"><path d="M225.923 354.706c-8.098 0-16.195-3.092-22.369-9.263L9.27 151.157c-12.359-12.359-12.359-32.397 0-44.751 12.354-12.354 32.388-12.354 44.748 0l171.905 171.915 171.906-171.909c12.359-12.354 32.391-12.354 44.744 0 12.365 12.354 12.365 32.392 0 44.751L248.292 345.449c-6.177 6.172-14.274 9.257-22.369 9.257z"/></symbol><symbol viewBox="0 0 12 12" id="arrow-white" xmlns="http://www.w3.org/2000/svg"><path d="M8.216 4.303a1.051 1.051 0 0 1 1.478 0 1.03 1.03 0 0 1 0 1.465L6.739 8.697a1.051 1.051 0 0 1-1.478 0l-2.955-2.93a1.029 1.029 0 0 1 0-1.464 1.051 1.051 0 0 1 1.478 0L6 6.5l2.216-2.197z"/></symbol><symbol viewBox="0 0 24 24" id="facebook" xmlns="http://www.w3.org/2000/svg"><path d="M21 1H3c-1.103 0-2 .897-2 2v18c0 1.103.897 2 2 2h7.5a.5.5 0 0 0 .5-.5v-7a.5.5 0 0 0-.5-.5h-.979a.5.5 0 0 1-.5-.5v-3a.5.5 0 0 1 .5-.5h.979a.5.5 0 0 0 .5-.5v-1C11 7.019 13.019 5 15.5 5h3a.5.5 0 0 1 .5.5v3a.5.5 0 0 1-.5.5h-3a.5.5 0 0 0-.5.5v1a.5.5 0 0 0 .5.5h3a.497.497 0 0 1 .493.583l-.5 3A.498.498 0 0 1 18 15h-2.5a.5.5 0 0 0-.5.5v7a.5.5 0 0 0 .5.5H21c1.103 0 2-.897 2-2V3c0-1.103-.897-2-2-2" fill-rule="evenodd"/></symbol><symbol viewBox="0 0 24 24" id="github" xmlns="http://www.w3.org/2000/svg"><path d="M12 2A10 10 0 0 0 2 12c0 4.42 2.87 8.17 6.84 9.5.5.08.66-.23.66-.5v-1.69c-2.77.6-3.36-1.34-3.36-1.34-.46-1.16-1.11-1.47-1.11-1.47-.91-.62.07-.6.07-.6 1 .07 1.53 1.03 1.53 1.03.87 1.52 2.34 1.07 2.91.83.09-.65.35-1.09.63-1.34-2.22-.25-4.55-1.11-4.55-4.92 0-1.11.38-2 1.03-2.71-.1-.25-.45-1.29.1-2.64 0 0 .84-.27 2.75 1.02.79-.22 1.65-.33 2.5-.33.85 0 1.71.11 2.5.33 1.91-1.29 2.75-1.02 2.75-1.02.55 1.35.2 2.39.1 2.64.65.71 1.03 1.6 1.03 2.71 0 3.82-2.34 4.66-4.57 4.91.36.31.69.92.69 1.85V21c0 .27.16.59.67.5C19.14 20.16 22 16.42 22 12A10 10 0 0 0 12 2z"/></symbol><symbol viewBox="0 0 24 24" id="twitter" xmlns="http://www.w3.org/2000/svg"><path d="M23.866 4.43a.499.499 0 0 0-.598-.102 4.84 4.84 0 0 1-.747.269c.39-.513.708-1.096.844-1.618a.5.5 0 0 0-.773-.534c-.294.209-1.653.811-2.53 1.006C18.949 2.45 17.84 2 16.5 2c-1.005 0-1.936.287-3.018.929-1.887 1.12-2.214 3.541-2.074 5.026-5.122-.488-7.995-3.468-9.016-4.765a.53.53 0 0 0-.428-.189.5.5 0 0 0-.397.247c-1.22 2.093-.72 4.247.218 5.696a6.315 6.315 0 0 1-.466-.351.499.499 0 0 0-.82.385c0 2.197 1.288 3.767 2.544 4.659a9.232 9.232 0 0 1-.394-.115.501.501 0 0 0-.606.681c.803 1.805 2.4 3.151 4.19 3.619-1.54.937-3.667 1.418-5.675 1.181a.5.5 0 0 0-.306.931C2.686 21.324 5.215 22 7.982 22h.019c3.78-.003 7.332-1.648 9.998-4.632 2.573-2.879 3.922-6.566 3.646-9.923.66-.494 1.662-1.418 2.279-2.41a.499.499 0 0 0-.058-.605z" fill-rule="evenodd"/></symbol></svg>