<?xml version="1.0" encoding="UTF-8"?>
<svg width="180px" height="69px" viewBox="0 0 180 69" version="1.1" xmlns="http://www.w3.org/2000/svg" xmlns:xlink="http://www.w3.org/1999/xlink">
    <!-- Generator: sketchtool 50.2 (55047) - http://www.bohemiancoding.com/sketch -->
    <title>2DF4DC4E-23CD-42B1-9EFA-C3AEEECDCD5B</title>
    <desc>Created with sketchtool.</desc>
    <defs>
        <rect id="path-1" x="0" y="0" width="208" height="108"></rect>
    </defs>
    <g id="responsive" stroke="none" stroke-width="1" fill="none" fill-rule="evenodd">
        <g id="Desktop-1024" transform="translate(-62.000000, -994.000000)">
            <g id="UBS_Logo_SVG" transform="translate(48.000000, 974.000000)">
                <mask id="mask-2" fill="white">
                    <use xlink:href="#path-1"></use>
                </mask>
                <use id="Mask" fill="#EEF0F2" opacity="0" xlink:href="#path-1"></use>
                <g mask="url(#mask-2)" fill="#29282B" fill-rule="nonzero">
                    <g transform="translate(13.970149, 19.402985)">
                        <path d="M162.939952,56.9526522 C160.25238,56.7539285 157.352695,56.0783582 155.051708,55.1148557 C154.530898,54.8967743 154.162528,52.9148346 153.900611,52.8152756 L153.362058,50.1616524 C153.292087,47.7972247 153.203076,45.1851978 153.164253,44.357149 L153.093671,42.8516047 L154.057758,42.8516047 L155.021842,42.8516047 L155.266988,44.703612 C156.182711,51.62168 159.836581,55.1036295 166.180516,55.1036295 C170.393675,55.1036295 173.005619,53.5233315 174.321052,50.1783798 C174.731463,49.1347629 174.794526,48.5967951 174.802905,46.0677804 C174.812437,43.1894818 174.805191,43.142899 174.133982,41.7697369 C172.956011,39.3598361 171.765327,38.5607903 165.8318,36.198301 C164.071782,35.4975343 161.981433,34.5964396 161.186588,34.1958707 C156.004873,31.5844955 153.437734,27.8797556 153.448152,23.0282236 C153.461477,16.8215703 156.916849,12.3417512 162.941446,10.7203717 C165.038633,10.155961 170.148242,10.2175533 172.335098,10.8336068 C174.385622,11.4112557 177.096713,12.4851692 177.384271,12.8336843 C177.507078,12.9825232 177.647525,14.739226 177.710594,16.9153241 C177.771495,19.0165081 177.855423,21.2262615 177.897103,21.8258817 L177.972889,22.9161048 L176.996299,22.9161048 L176.019708,22.9161048 L175.590952,20.7294422 C174.592554,15.6376002 172.248523,12.9537674 168.212186,12.2810112 C164.944926,11.7364427 160.985458,12.9974726 159.426336,15.0791719 C158.241136,16.6616155 157.883326,17.9010752 157.883326,20.4241677 C157.883326,22.4301374 157.932372,22.7019771 158.496265,23.8213938 C159.228822,25.2756362 160.269869,26.2267394 162.218855,27.2223632 C163.584193,27.9198312 168.194727,29.7689342 168.568459,29.7689342 C168.931505,29.7689342 173.073267,31.833749 174.143531,32.5483054 C177.121164,34.5363045 178.779441,37.2038945 179.370322,40.9563868 C179.659126,42.7904803 179.672301,43.4020152 179.459634,45.1014872 C178.977771,48.9520982 177.855466,51.3377251 175.4866,53.5467532 C172.450068,56.3784022 168.751601,57.3823847 162.939952,56.9526522 Z M89.6762183,56.6721296 C83.1041421,55.4131986 79.996596,51.9538354 79.1315464,44.9336649 C78.9979643,43.8495747 78.9147149,37.3319419 78.9147149,27.9573434 L78.9147149,12.7406959 L76.4372694,12.7406959 L73.9598238,12.7406959 L73.9598238,11.8062199 L73.9598238,10.8717439 L82.1147514,10.8717439 L90.269679,10.8717439 L90.269679,11.8000136 L90.269679,12.7282865 L87.637392,12.7864064 L85.0051051,12.8445262 L84.944716,26.3425212 C84.8661422,43.9060201 85.0645718,46.7346377 86.5945572,49.8606525 C88.1039616,52.9446231 91.0201734,54.4806443 95.365839,54.4806443 C100.294498,54.4806443 103.041875,52.6378847 104.52389,48.3380366 C105.471895,45.5875348 105.544754,44.1344187 105.546047,27.9518957 L105.547267,12.7406959 L103.069818,12.7406959 L100.592373,12.7406959 L100.592373,11.8062199 L100.592373,10.8717439 L106.579534,10.8717439 L112.566699,10.8717439 L112.566699,11.8062199 L112.566699,12.7406959 L110.303842,12.7406959 L108.040989,12.7406959 L107.976489,29.3016962 C107.912667,45.68818 107.907143,45.8801994 107.452368,47.5239846 C106.10881,52.3802993 103.452604,55.1010293 98.8375147,56.3481191 C96.6817536,56.9306476 91.9072813,57.0995092 89.6762183,56.6721296 Z M115.289842,55.4772741 L115.353824,54.5844746 L117.831273,54.5515144 L120.308718,54.5185576 L120.36132,33.6360253 L120.413919,12.7534963 L117.883871,12.6951793 L115.353824,12.6368656 L115.29034,11.7543031 L115.226856,10.8717439 L125.367035,10.8717439 C131.779708,10.8717439 136.052993,10.956621 136.991937,11.1026424 C140.577196,11.6602152 143.025622,13.2434174 144.342428,15.8556181 C145.477844,18.1079871 145.827442,20.9292822 145.297646,23.5643598 C144.729338,26.3909989 143.557192,28.1333807 141.20747,29.6443459 C139.619328,30.6655872 138.596152,31.0884148 136.618577,31.5407034 C135.71018,31.7484643 134.890259,31.9838513 134.796532,32.0637886 C134.702805,32.1437293 135.26023,32.2735748 136.035253,32.352339 C144.010313,33.1628182 147.503445,36.6770861 147.503445,43.889911 C147.503445,47.8610061 146.566032,50.3988274 144.241833,52.7199711 C142.817075,54.1428475 141.087788,55.0877409 138.650485,55.775099 C137.092663,56.2144301 136.619476,56.2343025 126.128673,56.3008779 L115.225863,56.3700703 L115.289842,55.4772741 Z M134.101223,54.1708814 C137.62534,53.2475949 139.982709,50.8047338 140.765716,47.2646946 C141.258204,45.0381001 141.090041,40.956457 140.434176,39.2175277 C139.636684,37.1031122 138.29193,35.4103345 136.652847,34.4575937 C135.014322,33.5051771 133.826726,33.2991776 129.974581,33.2991776 L126.399109,33.2991776 L126.399109,43.889911 L126.399109,54.4806443 L129.658993,54.4806443 C131.882522,54.4806443 133.294764,54.3821648 134.101223,54.1708814 Z M134.089626,30.9379917 C137.503679,29.8288989 139.494787,26.419484 139.460329,21.7416363 C139.424388,16.8629394 136.958493,13.3522475 133.178595,12.7983512 C132.572491,12.7095338 130.799157,12.6652838 129.23785,12.7000187 L126.399109,12.7631718 L126.399109,21.9582572 C126.399109,27.0155548 126.468785,31.2260007 126.55395,31.3148081 C126.823012,31.5953842 133.019866,31.2855142 134.089626,30.9379917 Z" id="path2195"></path>
                        <path d="M30.8623178,69.2749689 C30.2122313,69.086168 30.1913429,69.0452368 30.1913429,67.9603979 C30.1913429,66.8624277 30.1783219,66.8381605 29.520368,66.7098623 C28.2927963,66.4704949 26.1777992,65.4988209 25.1896752,64.7202591 C21.5503911,61.852779 20.3031309,57.3681472 21.9418795,53.0425278 C22.9896641,50.2767992 25.8805793,47.8040794 29.0072357,46.9992317 C30.5178266,46.6103836 30.4461343,46.1753973 28.8493931,46.0415546 L27.6106686,45.9377243 L27.6106686,44.899418 L27.6106686,43.8611117 L28.9010058,43.7992855 L30.1913429,43.7374625 L30.1913429,38.4520036 C30.1913429,35.5450027 30.1480722,33.1665481 30.0951828,33.1665481 C30.0422968,33.1665481 28.4852601,34.4047277 26.635101,35.9180625 C24.7849419,37.431394 23.0165817,38.8699183 22.7054083,39.1147836 C22.3942349,39.3596522 22.141021,39.6399944 22.1427121,39.7377687 C22.1443999,39.835543 22.46067,40.2893356 22.8455343,40.7461896 C23.5247041,41.5524042 23.5355527,41.5934557 23.2143395,42.1419779 C23.0323165,42.4528037 22.6274629,42.7968571 22.3146586,42.9065428 C21.7934016,43.0893145 21.6774627,43.0248011 20.9258085,42.1337362 C20.3348578,41.43318 20.0421163,41.2240656 19.878171,41.385364 C19.7130759,41.5477954 19.8318823,41.9987739 20.3111754,43.0289855 C20.8839348,44.2601065 20.9841957,44.7312716 21.0657105,46.5748734 C21.1431178,48.3254969 21.0836912,48.9520848 20.7292171,50.1227833 C19.7547958,53.3409743 17.421811,55.6872709 14.2214837,56.6676512 C13.0586493,57.0238733 12.4518669,57.0825145 10.8149965,56.9968688 C8.53695982,56.877678 7.22275312,56.4348476 5.36759751,55.1613315 C4.71597026,54.714006 4.11209218,54.3518115 4.0256477,54.3564537 C3.93919988,54.3610926 3.55259438,54.6365853 3.16652029,54.9686571 C2.50232658,55.5399426 2.43310416,55.5560551 1.87967904,55.2681931 C1.31105051,54.972427 0.668447044,54.0214877 0.668426991,53.4757662 C0.668423649,53.327325 1.01168826,52.9159876 1.43124059,52.5616839 L2.19406421,51.9174863 L1.6438442,50.6413633 C-0.773857234,45.0340094 1.68862221,38.9104418 7.18688861,36.8571975 C8.18318083,36.485147 8.81311759,36.4046582 10.5782225,36.4238688 C13.1297433,36.4516487 14.3812448,36.8431438 16.5113383,38.2798834 C18.1964792,39.4165021 18.6138457,39.2265816 17.4825678,37.837932 C16.7165992,36.8977009 16.704524,36.8573646 17.0272545,36.3171977 C17.2095917,36.0120135 17.6093786,35.6702829 17.9156691,35.5577964 C18.424871,35.370797 18.5456059,35.4373591 19.3254477,36.335028 L20.1783286,37.3167719 L24.6170862,33.6955856 C27.0584032,31.7039336 29.0558471,29.9769491 29.0558471,29.8578452 C29.0558471,29.7387447 27.1048556,28.0579987 24.7203149,26.122859 L20.3847827,22.6044201 L19.8170332,23.1481229 C19.0876978,23.8465668 19.100281,24.2558521 19.8686492,24.8272546 C20.6248286,25.3895899 20.6298285,25.4893428 19.9429951,26.3103698 L19.3979822,26.96187 L18.7460575,26.3263018 C17.96659,25.5663925 17.8817798,25.5560252 17.369199,26.1579748 C16.5324606,27.140601 16.5262542,27.2717299 17.2916714,27.7960183 C17.6855092,28.0657859 18.0083768,28.3907088 18.0091521,28.5180745 C18.0108065,28.7894095 17.2192772,29.8443363 17.014922,29.8431565 C16.8272307,29.8420736 12.9689429,26.7401156 12.8914754,26.52802 C12.8579437,26.4362148 13.8102099,25.8215616 15.0076288,25.1621271 C16.2050444,24.5026926 17.1847462,23.8909872 17.1847462,23.8027781 C17.1847462,23.7145723 16.9162587,23.4501054 16.5881072,23.2150727 L15.9914682,22.7877432 L13.9792253,23.9339839 C12.8724954,24.5644186 11.9330129,25.0460546 11.8914901,25.0042878 C11.849964,24.9625244 12.1308877,23.9302808 12.5157586,22.7104127 L13.215526,20.4924777 L12.6877719,20.0749173 C12.3975103,19.8452588 12.071675,19.6869783 11.9636971,19.7231837 C11.8557158,19.7593858 11.45,20.8087846 11.0621011,22.0551793 C10.6742055,23.3015706 10.3200589,24.3583389 10.2751138,24.403548 C10.1917975,24.4873489 6.03623626,21.1316789 6.03623626,20.9806008 C6.03623626,20.7820107 6.95690252,19.6685531 7.12110859,19.6685531 C7.22087818,19.6685531 7.62885333,19.9189229 8.0277178,20.2249327 L8.75292897,20.7813122 L9.35589465,20.1323654 C9.68752527,19.7754448 9.95886033,19.4181666 9.95886033,19.3384164 C9.95886033,19.2586662 9.61476018,18.8942225 9.19419184,18.5285455 L8.42952336,17.8636733 L8.93612508,17.2201441 C9.55707482,16.4313553 9.64157083,16.4229064 10.409421,17.0727857 C10.7467868,17.3583215 11.0932298,17.5919405 11.1792999,17.5919405 C11.3786419,17.5919405 12.4394007,16.4017473 12.4269746,16.1920213 C12.4218411,16.1053729 11.6363544,15.4270687 10.6814513,14.6846789 C8.74917574,13.1824367 8.59707491,12.8261678 9.45179404,11.8044519 C10.524501,10.522156 9.50555906,9.85617091 21.7267325,19.827405 C28.333186,25.2176 29.9581283,26.5213825 30.0696488,26.5213825 C30.1365786,26.5213825 30.1913429,24.1384661 30.1913429,21.2260142 L30.1913429,15.9306491 L29.1590725,15.9306491 L28.1268021,15.9306491 L28.1268021,16.9689554 L28.1268021,18.0072617 L27.1977605,18.0072617 L26.2687188,18.0072617 L26.2687188,16.9689554 L26.2687188,15.9306491 L25.2364484,15.9306491 L24.2041781,15.9306491 L24.2041781,16.9689554 L24.2041781,18.0072617 L23.2751364,18.0072617 L22.3460947,18.0072617 L22.3460947,15.2068651 L22.3460947,12.4064651 L23.3267491,12.795624 C23.8661105,13.0096614 24.9040759,13.4288093 25.6333377,13.7270687 C26.3625996,14.025328 27.0361546,14.2693578 27.1301289,14.2693578 C27.2240999,14.2693578 27.3003976,13.9189276 27.2996757,13.4906256 L27.2983656,12.7118967 L24.9997848,11.7989441 L22.7012039,10.8859881 L25.0010949,9.96032539 L27.3009892,9.03466263 L27.3009892,8.22559714 C27.3009892,7.78061113 27.2564017,7.41652832 27.2019114,7.41652832 C27.1474178,7.41652832 26.1486958,7.80055702 24.9825326,8.26992396 C23.8163627,8.73929089 22.7460989,9.1698021 22.6041615,9.2266185 C22.4053208,9.30621158 22.3460947,8.68144178 22.3460947,6.50427088 L22.3460947,3.67862438 L23.2751364,3.67862438 L24.2041781,3.67862438 L24.2041781,4.71693066 L24.2041781,5.75523693 L25.2364484,5.75523693 L26.2687188,5.75523693 L26.2687188,4.71693066 L26.2687188,3.67862438 L27.1977605,3.67862438 L28.1268021,3.67862438 L28.1268021,4.71693066 L28.1268021,5.75523693 L29.1590725,5.75523693 L30.1913429,5.75523693 L30.1913429,3.37513459 L30.1913429,0.995032236 L30.9868961,0.779561065 C31.5478845,0.627617311 31.9739907,0.631246876 32.4320746,0.791870171 L33.0816966,1.01965379 L33.0816966,13.792735 C33.0816966,24.5943675 33.1258596,26.5487714 33.367844,26.4553686 C33.6215593,26.3574405 39.2598313,21.8088468 48.9832323,13.8578801 C50.7457739,12.4166252 52.3027504,11.1659894 52.4431838,11.0786893 C52.8363064,10.8343053 53.4687565,11.1202254 53.9010892,11.7377862 C54.7593978,12.9638306 54.7161939,13.0769487 52.8061871,14.604394 C51.8365351,15.3798342 51.0431843,16.0926995 51.0431843,16.1885388 C51.0431843,16.4547069 51.9222944,17.5919405 52.1280533,17.5919405 C52.2278262,17.5919405 52.6386656,17.3393716 53.0410326,17.0306747 L53.7726106,16.4694123 L54.3578328,17.1864219 L54.9430584,17.9034314 L54.1296615,18.6302468 L53.3162613,19.3570622 L53.9616087,20.0656663 C54.4034531,20.5508181 54.6869602,20.7145262 54.8606513,20.5848177 C56.2571114,19.5419862 56.1904123,19.5592617 56.7219297,20.1026805 C56.991099,20.3778724 57.2402857,20.7107429 57.275679,20.8423899 C57.3462817,21.1050053 53.3288311,24.4783886 53.1085539,24.341451 C53.0335663,24.2948382 52.6628961,23.2243671 52.2848432,21.9626254 C51.9067902,20.700887 51.4959843,19.6716613 51.3719407,19.6754613 C51.2479005,19.6792613 50.931002,19.8629654 50.6677282,20.0836904 L50.1890434,20.4850114 L50.9016146,22.7763832 C51.2935274,24.0366344 51.5692941,25.0677517 51.5144295,25.0677517 C51.4595649,25.0677517 50.4869551,24.5440115 49.3530703,23.9038913 L47.2914673,22.7400274 L46.691299,23.3183883 L46.0911307,23.8967491 L47.3800474,24.6132206 C48.0889523,25.0072824 49.118569,25.5843532 49.6680838,25.8955967 L50.6672035,26.4615014 L48.5123681,28.2310514 L46.3575328,30.0006048 L45.7800576,29.2726463 L45.2025858,28.5446879 L45.9914213,27.8785458 L46.7802568,27.2124036 L46.2033163,26.4515685 C45.8860001,26.0331124 45.5810932,25.6907368 45.5257507,25.6907368 C45.4704015,25.6907368 45.0739468,25.9704974 44.6447356,26.3124285 L43.8643457,26.9341202 L43.3046875,26.1960786 L42.7450293,25.4580369 L43.5250449,24.779823 L44.3050571,24.101609 L43.7046148,23.3446943 C43.1913054,22.6976257 43.0525631,22.6245832 42.748582,22.8413745 C41.873419,23.4655193 34.1361287,29.7513512 34.1256644,29.8466992 C34.1192308,29.9053103 34.648158,30.3725483 35.3010553,30.8850054 C35.9539559,31.3974659 38.0010306,33.0549306 39.8501102,34.568262 C41.6991898,36.0815935 43.2495723,37.3197765 43.295403,37.3197765 C43.3412372,37.3197765 43.6789672,36.8992616 44.0459209,36.3853005 C44.8353212,35.2796534 45.2674266,35.2161929 46.1260226,36.0798155 L46.7513573,36.7088064 L46.2083095,37.3776992 C45.5037026,38.2455863 45.1579448,38.9451466 45.3420667,39.130348 C45.4227359,39.2114851 45.6072856,39.1877292 45.7521841,39.0775522 C47.1247981,38.0338751 48.7884022,37.0780328 49.6665999,36.8284851 C54.7638762,35.380048 59.3982226,37.3230886 61.6244294,41.8420408 L62.5013737,43.6221386 L62.5013737,46.2335606 C62.5013737,48.9313668 62.4858127,48.9998607 61.2456344,51.7602786 C61.1923373,51.8789113 61.5235234,52.252703 61.9816006,52.5909243 C62.6730528,53.1014564 62.794055,53.2940272 62.694232,53.7250297 C62.5645703,54.2848651 61.9006172,55.0947795 61.3079219,55.4161096 C61.0208086,55.5717665 60.7566759,55.4573416 60.1020106,54.8936962 L59.2637348,54.1719675 L58.3223874,54.8947156 C56.3934139,56.3757452 54.3996196,57.0509847 51.9804644,57.0425358 C49.1179808,57.0325361 47.0437144,56.1848488 45.1592482,54.2549095 C43.6949293,52.7552574 42.9115114,51.3786529 42.4838711,49.5538105 C41.9372037,47.2210529 42.1419834,45.1569901 43.1474164,42.865625 C43.5391788,41.9728054 43.6153061,41.6020885 43.4425608,41.4283339 C43.2698189,41.2545827 43.1080593,41.323882 42.8154048,41.6970053 C41.5524364,43.3072622 41.6915464,43.2205102 40.9723544,42.8464244 C40.6134619,42.6597491 40.2175619,42.3148167 40.0925759,42.0799144 C39.8559222,41.6351389 39.9071038,41.5187054 40.9186729,40.2006051 L41.3373797,39.6550206 L37.4197655,36.4639645 C35.2650805,34.7088826 33.4059377,33.24065 33.2883412,33.2012228 C33.1436866,33.1527216 33.0923814,34.8314957 33.1297265,38.3914908 L33.1849219,43.6534511 L34.41869,43.717129 C35.7547309,43.786084 35.9657269,43.9473356 35.9657269,44.899418 C35.9657269,45.8515037 35.7547309,46.012752 34.41869,46.0817071 C32.6590728,46.1725264 32.7864886,46.5953072 34.7446858,47.163411 C37.3472076,47.9184441 39.2006253,49.2848885 40.6752681,51.5357736 C42.4565223,54.2546655 42.6503832,58.1600708 41.1575491,61.2515245 C40.1407829,63.3571067 37.4268876,65.6533213 35.1832114,66.306379 C33.0278346,66.933739 33.0816966,66.8895927 33.0816966,68.0289018 C33.0816966,68.9890153 33.0420621,69.0652462 32.4315265,69.2793204 C31.6969573,69.5368925 31.7648095,69.5370797 30.8623178,69.2749689 Z M30.2299212,63.2841177 C30.2889869,62.436387 30.3524842,62.3396888 30.9655432,62.1638555 C31.3774921,62.0456974 31.8955474,62.0456974 32.307493,62.1638488 C32.927029,62.3415404 32.9863821,62.4353844 33.0816966,63.3879447 C33.1770746,64.3411534 33.2241654,64.4154659 33.7010588,64.3653271 C34.7059871,64.259672 36.7353986,63.0762065 37.7114141,62.0266673 C39.2266973,60.3972265 39.7717604,59.0009301 39.77665,56.7361183 C39.7788692,55.708196 39.6589899,54.5143632 39.5102546,54.0831635 C38.4981841,51.1490211 34.9004162,50.3218947 33.3438775,52.6655142 C32.416527,54.0617972 32.9290376,56.2200616 34.3653695,56.9671605 C34.9974285,57.2959235 36.523948,57.291308 37.2623874,56.9583974 C37.5823506,56.8141472 37.6236829,56.9263863 37.6236829,57.9395564 C37.6236829,59.036056 37.596665,59.0930696 36.9735128,59.3115721 C35.4901102,59.8317128 33.2562666,59.3281591 32.3752716,58.2750338 C32.0971687,57.942591 31.8301751,57.6705976 31.7819547,57.6705976 C31.7337309,57.6705976 31.3692738,57.9789067 30.972047,58.3557298 C29.821418,59.4472597 28.1179187,59.8024123 26.44751,59.2990157 L25.6493566,59.0584851 L25.6493566,57.927 C25.6493566,56.9207147 25.6893353,56.8150128 26.0106521,56.9717125 C26.2093624,57.0686245 26.9466253,57.1487056 27.6490097,57.1496781 C28.7839606,57.1512456 28.996982,57.0830759 29.5633145,56.5370837 C30.8311089,55.3148127 30.8302165,53.2459806 29.5613794,52.0537788 C27.6497015,50.2575585 24.5115013,51.7435278 23.7851839,54.7888666 C23.037831,57.9223878 24.2879388,61.3418225 26.8219902,63.095494 C27.8484553,63.8058527 29.8031532,64.5740972 30.0234671,64.3537532 C30.1014627,64.275751 30.1943675,63.7944159 30.2299212,63.2841177 Z M13.7934958,54.3601668 C15.999222,53.5803819 17.9616002,51.7124125 18.435753,49.9412415 C18.821259,48.5012133 18.5205265,47.3305014 17.5019188,46.3059346 C16.7145571,45.5139675 16.5158167,45.4185728 15.6532569,45.4185728 C13.9933926,45.4185728 12.7546816,46.4328992 12.502019,47.9989897 C12.3287524,49.0729399 13.0724289,50.472301 14.0839546,50.9756943 L14.8848152,51.3742446 L14.0359414,52.030484 C13.5690577,52.3914152 13.0625195,52.6867234 12.9102983,52.6867234 C12.7580805,52.6867234 12.2224289,52.305559 11.7199614,51.8396912 C10.5884528,50.7906032 10.0606987,49.5123379 10.2340021,48.240563 L10.3588043,47.3247028 L9.33824146,47.1835207 C7.77298984,46.9669834 6.22992336,45.6735681 5.62380938,44.0700423 C5.42697733,43.5493067 5.47751384,43.4357207 6.18641536,42.8055934 C6.61479094,42.42482 7.0202528,42.1093887 7.08743986,42.1046328 C7.15463026,42.099877 7.31714187,42.4570215 7.44857824,42.898281 C7.77033618,43.9785011 9.06691643,44.899418 10.2660165,44.899418 C11.8927367,44.899418 13.2621222,43.5144114 13.2621222,41.8691389 C13.2621222,40.0660739 11.7389615,38.7718866 9.62107014,38.775436 C5.79729323,38.7818395 2.48439266,43.2638611 3.16435124,47.510723 C3.39658659,48.9612088 3.85040254,50.194783 4.15177676,50.194783 C4.26240831,50.194783 4.63444542,49.9565185 4.97852217,49.665301 C5.58044176,49.1558551 5.62821432,49.1483554 6.24087555,49.4670252 C6.59109182,49.6491885 7.03488803,50.1299321 7.22709456,50.5353439 L7.57655551,51.2724597 L6.80639588,51.9823873 C6.38280959,52.3728429 6.03623626,52.7280356 6.03623626,52.7716974 C6.03623626,53.0045811 8.288231,54.2545251 9.10823532,54.4767741 C10.5559104,54.8691482 12.4899272,54.8210147 13.7934958,54.3601668 Z M55.3161851,54.0507615 C56.0198695,53.7316204 56.7631015,53.2840977 56.9678177,53.0562673 C57.3298217,52.6533889 57.3216267,52.6265682 56.6690537,52.0781831 C55.8916015,51.4248614 55.8252165,50.8871644 56.4269958,50.1176464 C57.2207409,49.1026583 57.5931022,49.0412097 58.5012989,49.7753243 L59.312119,50.4307282 L59.7712523,49.4301948 C60.1488674,48.6072995 60.2303823,48.0609764 60.2303823,46.3530488 C60.2303823,44.4949254 60.1690506,44.1508085 59.6474728,43.0824297 C58.7716146,41.2883584 57.2421172,39.7135883 55.8762243,39.1995537 C53.4411203,38.2831353 51.359284,38.8575123 50.4527617,40.695887 C49.8101616,41.9990345 49.9657716,42.8812261 51.0264168,43.9480776 C52.3802212,45.3097995 54.123913,45.2668831 55.368396,43.8412059 C55.714722,43.444457 55.9980754,42.8894778 55.9980754,42.6079158 C55.9980754,41.9440964 56.1557509,41.9623746 57.0865339,42.7340917 C57.9660182,43.4632766 58.0073973,43.6848038 57.4634237,44.751946 C56.7710357,46.1102389 55.3248579,47.0791857 53.904966,47.1361392 L53.0741967,47.1694603 L53.2053824,48.0493792 C53.4040727,49.382098 52.9609249,50.560958 51.8329322,51.7003306 C51.2958335,52.242847 50.7071621,52.6867234 50.5247748,52.6867234 C50.3423841,52.6867234 49.8252446,52.3893297 49.3755763,52.0258518 L48.5579917,51.3649836 L49.1296148,51.1178523 C50.1335237,50.6838285 50.6799103,49.8943881 50.7925605,48.7151504 C50.9231079,47.348559 50.4396538,46.3717247 49.3580668,45.816712 C47.7612821,44.9973294 46.2509719,45.437867 45.3489013,46.9861305 C44.1078541,49.1162073 45.295153,52.0085195 48.0858942,53.6535681 C49.5493008,54.5162014 50.5792417,54.7657858 52.3851341,54.695397 C53.6549706,54.6458999 54.3325161,54.4968872 55.3161851,54.0507615 Z" id="path2191"></path>
                    </g>
                </g>
            </g>
        </g>
    </g>
</svg>